{
.appVersion = "3151";
.formatVersion = 3;
DisplayStrings = (
"Bu/f_f.liga erasL?.",
"ẞ"
);
axes = (
{
name = Weight;
tag = wght;
}
);
customParameters = (
{
name = "Use Typo Metrics";
value = 1;
}
);
date = "2023-01-10 15:10:13 +0000";
familyName = Geist;
featurePrefixes = (
{
automatic = 1;
code = "languagesystem DFLT dflt;
languagesystem DFLT MAH;

languagesystem latn dflt;
languagesystem latn AZE;
languagesystem latn CRT;
languagesystem latn KAZ;
languagesystem latn TAT;
languagesystem latn TRK;
languagesystem latn ROM;
languagesystem latn MOL;
languagesystem latn MAH;
languagesystem latn NLD;
";
name = Languagesystems;
}
);
features = (
{
automatic = 1;
code = "feature locl;
feature subs;
feature sinf;
feature sups;
feature frac;
feature ordn;
feature pnum;
feature tnum;
feature fwid;
feature ss01;
feature ss02;
feature ss03;
feature ss04;
feature ss05;
feature ss06;
feature ss07;
feature ss08;
feature ss09;
feature zero;
";
tag = aalt;
},
{
automatic = 1;
code = "lookup ccmp_Other_1 {
	@CombiningTopAccents = [acutecomb brevecomb caroncomb circumflexcomb commaturnedabovecomb dieresiscomb dotaccentcomb gravecomb hungarumlautcomb macroncomb ringcomb tildecomb];
	@CombiningNonTopAccents = [cedillacomb ogonekcomb];
	sub [i j]' @CombiningTopAccents by [idotless jdotless];
	sub [i j]' @CombiningNonTopAccents @CombiningTopAccents by [idotless jdotless];
} ccmp_Other_1;
";
tag = ccmp;
},
{
automatic = 1;
code = "lookup locl_noScript_0 {
	language MAH;
	sub commaaccentcomb by commaaccentcomb.loclMAH;
} locl_noScript_0;

lookup locl_latn_0 {
	script latn;
	language AZE;
	sub i by idotaccent;
	language CRT;
	sub i by idotaccent;
	language KAZ;
	sub i by idotaccent;
	language TAT;
	sub i by idotaccent;
	language TRK;
	sub i by idotaccent;
} locl_latn_0;

lookup locl_latn_1 {
	script latn;
	language ROM;
	sub Scedilla by Scommaaccent;
	sub scedilla by scommaaccent;
	sub Tcedilla by Tcommaaccent;
	sub tcedilla by tcommaaccent;
	language MOL;
	sub Scedilla by Scommaaccent;

glyphs = (
{
glyphname = A;
kernLeft = A;
kernRight = A;
lastChange = "2023-09-08 14:36:09 +0000";
layers = (
{
anchors = (
{
name = ogonek;
pos = (651,0);
},
{
name = top;
pos = (336,710);
}
);
layerId = m01;
shapes = (
{
closed = 1;
nodes = (
(117,0,l),
(187,201,l),
(485,201,l),
(555,0,l),
(651,0,l),
(395,710,l),
(277,710,l),
(21,0,l)
);
},
{
closed = 1;
nodes = (
(336,633,l),
(455,287,l),
(217,287,l)
);
}
);
width = 672;
},
{
anchors = (
{
name = ogonek;
pos = (650,0);
},
{
name = top;
pos = (336,710);
}
);
associatedMasterId = m01;
layerId = "84493B96-538C-4540-8438-039FBBB18AE7";
name = "7 Feb 23 18:22";
shapes = (
{
closed = 1;
nodes = (
(116,0,l),
(186,201,l),
(484,201,l),
(554,0,l),
(650,0,l),
(394,710,l),
(276,710,l),
(20,0,l)
);
},
{
closed = 1;
nodes = (
(335,633,l),
(454,287,l),
(216,287,l)
);
}
);
width = 670;
},
{
anchors = (
{
name = ogonek;
pos = (786,0);
},
{
name = top;
pos = (408,710);
}
);
background = {
shapes = (
{
closed = 1;
nodes = (
(189,0,l),
(272,239,l),
(416,655,l),
(401,655,l),
(541,247,l),
(627,0,l),
(723,0,l),
(467,710,l),
(349,710,l),
(93,0,l)
);
},
{
closed = 1;
nodes = (
(236,201,l),
(591,201,l),
(591,287,l),
(236,287,l)
);
}
);
};
layerId = "37DC72B3-BCF2-46ED-AAD5-F0285A86700E";
shapes = (
{
closed = 1;
nodes = (
(260,0,l),
(288,83,l),
(527,83,l),
(555,0,l),
(786,0,l),
(530,710,l),
(286,710,l),
(30,0,l)
);
},
{
closed = 1;
nodes = (
(408,439,l),
(467,263,l),
(349,263,l)
);
}
);
width = 816;
},
{
anchors = (
{
name = ogonek;
pos = (588,0);
},
{
name = top;
pos = (306,710);
}
);
background = {
shapes = (
{
closed = 1;
nodes = (
(123,0,l),
(206,239,l),
(350,655,l),
(335,655,l),
(475,247,l),
(561,0,l),
(657,0,l),
(401,710,l),
(283,710,l),
(27,0,l)
);
},
{
closed = 1;
nodes = (
(170,201,l),
(525,201,l),
(525,287,l),
(170,287,l)
);
}
);
};
layerId = "EE2FFE84-06F1-4AFB-BBEC-60D09A436D14";
shapes = (
{
closed = 1;
nodes = (
(57,0,l),
(143,235,l),
(469,235,l),
(555,0,l),
(588,0,l),
(325,710,l),
(287,710,l),
(24,0,l)
);
},
{
closed = 1;
nodes = (
(306,678,l),
(458,265,l),
(154,265,l)
);
}
);
width = 612;
},
{
anchors = (
{
name = bottom;
pos = (352,0);
},
{
name = ogonek;
pos = (634,0);
},
{
name = top;
pos = (352,710);
}
);
associatedMasterId = "EE2FFE84-06F1-4AFB-BBEC-60D09A436D14";
background = {
shapes = (
{
closed = 1;
nodes = (
(133,0,l),
(216,239,l),
(360,655,l),
(345,655,l),
(485,247,l),
(571,0,l),
(667,0,l),
(411,710,l),
(293,710,l),
(37,0,l)
);
},
{
closed = 1;
nodes = (
(180,201,l),
(535,201,l),
(535,287,l),
(180,287,l)
);
}
);
};
layerId = "B79994D4-476F-4D20-B932-F759658767FF";
name = "22 Feb 23 16:32";
shapes = (
{
closed = 1;
nodes = (
(103,0,l),
(352,678,l),
(601,0,l),
(634,0,l),
(371,710,l),
(333,710,l),
(70,0,l)
);
},
{
closed = 1;
nodes = (
(180,235,l),
(528,235,l),
(528,265,l),
(180,265,l)
);
}
);
width = 704;
},
{
anchors = (
{
name = ogonek;
pos = (650,0);
},
{
name = top;
pos = (336,710);
}
);
associatedMasterId = m01;
layerId = "1223EF4A-4D4D-4E2C-8E2C-8856A493BAFA";
name = "22 Feb 23 16:32";
shapes = (
{
closed = 1;
nodes = (
(116,0,l),
(199,239,l),
(343,655,l),
(328,655,l),
(468,247,l),
(554,0,l),
(650,0,l),
(394,710,l),
(276,710,l),
(20,0,l)
);
},
{
closed = 1;
nodes = (
(163,201,l),
(518,201,l),
(518,287,l),
(163,287,l)
);
}
);
width = 670;
},
{
associatedMasterId = "37DC72B3-BCF2-46ED-AAD5-F0285A86700E";
background = {
shapes = (
{
closed = 1;
nodes = (
(189,0,l),
(272,239,l),
(416,655,l),
(401,655,l),
(541,247,l),
(627,0,l),
(723,0,l),
(467,710,l),
(349,710,l),
(93,0,l)
);
},
{
closed = 1;
nodes = (
(236,201,l),
(591,201,l),
(591,287,l),
(236,287,l)
);
}
);
};
layerId = "B4599854-98CF-4EE9-9007-00B1981B40B5";
name = "22 Feb 23 16:32";
shapes = (
{
closed = 1;
nodes = (
(260,0,l),
(488,678,l),
(327,678,l),
(555,0,l),
(786,0,l),
(530,710,l),
(286,710,l),
(30,0,l)
);
},
{
closed = 1;
nodes = (
(216,83,l),
(600,83,l),
(600,263,l),
(216,263,l)
);
}
);
width = 816;
}
);
metricLeft = V;
metricRight = V;
unicode = 65;
},
{
glyphname = AE;
lastChange = "2023-07-05 17:52:13 +0000";
layers = (
{
guides = (
{
angle = 245;
pos = (259,490);
},
{
angle = -90;
pos = (899,369);
},
{
angle = -90;
pos = (495,456);
}
);
layerId = m01;
shapes = (
{
closed = 1;
nodes = (
(21,0,l),
(120,0,l),
(223,201,l),
(495,201,l),
(495,0,l),
(920,0,l),
(920,86,l),
(583,86,l),
(583,314,l),
(900,314,l),
(900,398,l),
(583,398,l),
(583,624,l),
(912,624,l),
(912,710,l),
(401,710,l)
);
},
{
closed = 1;
nodes = (
(444,627,l),
(495,627,l),
(495,287,l),
(267,287,l)
);
}
);
width = 977;
},
{
anchors = (
{
name = top;
pos = (278,711);
}
);
associatedMasterId = m01;
guides = (
{
angle = 245;
pos = (56,490);
},
{
angle = -90;
pos = (696,369);
},
{
angle = -90;
pos = (292,456);
}
);
layerId = "D3AC294B-459A-4EDE-A66F-37C424C85D2B";
name = "31 de ene. de 23 11:01";
shapes = (
{
closed = 1;
nodes = (
(292,0,l),
(707,0,l),
(707,86,l),
(380,86,l),
(380,314,l),
(687,314,l),
(687,398,l),
(380,398,l),
(380,624,l),
(699,624,l),
(699,710,l),
(292,710,l)
);
},
{
closed = 1;
nodes = (
(309,627,l),
(309,710,l),
(198,710,l),
(-182,0,l),
(-86,0,l),
(20,201,l),
(306,201,l),
(307,287,l),
(64,287,l),
(241,627,l)
);
}
);
width = 520;
},
{
layerId = "EE2FFE84-06F1-4AFB-BBEC-60D09A436D14";
shapes = (
{
closed = 1;
nodes = (
(24,0,l),
(60,0,l),
(179,231,l),
(451,231,l),
(451,0,l),
(840,0,l),
(840,30,l),
(483,30,l),
(483,341,l),
(820,341,l),
(820,371,l),
(483,371,l),
(483,680,l),
(832,680,l),
(832,710,l),
(395,710,l)
);
},
{
closed = 1;
nodes = (
(412,680,l),
(451,680,l),
(451,261,l),
(193,261,l)
);
}
);
width = 890;
},
{
background = {
shapes = (
{
pos = (546,0);
ref = E;
}
);
};
guides = (
{
pos = (210,83);
}
);
layerId = "37DC72B3-BCF2-46ED-AAD5-F0285A86700E";
shapes = (
{
closed = 1;
nodes = (
(30,0,l),
(272,0,l),
(331,113,l),
(577,113,l),
(577,0,l),
(1117,0,l),
(1117,186,l),
(817,186,l),
(817,264,l),
(1097,264,l),
(1097,448,l),
(817,448,l),
(817,524,l),
(1109,524,l),
(1109,710,l),
(410,710,l)
);
},
{
closed = 1;
nodes = (
(544,524,l),
(577,524,l),
(577,317,l),
(437,317,l)
);
}
);
width = 1147;
}
);
metricLeft = A;
metricRight = E;
unicode = 198;
},
{
glyphname = B;
kernLeft = H;
kernRight = B;
lastChange = "2023-07-05 17:52:18 +0000";
layers = (
{
layerId = m01;
shapes = (
{
closed = 1;
nodes = (
(377,0,ls),
(532,0,o),
(619,72,o),
(619,201,cs),
(619,305,o),
(544,370,o),
(424,370,c),
(425,364,l),
(526,364,o),
(589,421,o),
(589,513,cs),
(589,645,o),
(505,710,o),
(337,710,cs),
(92,710,l),
(92,0,l)
);
},
{
closed = 1;
nodes = (
(180,318,l),
(377,318,ls),
(473,318,o),
(527,276,o),
(527,201,cs),
(527,127,o),
(473,86,o),
(377,86,cs),
(180,86,l)
);
},
{
closed = 1;
nodes = (
(180,624,l),
(337,624,ls),
(444,624,o),
(497,587,o),
(497,513,cs),
(497,443,o),
(440,404,o),
(337,404,cs),
(180,404,l)
);
}
);
width = 681;
},
{
layerId = "37DC72B3-BCF2-46ED-AAD5-F0285A86700E";
shapes = (
{
closed = 1;
nodes = (
(368,0,ls),
(589,0,o),
(698,67,o),
(698,201,cs),
(698,298,o),
(646,348,o),
(528,365,c),
(528,370,l),
(621,386,o),
(668,433,o),
(668,513,cs),
(668,654,o),
(555,710,o),
(328,710,cs),
(50,710,l),
(50,0,l)
);
},
{
closed = 1;
nodes = (
(290,288,l),
(378,288,ls),
(420,288,o),
(460,273,o),
(460,231,cs),
(460,190,o),
(419,176,o),
(378,176,cs),
(290,176,l)
);
},
{
closed = 1;
nodes = (
(290,534,l),
(358,534,ls),
(395,534,o),
(430,521,o),
(430,484,cs),
(430,447,o),
(395,434,o),
(358,434,cs),
(290,434,l)
);
}
);
width = 733;
},
{
background = {
shapes = (
{
closed = 1;
nodes = (
(344,0,ls),
(499,0,o),
(586,72,o),
(586,201,cs),
(586,305,o),
(511,370,o),
(391,370,c),
(392,364,l),
(488,364,o),
(556,426,o),
(556,513,cs),
(556,645,o),
(472,710,o),
(304,710,cs),
(79,710,l),
(79,0,l)
);
},
{
closed = 1;
nodes = (
(167,318,l),
(344,318,ls),
(440,318,o),
(494,276,o),
(494,201,cs),
(494,127,o),
(440,86,o),
(344,86,cs),
(167,86,l)
);
},
{
closed = 1;
nodes = (
(167,624,l),
(304,624,ls),
(411,624,o),
(464,587,o),
(464,513,cs),
(464,443,o),
(407,404,o),
(304,404,cs),
(167,404,l)
);
}
);
};
layerId = "EE2FFE84-06F1-4AFB-BBEC-60D09A436D14";
shapes = (
{
closed = 1;
nodes = (
(353,0,ls),
(507,0,o),
(583,63,o),
(583,189,cs),
(583,294,o),
(504,360,o),
(378,360,c),
(378,354,l),
(481,354,o),
(553,423,o),
(553,520,cs),
(553,647,o),
(473,710,o),
(313,710,cs),
(96,710,l),
(96,0,l)
);
},
{
closed = 1;
nodes = (
(128,339,l),
(353,339,ls),
(473,339,o),
(549,281,o),
(549,189,cs),
(549,83,o),
(484,30,o),
(353,30,cs),
(128,30,l)
);
},
{
closed = 1;
nodes = (
(128,680,l),
(313,680,ls),
(451,680,o),
(519,627,o),
(519,520,cs),
(519,423,o),
(445,369,o),
(313,369,cs),
(128,369,l)
);
}
);
width = 638;
}
);
metricLeft = H;
metricRight = R;
unicode = 66;
},
{
glyphname = C;
kernLeft = O;
kernRight = C;
lastChange = "2023-07-05 17:52:13 +0000";
layers = (
{
anchors = (
{
name = bottom;
pos = (371,0);
},
{
name = top;
pos = (371,710);
}
);
layerId = m01;
shapes = (
{
closed = 1;
nodes = (
(564,230,l),
(544,137,o),
(478,70,o),
(371,70,cs),
(210,70,o),
(141,203,o),
(141,354,cs),
(141,506,o),
(209,640,o),
(371,640,cs),
(473,640,o),
(537,581,o),
(560,496,c),
(652,502,l),
(621,632,o),
(522,726,o),
(371,726,cs),
(165,726,o),
(49,560,o),
(49,354,cs),
(49,149,o),
(166,-16,o),
(371,-16,cs),
(535,-16,o),
(632,85,o),
(658,224,c)
);
}
);
width = 702;
},
{
anchors = (
{
name = bottom;
pos = (400,0);
},
{
name = top;
pos = (400,710);
}
);
background = {
shapes = (
{
closed = 1;
nodes = (
(557,232,l),
(595,276,l),
(589,160,o),
(520,70,o),
(396,70,cs),
(235,70,o),
(166,203,o),
(166,354,cs),
(166,506,o),
(234,640,o),
(396,640,cs),
(517,640,o),
(585,556,o),
(593,445,c),
(556,494,l),
(747,506,l),
(686,446,l),
(672,605,o),
(568,726,o),
(396,726,cs),
(190,726,o),
(74,560,o),
(74,354,cs),
(74,149,o),
(191,-16,o),
(396,-16,cs),
(580,-16,o),
(679,111,o),
(689,276,c),
(748,220,l)
);
}
);
};
layerId = "37DC72B3-BCF2-46ED-AAD5-F0285A86700E";
shapes = (
{
closed = 1;
nodes = (
(490,274,l),
(481,207,o),
(446,170,o),
(393,170,cs),
(317,170,o),
(274,236,o),
(274,354,cs),
(274,473,o),
(317,540,o),
(393,540,cs),
(445,540,o),
(481,504,o),
(492,440,c),
(739,451,l),
(701,628,o),
(580,726,o),
(400,726,cs),
(183,726,o),
(30,571,o),
(30,354,cs),
(30,137,o),
(183,-16,o),
(400,-16,cs),
(577,-16,o),
(698,83,o),
(738,264,c)
);
}
);
width = 764;
},
{
anchors = (
{
name = bottom;
pos = (356,0);
},
{
name = top;
pos = (356,710);
}
);
background = {
shapes = (
{
closed = 1;
nodes = (
(525,232,l),
(563,276,l),
(557,160,o),
(488,70,o),
(364,70,cs),
(203,70,o),
(134,203,o),
(134,354,cs),
(134,506,o),
(202,640,o),
(364,640,cs),
(485,640,o),
(553,556,o),
(561,445,c),
(524,494,l),
(715,506,l),
(654,446,l),
(640,605,o),
(536,726,o),
(364,726,cs),
(158,726,o),
(42,560,o),
(42,354,cs),
(42,149,o),
(159,-16,o),
(364,-16,cs),
(548,-16,o),
(647,111,o),
(657,276,c),
(716,220,l)
);
}
);
};
layerId = "EE2FFE84-06F1-4AFB-BBEC-60D09A436D14";
shapes = (
{
closed = 1;
nodes = (
(589,229,l),
(566,97,o),
(476,16,o),
(356,16,cs),
(190,16,o),
(86,146,o),
(86,354,cs),
(86,563,o),
(190,694,o),
(356,694,cs),
(472,694,o),
(559,618,o),
(583,497,c),
(617,501,l),
(587,638,o),
(486,726,o),
(356,726,cs),
(169,726,o),
(52,583,o),
(52,354,cs),
(52,127,o),
(169,-16,o),
(356,-16,cs),
(494,-16,o),
(598,78,o),
(623,225,c)
);
}
);
width = 670;
},
{
anchors = (
{
name = bottom;
pos = (362,0);
},
{
name = top;
pos = (362,710);
}
);
associatedMasterId = m01;
layerId = "F08B78E7-373B-408C-B38D-E491E5865CBF";
name = "22 Feb 23 16:36";
shapes = (
{
closed = 1;
nodes = (
(523,232,l),
(561,276,l),
(555,160,o),
(486,70,o),
(362,70,cs),
(201,70,o),
(132,203,o),
(132,354,cs),
(132,506,o),
(200,640,o),
(362,640,cs),
(483,640,o),
(551,556,o),
(559,445,c),
(522,494,l),
(713,506,l),
(652,446,l),
(638,605,o),
(534,726,o),
(362,726,cs),
(156,726,o),
(40,560,o),
(40,354,cs),
(40,149,o),
(157,-16,o),
(362,-16,cs),
(546,-16,o),
(645,111,o),
(655,276,c),
(714,220,l)
);
}
);
width = 684;
}
);
metricLeft = O;
metricRight = "=O-5";
unicode = 67;
},
{
glyphname = D;
kernLeft = H;
kernRight = O;
lastChange = "2023-07-05 17:52:13 +0000";
layers = (
{
anchors = (
{
name = bottom;
pos = (328,0);
},
{
name = top;
pos = (322,710);
}
);
layerId = m01;
shapes = (
{
closed = 1;
nodes = (
(92,0,l),
(318,0,ls),
(534,0,o),
(654,127,o),
(654,354,cs),
(654,582,o),
(531,710,o),
(312,710,cs),
(92,710,l)
);
},
{
closed = 1;
nodes = (
(180,624,l),
(312,624,ls),
(479,624,o),
(562,535,o),
(562,354,cs),
(562,175,o),
(479,86,o),
(312,86,cs),
(180,86,l)
);
}
);
width = 703;
},
{
associatedMasterId = m01;
layerId = "D3940207-A36D-445B-A64E-6E25B46C64C6";
name = "24 Jan 23 10:23";
shapes = (
{
pos = (10,0);
ref = I;
},
{
closed = 1;
nodes = (
(74,86,l),
(74,0,l),
(304,0,l),
(509,0,o),
(626,165,o),
(626,354,cs),
(626,544,o),
(510,710,o),
(304,710,c),
(74,710,l),
(74,624,l),
(304,624,l),
(466,624,o),
(534,490,o),
(534,354,cs),
(534,219,o),
(465,86,o),
(304,86,c)
);
}
);
width = 666;
},
{
anchors = (
{
name = bottom;
pos = (334,0);
},
{
name = top;
pos = (328,710);
}
);
background = {
shapes = (
{
closed = 1;
nodes = (
(108,0,l),
(334,0,ls),
(535,0,o),
(670,151,o),
(670,354,cs),
(670,560,o),
(534,710,o),
(328,710,cs),
(108,710,l)
);
},
{
closed = 1;
nodes = (
(196,624,l),
(328,624,ls),
(510,624,o),
(578,506,o),
(578,354,cs),
(578,203,o),
(509,86,o),
(328,86,cs),
(196,86,l)
);
}
);
};
layerId = "37DC72B3-BCF2-46ED-AAD5-F0285A86700E";
shapes = (
{
closed = 1;
nodes = (
(50,0,l),
(334,0,ls),
(575,0,o),
(710,127,o),
(710,354,cs),
(710,582,o),
(573,710,o),
(328,710,cs),
(50,710,l)
);
},
{
closed = 1;
nodes = (
(290,524,l),
(328,524,ls),
(427,524,o),
(470,473,o),
(470,355,cs),
(470,237,o),
(427,186,o),
(328,186,cs),
(290,186,l)
);
}
);
width = 740;
},
{
anchors = (
{
name = bottom;
pos = (349,0);
},
{
name = top;
pos = (349,710);
}
);
background = {
shapes = (
{
closed = 1;
nodes = (
(52,0,l),
(278,0,ls),
(479,0,o),
(614,151,o),
(614,354,cs),
(614,560,o),
(478,710,o),
(272,710,cs),
(52,710,l)
);
},
{
closed = 1;
nodes = (
(140,624,l),
(272,624,ls),
(454,624,o),
(522,506,o),
(522,354,cs),
(522,203,o),
(453,86,o),
(272,86,cs),
(140,86,l)
);
}
);
};
layerId = "EE2FFE84-06F1-4AFB-BBEC-60D09A436D14";
shapes = (
{
closed = 1;
nodes = (
(96,0,l),
(304,0,ls),
(511,0,o),
(626,127,o),
(626,354,cs),
(626,582,o),
(508,710,o),
(298,710,cs),
(96,710,l)
);
},
{
closed = 1;
nodes = (
(128,680,l),
(298,680,ls),
(487,680,o),
(592,563,o),
(592,354,cs),
(592,146,o),
(487,30,o),
(298,30,cs),
(128,30,l)
);
}
);
width = 678;
}
);
metricLeft = H;
metricRight = O;
unicode = 68;
},
{
glyphname = Eth;
lastChange = "2023-07-05 17:52:13 +0000";
layers = (
{
layerId = m01;
shapes = (
{
closed = 1;
nodes = (
(49,317,l),
(419,317,l),
(419,393,l),
(49,393,l)
);
},
{
pos = (88,0);
ref = D;
}
);
width = 791;
},
{
background = {
shapes = (
{
closed = 1;
nodes = (
(144,0,l),
(370,0,ls),
(571,0,o),
(706,151,o),
(706,354,cs),
(706,560,o),
(570,710,o),
(364,710,cs),
(144,710,l)
);
},
{
closed = 1;
nodes = (
(232,624,l),
(364,624,ls),
(546,624,o),
(614,506,o),
(614,354,cs),
(614,203,o),
(545,86,o),
(364,86,cs),
(232,86,l)
);
},
{
closed = 1;
nodes = (
(60,317,l),
(430,317,l),
(430,393,l),
(60,393,l)
);
}
);
};
layerId = "EE2FFE84-06F1-4AFB-BBEC-60D09A436D14";
shapes = (
{
closed = 1;
nodes = (
(52,340,l),
(422,340,l),
(422,370,l),
(52,370,l)
);
},
{
pos = (91,0);
ref = D;
}
);
width = 769;
},
{
layerId = "37DC72B3-BCF2-46ED-AAD5-F0285A86700E";
shapes = (
{
closed = 1;
nodes = (
(30,295,l),
(400,295,l),
(400,415,l),
(30,415,l)
);
},
{
pos = (60,0);
ref = D;
}
);
width = 800;
}
);
metricLeft = O;
metricRight = O;
unicode = 208;
},
{
color = 8;
glyphname = E;
kernLeft = H;
kernRight = E;
lastChange = "2023-08-30 19:12:04 +0000";
layers = (
{
anchors = (
{
name = bottom;
pos = (319,0);
},
{
name = ogonek;
pos = (547,0);
},
{
name = top;
pos = (317,711);
}
);
layerId = m01;
shapes = (
{
closed = 1;
nodes = (
(92,0,l),
(547,0,l),
(547,86,l),
(180,86,l),
(180,314,l),
(527,314,l),
(527,398,l),
(180,398,l),
(180,624,l),
(539,624,l),
(539,710,l),
(92,710,l)
);
}
);
width = 604;
},
{
associatedMasterId = m01;
layerId = "30AB7133-801F-4567-A8E5-1636B279AB76";
name = "24 Jan 23 10:24";
shapes = (
{
closed = 1;
nodes = (
(70,0,l),
(480,0,l),
(480,86,l),
(158,86,l),
(158,314,l),
(460,314,l),
(460,398,l),
(158,398,l),
(158,624,l),
(472,624,l),
(472,710,l),
(70,710,l)
);
}
);
width = 520;
},
{
anchors = (
{
name = bottom;
pos = (327,0);
},
{
name = ogonek;
pos = (616,0);
},
{
name = top;
pos = (328,711);
}
);
background = {
shapes = (
{
pos = (20,0);
ref = B;
}
);
};
layerId = "37DC72B3-BCF2-46ED-AAD5-F0285A86700E";
shapes = (
{
closed = 1;
nodes = (
(50,0,l),
(616,0,l),
(616,186,l),
(290,186,l),
(290,264,l),
(596,264,l),
(596,448,l),
(290,448,l),
(290,524,l),
(608,524,l),
(608,710,l),
(50,710,l)
);
}
);
width = 646;
},
{
anchors = (
{
name = bottom;
pos = (306,0);
},
{
name = ogonek;
pos = (523,0);
},
{
name = top;
pos = (306,710);
}
);
background = {
shapes = (
{
closed = 1;
nodes = (
(70,0,l),
(525,0,l),
(525,86,l),
(158,86,l),
(158,314,l),
(505,314,l),
(505,398,l),
(158,398,l),
(158,624,l),
(517,624,l),
(517,710,l),
(70,710,l)
);
}
);
};
layerId = "EE2FFE84-06F1-4AFB-BBEC-60D09A436D14";
shapes = (
{
closed = 1;
nodes = (
(96,0,l),
(523,0,l),
(523,30,l),
(128,30,l),
(128,339,l),
(503,339,l),
(503,369,l),
(128,369,l),
(128,680,l),
(515,680,l),
(515,710,l),
(96,710,l)
);
}
);
width = 573;
}
);
metricLeft = H;
unicode = 69;
},
{
glyphname = Schwa;
lastChange = "2023-07-05 17:52:13 +0000";
layers = (
{
layerId = m01;
shapes = (
{
closed = 1;
nodes = (
(50,339,ls),
(62,84,o),
(200,-16,o),
(353,-16,cs),
(541,-16,o),
(673,137,o),
(673,355,cs),
(673,581,o),
(547,726,o),
(353,726,cs),
(219,726,o),
(109,642,o),
(68,509,c),
(165,500,l),
(202,594,o),
(270,640,o),
(353,640,cs),
(472,640,o),
(570,533,o),
(580,391,c),
(49,391,l)
);
},
{
closed = 1;
nodes = (
(238,70,o),
(163,154,o),
(144,305,c),
(579,305,l),
(556,154,o),
(475,70,o),
(353,70,cs)
);
}
);
width = 722;
},
{
layerId = "EE2FFE84-06F1-4AFB-BBEC-60D09A436D14";
shapes = (
{
closed = 1;
nodes = (
(52,356,ls),
(52,138,o),
(176,-15,o),
(353,-15,cs),
(529,-15,o),
(653,138,o),
(653,356,cs),
(653,573,o),
(529,726,o),
(353,726,cs),
(227,726,o),
(111,641,o),
(72,519,c),
(106,516,l),
(145,621,o),
(247,694,o),
(353,694,cs),
(508,694,o),
(617,558,o),
(620,365,c),
(52,365,l)
);
},
{
closed = 1;
nodes = (
(202,17,o),
(94,147,o),
(86,335,c),
(620,335,l),
(612,147,o),
(504,17,o),
(353,17,cs)
);
}
);
width = 705;
},
{
layerId = "37DC72B3-BCF2-46ED-AAD5-F0285A86700E";
shapes = (
{
closed = 1;
nodes = (
(31,359,ls),
(34,149,o),
(194,-16,o),
(395,-16,cs),
(583,-16,o),
(770,137,o),
(770,355,cs),
(770,581,o),
(589,726,o),
(395,726,cs),
(231,726,o),
(97,635,o),
(49,489,c),
(298,480,l),
(317,517,o),
(357,540,o),
(401,540,cs),
(476,540,o),
(520,497,o),
(525,421,c),
(30,421,l)
);
},
{
closed = 1;
nodes = (
(348,170,o),
(307,199,o),
(288,235,c),
(513,235,l),
(494,199,o),
(453,170,o),
(400,170,cs)
);
}
);
width = 800;
},
{
anchors = (
{
name = bottom;
pos = (354.527,1.053);
},
{
name = ogonek;
pos = (270.256,710);
},
{
name = top;
pos = (354.527,710);
}
);
associatedMasterId = "EE2FFE84-06F1-4AFB-BBEC-60D09A436D14";
layerId = "72007AC6-C5A5-4BC2-857D-6E6F5A11D494";
name = "22 Feb 23 16:42";
shapes = (
{
closed = 1;
nodes = (
(634,365,l),
(54,365,l),
(56,335,l),
(634,335,l)
);
},
{
closed = 1;
nodes = (
(54,364,l),
(54,361,o),
(54,358,o),
(54,356,cs),
(54,138,o),
(178,-15,o),
(355,-15,cs),
(531,-15,o),
(655,138,o),
(655,356,cs),
(655,573,o),
(531,726,o),
(355,726,cs),
(229,726,o),
(113,641,o),
(74,519,c),
(108,516,l),
(147,621,o),
(249,694,o),
(355,694,cs),
(512,694,o),
(622,554,o),
(622,356,cs),
(622,157,o),
(512,17,o),
(355,17,cs),
(198,17,o),
(88,157,o),
(88,356,cs),
(88,358,o),
(88,361,o),
(88,364,c)
);
}
);
width = 709;
}
);
metricLeft = O;
metricRight = O;
unicode = 399;
},
{
glyphname = F;
kernLeft = b;
kernRight = F;
lastChange = "2023-09-08 14:20:54 +0000";
layers = (
{
background = {
shapes = (
{
pos = (16,0);
ref = E;
}
);
};
layerId = m01;
shapes = (
{
closed = 1;
nodes = (
(92,0,l),
(180,0,l),
(180,350,l),
(135,305,l),
(521,305,l),
(521,389,l),
(135,389,l),
(180,344,l),
(180,669,l),
(135,624,l),
(539,624,l),
(539,710,l),
(92,710,l)
);
}
);
width = 591;
},
{
associatedMasterId = m01;
layerId = "7FACF18E-80D3-46CB-81FD-EE5CE570BF8C";
name = "24 Jan 23 10:24";
shapes = (
{
closed = 1;
nodes = (
(60,0,l),
(148,0,l),
(148,359,l),
(103,314,l),
(450,314,l),
(450,398,l),
(103,398,l),
(148,353,l),
(148,669,l),
(103,624,l),
(462,624,l),
(462,710,l),
(60,710,l)
);
}
);
width = 497;
},
{
background = {
shapes = (
{
ref = E;
}
);
};
layerId = "37DC72B3-BCF2-46ED-AAD5-F0285A86700E";
shapes = (
{
closed = 1;
nodes = (
(50,0,l),
(290,0,l),
(290,350,l),
(151,255,l),
(580,255,l),
(580,439,l),
(151,439,l),
(290,344,l),
(290,669,l),
(151,524,l),
(598,524,l),
(598,710,l),
(50,710,l)
);
}
);
width = 623;
},
{
background = {
shapes = (
{
ref = E;
}
);
};
layerId = "EE2FFE84-06F1-4AFB-BBEC-60D09A436D14";
shapes = (
{
closed = 1;
nodes = (
(96,0,l),
(128,0,l),
(128,350,l),
(121,339,l),
(497,339,l),
(497,369,l),
(121,369,l),
(128,344,l),
(128,689,l),
(121,680,l),
(515,680,l),
(515,710,l),
(96,710,l)
);
}
);
width = 560;
}
);
metricLeft = H;
metricRight = "=E-5";
unicode = 70;
},
{
glyphname = G;
kernLeft = O;
kernRight = G;
lastChange = "2023-08-27 23:27:57 +0000";
layers = (
{
anchors = (
{
name = bottom;
pos = (371,0);
},
{
name = top;
pos = (371,710);
}
);
layerId = m01;
shapes = (
{
closed = 1;
nodes = (
(655,360,l),
(371,360,l),
(371,274,l),
(570,274,l),
(563,159,o),
(494,70,o),
(371,70,cs),
(210,70,o),
(141,203,o),
(141,354,cs),
(141,506,o),
(209,640,o),
(371,640,cs),
(473,640,o),
(537,581,o),
(560,496,c),
(652,502,l),
(621,632,o),
(522,726,o),
(371,726,cs),
(165,726,o),
(49,560,o),
(49,354,cs),
(49,149,o),
(166,-16,o),
(371,-16,cs),
(475,-16,o),
(572,51,o),
(591,142,c),
(580,160,l),
(591,0,l),
(655,0,l)
);
}
);
width = 709;
},
{
anchors = (
{
name = bottom;
pos = (398,0);
},
{
name = top;
pos = (400,710);
}
);
background = {
shapes = (
{
closed = 1;
nodes = (
(687,360,l),
(403,360,l),
(403,274,l),
(602,274,l),
(595,159,o),
(526,70,o),
(403,70,cs),
(242,70,o),
(173,203,o),
(173,354,cs),
(173,506,o),
(241,640,o),
(403,640,cs),
(505,640,o),
(569,581,o),
(592,496,c),
(684,502,l),
(653,632,o),
(554,726,o),
(403,726,cs),
(197,726,o),
(81,560,o),
(81,354,cs),
(81,149,o),
(198,-16,o),
(403,-16,cs),
(507,-16,o),
(604,51,o),
(623,142,c),
(612,160,l),
(623,0,l),
(687,0,l)
);
}
);
};
layerId = "37DC72B3-BCF2-46ED-AAD5-F0285A86700E";
shapes = (
{
closed = 1;
nodes = (
(737,384,l),
(391,384,l),
(391,234,l),
(490,234,l),
(472,189,o),
(442,170,o),
(393,170,cs),
(317,170,o),
(274,236,o),
(274,354,cs),
(274,473,o),
(317,540,o),
(393,540,cs),
(442,540,o),
(476,510,o),
(489,456,c),
(736,467,l),
(696,633,o),
(575,726,o),
(400,726,cs),
(183,726,o),
(30,571,o),
(30,354,cs),
(30,137,o),
(183,-16,o),
(380,-16,cs),
(502,-16,o),
(585,35,o),
(613,125,c),
(593,124,l),
(605,0,l),
(737,0,l)
);
}
);
width = 772;
},
{
associatedMasterId = "37DC72B3-BCF2-46ED-AAD5-F0285A86700E";
background = {
shapes = (
{
closed = 1;
nodes = (
(687,360,l),
(403,360,l),
(403,274,l),
(602,274,l),
(595,159,o),
(526,70,o),
(403,70,cs),
(242,70,o),
(173,203,o),
(173,354,cs),
(173,506,o),
(241,640,o),
(403,640,cs),
(505,640,o),
(569,581,o),
(592,496,c),
(684,502,l),
(653,632,o),
(554,726,o),
(403,726,cs),
(197,726,o),
(81,560,o),
(81,354,cs),
(81,149,o),
(198,-16,o),
(403,-16,cs),
(507,-16,o),
(604,51,o),
(623,142,c),
(612,160,l),
(623,0,l),
(687,0,l)
);
}
);
};
layerId = "C6E604EC-5EE8-4314-8F92-A6AC318BE1B7";
name = "15 Feb 23 16:21";
shapes = (
{
closed = 1;
nodes = (
(737,384,l),
(391,384,l),
(391,234,l),
(490,234,l),
(472,189,o),
(442,170,o),
(393,170,cs),
(317,170,o),
(274,236,o),
(274,354,cs),
(274,473,o),
(317,540,o),
(393,540,cs),
(442,540,o),
(476,510,o),
(489,456,c),
(736,467,l),
(696,633,o),
(575,726,o),
(400,726,cs),
(183,726,o),
(30,571,o),
(30,354,cs),
(30,137,o),
(183,-16,o),
(400,-16,cs),
(481,-16,o),
(551,18,o),
(596,79,c),
(602,0,l),
(737,0,l)
);
}
);
width = 767;
},
{
anchors = (
{
name = bottom;
pos = (356,0);
},
{
name = top;
pos = (356,710);
}
);
background = {
shapes = (
{
closed = 1;
nodes = (
(648,360,l),
(364,360,l),
(364,274,l),
(563,274,l),
(556,159,o),
(487,70,o),
(364,70,cs),
(203,70,o),
(134,203,o),
(134,354,cs),
(134,506,o),
(202,640,o),
(364,640,cs),
(466,640,o),
(530,581,o),
(553,496,c),
(645,502,l),
(614,632,o),
(515,726,o),
(364,726,cs),
(158,726,o),
(42,560,o),
(42,354,cs),
(42,149,o),
(159,-16,o),
(364,-16,cs),
(468,-16,o),
(565,51,o),
(584,142,c),
(573,160,l),
(584,0,l),
(648,0,l)
);
}
);
};
layerId = "EE2FFE84-06F1-4AFB-BBEC-60D09A436D14";
shapes = (
{
closed = 1;
nodes = (
(622,330,l),
(356,330,l),
(356,300,l),
(588,300,l),
(578,126,o),
(488,16,o),
(356,16,cs),
(190,16,o),
(86,146,o),
(86,354,cs),
(86,563,o),
(190,694,o),
(356,694,cs),
(464,694,o),
(552,618,o),
(585,497,c),
(618,501,l),
(585,639,o),
(484,726,o),
(356,726,cs),
(169,726,o),
(52,583,o),
(52,354,cs),
(52,127,o),
(169,-16,o),
(356,-16,cs),
(476,-16,o),
(566,58,o),
(591,177,c),
(585,195,l),
(590,0,l),
(622,0,l)
);
}
);
width = 679;
}
);
metricLeft = O;
metricRight = "=O+5";
unicode = 71;
},
{
color = 8;
glyphname = H;
kernLeft = b;
kernRight = d;
lastChange = "2023-09-20 15:46:31 +0000";
layers = (
{
anchors = (
{
name = top;
pos = (352,710);
}
);
background = {
shapes = (
{
pos = (-8,0);
ref = N;
}
);
};
layerId = m01;
shapes = (
{
closed = 1;
nodes = (
(180,0,l),
(180,349,l),
(135,314,l),
(569,314,l),
(524,349,l),
(524,0,l),
(612,0,l),
(612,710,l),
(524,710,l),
(524,365,l),
(569,400,l),
(135,400,l),
(180,365,l),
(180,710,l),
(92,710,l),
(92,0,l)
);
}
);
width = 704;
},
{
anchors = (
{
name = top;
pos = (368,710);
}
);
background = {
shapes = (
{
ref = N;
}
);
};
layerId = "37DC72B3-BCF2-46ED-AAD5-F0285A86700E";
shapes = (
{
closed = 1;
nodes = (
(290,0,l),
(290,329,l),
(191,264,l),
(545,264,l),
(446,329,l),
(446,0,l),
(686,0,l),
(686,710,l),
(446,710,l),
(446,385,l),
(545,450,l),
(191,450,l),
(290,385,l),
(290,710,l),
(50,710,l),
(50,0,l)
);
}
);
width = 736;
},
{
anchors = (
{
name = top;
pos = (338,710);
}
);
background = {
shapes = (
{
pos = (-30,0);
ref = N;
}
);
};
layerId = "EE2FFE84-06F1-4AFB-BBEC-60D09A436D14";
shapes = (
{
closed = 1;
nodes = (
(128,0,l),
(128,359,l),
(119,349,l),
(556,349,l),
(548,359,l),
(548,0,l),
(580,0,l),
(580,710,l),
(548,710,l),
(548,370,l),
(556,379,l),
(119,379,l),
(128,370,l),
(128,710,l),
(96,710,l),
(96,0,l)
);
}
);
width = 676;
}
);
unicode = 72;
},
{
glyphname = Hbar;
lastChange = "2023-07-05 17:52:13 +0000";
layers = (
{
guides = (
{
pos = (420,527);
},
{
pos = (450,319);
},
{
angle = -90;
pos = (727,565);
}
);
layerId = m01;
shapes = (
{
closed = 1;
nodes = (
(155,0,l),
(243,0,l),
(243,710,l),
(155,710,l)
);
},
{
closed = 1;
nodes = (
(625,0,l),
(713,0,l),
(713,710,l),
(625,710,l)
);
},
{
closed = 1;
nodes = (
(92,614,l),
(92,528,l),
(776,528,l),
(776,614,l)
);
},
{
closed = 1;
nodes = (
(176,405,l),
(176,319,l),
(692,319,l),
(692,405,l)
);
}
);
width = 868;
},
{
layerId = "EE2FFE84-06F1-4AFB-BBEC-60D09A436D14";
shapes = (
{
closed = 1;
nodes = (
(187,0,l),
(219,0,l),
(219,710,l),
(187,710,l)
);
},
{
closed = 1;
nodes = (
(657,0,l),
(689,0,l),
(689,710,l),
(657,710,l)
);
},
{
closed = 1;
nodes = (
(96,586,l),
(96,556,l),
(780,556,l),
(780,586,l)
);
},
{
closed = 1;
nodes = (
(202,377,l),
(202,347,l),
(674,347,l),
(674,377,l)
);
}
);
width = 876;
},
{
layerId = "37DC72B3-BCF2-46ED-AAD5-F0285A86700E";
shapes = (
{
closed = 1;
nodes = (
(109,0,l),
(349,0,l),
(349,710,l),
(109,710,l)
);
},
{
closed = 1;
nodes = (
(543,0,l),
(783,0,l),
(783,710,l),
(543,710,l)
);
},
{
closed = 1;
nodes = (
(50,614,l),
(50,428,l),
(842,428,l),
(842,614,l)
);
},
{
closed = 1;
nodes = (
(188,345,l),
(188,159,l),
(704,159,l),
(704,345,l)
);
}
);
width = 892;
}
);
metricLeft = H;
metricRight = H;
unicode = 294;
},
{
glyphname = I;
kernLeft = b;
kernRight = d;
lastChange = "2023-07-29 16:18:43 +0000";
layers = (
{
associatedMasterId = m01;
layerId = "EAAF52C2-9951-44DB-B54D-2DE77B830385";
name = "11 Jan 23 17:26";
shapes = (
{
closed = 1;
nodes = (
(80,0,l),
(168,0,l),
(168,710,l),
(80,710,l)
);
},
{
closed = 1;
nodes = (
(20,634,l),
(228,634,l),
(228,710,l),
(20,710,l)
);
},
{
closed = 1;
nodes = (
(14,0,l),
(234,0,l),
(234,76,l),
(14,76,l)
);
}
);
width = 248;
},
{
anchors = (
{
name = bottom;
pos = (136,0);
},
{
name = ogonek;
pos = (180,0);
},
{
name = top;
pos = (136,710);
}
);
layerId = m01;
name = Regular;
shapes = (
{
closed = 1;
nodes = (
(92,0,l),
(180,0,l),
(180,710,l),
(92,710,l)
);
}
);
width = 272;
},
{
anchors = (
{
name = bottom;
pos = (170,0);
},
{
name = ogonek;
pos = (290,0);
},
{
name = top;
pos = (170,710);
}
);
layerId = "37DC72B3-BCF2-46ED-AAD5-F0285A86700E";
shapes = (
{
closed = 1;
nodes = (
(50,0,l),
(290,0,l),
(290,710,l),
(50,710,l)
);
}
);
width = 340;
},
{
anchors = (
{
name = bottom;
pos = (112,0);
},
{
name = ogonek;
pos = (128,0);
},
{
name = top;
pos = (112,710);
}
);
layerId = "EE2FFE84-06F1-4AFB-BBEC-60D09A436D14";
shapes = (
{
closed = 1;
nodes = (
(96,0,l),
(128,0,l),
(128,710,l),
(96,710,l)
);
}
);
width = 224;
}
);
metricLeft = H;
metricRight = H;
unicode = 73;
},
{
glyphname = J;
kernLeft = J;
kernRight = U;
lastChange = "2023-07-29 15:57:04 +0000";
layers = (
{
anchors = (
{
name = top;
pos = (478,710);
}
);
layerId = m01;
shapes = (
{
closed = 1;
nodes = (
(67,230,l),
(68,86,o),
(161,-16,o),
(293,-16,cs),
(433,-16,o),
(521,86,o),
(521,248,cs),
(521,710,l),
(433,710,l),
(433,248,ls),
(433,134,o),
(383,70,o),
(293,70,cs),
(207,70,o),
(158,130,o),
(157,238,c)
);
}
);
width = 598;
},
{
anchors = (
{
name = top;
pos = (511,710);
}
);
background = {
shapes = (
{
closed = 1;
nodes = (
(83,230,l),
(84,86,o),
(177,-16,o),
(309,-16,cs),
(449,-16,o),
(537,86,o),
(537,248,cs),
(537,710,l),
(449,710,l),
(449,248,ls),
(449,134,o),
(399,70,o),
(309,70,cs),
(223,70,o),
(174,130,o),
(173,238,c)
);
}
);
};
layerId = "37DC72B3-BCF2-46ED-AAD5-F0285A86700E";
shapes = (
{
closed = 1;
nodes = (
(25,280,l),
(26,106,o),
(147,-16,o),
(319,-16,cs),
(502,-16,o),
(631,100,o),
(631,265,cs),
(631,710,l),
(391,710,l),
(391,265,ls),
(391,201,o),
(370,170,o),
(328,170,cs),
(285,170,o),
(264,209,o),
(264,289,c)
);
}
);
width = 666;
},
{
anchors = (
{
name = top;
pos = (473,710);
}
);
background = {
shapes = (
{
closed = 1;
nodes = (
(27,230,l),
(28,86,o),
(121,-16,o),
(253,-16,cs),
(393,-16,o),
(481,86,o),
(481,248,cs),
(481,710,l),
(393,710,l),
(393,248,ls),
(393,134,o),
(343,70,o),
(253,70,cs),
(167,70,o),
(118,130,o),
(117,238,c)
);
}
);
};
layerId = "EE2FFE84-06F1-4AFB-BBEC-60D09A436D14";
shapes = (
{
closed = 1;
nodes = (
(71,232,l),
(72,86,o),
(158,-16,o),
(279,-16,cs),
(408,-16,o),
(489,86,o),
(489,248,cs),
(489,710,l),
(457,710,l),
(457,248,ls),
(457,101,o),
(388,16,o),
(279,16,cs),
(175,16,o),
(106,101,o),
(105,236,c)
);
}
);
width = 570;
}
);
metricLeft = "=U-10";
metricRight = U;
unicode = 74;
},
{
glyphname = K;
kernLeft = H;
kernRight = X;
lastChange = "2023-08-30 19:11:38 +0000";
layers = (
{
anchors = (
{
name = bottom;
pos = (348,0);
},
{
name = top;
pos = (348,710);
}
);
layerId = m01;
shapes = (
{
closed = 1;
nodes = (
(92,0,l),
(180,0,l),
(180,237,l),
(270,337,l),
(519,0,l),
(626,0,l),
(329,402,l),
(607,710,l),
(496,710,l),
(180,360,l),
(180,710,l),
(92,710,l)
);
}
);
width = 653;
},
{
anchors = (
{
name = bottom;
pos = (322,0);
}
);
associatedMasterId = m01;
layerId = "20FD7DF4-88A7-413E-BE4F-14D350ACFE7D";
name = "7 Feb 23 18:24";
shapes = (
{
closed = 1;
nodes = (
(70,0,l),
(158,0,l),
(158,710,l),
(70,710,l)
);
},
{
closed = 1;
nodes = (
(72,262,l),
(157,236,l),
(585,710,l),
(477,710,l)
);
},
{
closed = 1;
nodes = (
(206,399,l),
(500,0,l),
(602,0,l),
(303,405,l)
);
}
);
width = 632;
},
{
anchors = (
{
name = bottom;
pos = (370,0);
},
{
name = top;
pos = (370,710);
}
);
background = {
shapes = (
{
closed = 1;
nodes = (
(134,0,l),
(222,0,l),
(222,282,l),
(192,204,l),
(344,372,l),
(284,375,l),
(561,0,l),
(668,0,l),
(345,437,l),
(340,368,l),
(649,710,l),
(538,710,l),
(189,324,l),
(222,312,l),
(222,710,l),
(134,710,l)
);
}
);
};
layerId = "37DC72B3-BCF2-46ED-AAD5-F0285A86700E";
shapes = (
{
closed = 1;
nodes = (
(50,0,l),
(290,0,l),
(290,172,l),
(339,238,l),
(484,0,l),
(730,0,l),
(480,390,l),
(717,710,l),
(466,710,l),
(290,457,l),
(290,710,l),
(50,710,l)
);
}
);
width = 760;
},
{
associatedMasterId = "37DC72B3-BCF2-46ED-AAD5-F0285A86700E";
background = {
shapes = (
{
closed = 1;
nodes = (
(124,0,l),
(212,0,l),
(212,282,l),
(182,204,l),
(334,372,l),
(274,375,l),
(551,0,l),
(658,0,l),
(335,437,l),
(330,368,l),
(639,710,l),
(528,710,l),
(179,324,l),
(212,312,l),
(212,710,l),
(124,710,l)
);
}
);
};
layerId = "87829439-4FF0-4611-A1A3-506244D5C279";
name = "10 de feb. de 23 15:38";
shapes = (
{
closed = 1;
nodes = (
(30,0,l),
(270,0,l),
(270,133,l),
(697,710,l),
(440,710,l),
(270,454,l),
(270,710,l),
(30,710,l)
);
},
{
closed = 1;
nodes = (
(188,445,l),
(473,0,l),
(710,0,l),
(425,445,l)
);
}
);
width = 746;
},
{
anchors = (
{
name = bottom;
pos = (327,0);
},
{
name = top;
pos = (327,710);
}
);
background = {
shapes = (
{
closed = 1;
nodes = (
(42,0,l),
(130,0,l),
(130,710,l),
(42,710,l)
);
},
{
closed = 1;
nodes = (
(44,262,l),
(129,236,l),
(557,710,l),
(449,710,l)
);
},
{
closed = 1;
nodes = (
(178,399,l),
(472,0,l),
(574,0,l),
(275,405,l)
);
}
);
};
layerId = "EE2FFE84-06F1-4AFB-BBEC-60D09A436D14";
shapes = (
{
closed = 1;
nodes = (
(96,0,l),
(128,0,l),
(128,233,l),
(265,380,l),
(558,0,l),
(595,0,l),
(284,401,l),
(573,710,l),
(534,710,l),
(128,275,l),
(128,710,l),
(96,710,l)
);
}
);
width = 625;
},
{
anchors = (
{
name = bottom;
pos = (329,0);
},
{
name = top;
pos = (329,710);
}
);
associatedMasterId = "EE2FFE84-06F1-4AFB-BBEC-60D09A436D14";
background = {
shapes = (
{
closed = 1;
nodes = (
(70,0,l),
(158,0,l),
(158,710,l),
(70,710,l)
);
},
{
closed = 1;
nodes = (
(72,262,l),
(157,236,l),
(585,710,l),
(477,710,l)
);
},
{
closed = 1;
nodes = (
(206,399,l),
(500,0,l),
(602,0,l),
(303,405,l)
);
}
);
};
layerId = "3A429947-F838-409F-94EB-A9A7478FB0A7";
name = "24 de feb. de 23 09:14";
shapes = (
{
closed = 1;
nodes = (
(98,0,l),
(130,0,l),
(130,710,l),
(98,710,l)
);
},
{
closed = 1;
nodes = (
(100,243,l),
(126,229,l),
(575,710,l),
(536,710,l)
);
},
{
closed = 1;
nodes = (
(258,392,l),
(560,0,l),
(597,0,l),
(283,405,l)
);
}
);
width = 600;
},
{
anchors = (
{
name = bottom;
pos = (322,0);
}
);
associatedMasterId = m01;
layerId = "EBB799BB-8337-4F99-91F4-DF4C6C7CC3CA";
name = "24 de feb. de 23 09:14";
shapes = (
{
closed = 1;
nodes = (
(70,0,l),
(158,0,l),
(158,282,l),
(128,204,l),
(280,372,l),
(220,375,l),
(497,0,l),
(604,0,l),
(281,437,l),
(276,368,l),
(585,710,l),
(474,710,l),
(125,324,l),
(158,312,l),
(158,710,l),
(70,710,l)
);
}
);
width = 634;
}
);
metricLeft = H;
metricRight = X;
unicode = 75;
},
{
glyphname = L;
kernLeft = H;
kernRight = L;
lastChange = "2023-07-05 17:52:13 +0000";
layers = (
{
anchors = (
{
name = bottom;
pos = (313,0);
},
{
name = top;
pos = (136,710);
}
);
background = {
shapes = (
{
pos = (22,0);
ref = E;
}
);
};
layerId = m01;
shapes = (
{
closed = 1;
nodes = (
(534,0,l),
(534,86,l),
(135,86,l),
(180,41,l),
(180,710,l),
(92,710,l),
(92,0,l)
);
}
);
width = 581;
},
{
anchors = (
{
name = bottom;
pos = (314,0);
},
{
name = top;
pos = (170,710);
}
);
background = {
shapes = (
{
pos = (20,0);
ref = E;
}
);
};
layerId = "37DC72B3-BCF2-46ED-AAD5-F0285A86700E";
shapes = (
{
closed = 1;
nodes = (
(580,0,l),
(580,186,l),
(151,186,l),
(290,41,l),
(290,710,l),
(50,710,l),
(50,0,l)
);
}
);
width = 600;
},
{
anchors = (
{
name = bottom;
pos = (303,0);
},
{
name = top;
pos = (112,710);
}
);
background = {
shapes = (
{
ref = E;
}
);
};
layerId = "EE2FFE84-06F1-4AFB-BBEC-60D09A436D14";
shapes = (
{
closed = 1;
nodes = (
(510,0,l),
(510,30,l),
(121,30,l),
(128,21,l),
(128,710,l),
(96,710,l),
(96,0,l)
);
}
);
width = 550;
}
);
metricLeft = H;
metricRight = "=E-10";
unicode = 76;
},
{
glyphname = Lslash;
lastChange = "2023-07-05 17:52:13 +0000";
layers = (
{
guides = (
{
angle = 25;
pos = (123,333);
},
{
angle = -90;
pos = (398,488);
}
);
layerId = m01;
shapes = (
{
closed = 1;
nodes = (
(59,294,l),
(370,439,l),
(333,517,l),
(22,372,l)
);
},
{
pos = (35,0);
ref = L;
}
);
width = 616;
},
{
layerId = "EE2FFE84-06F1-4AFB-BBEC-60D09A436D14";
shapes = (
{
closed = 1;
nodes = (
(39,323,l),
(265,427,l),
(252,454,l),
(26,350,l)
);
},
{
pos = (20,0);
ref = L;
}
);
width = 570;
},
{
layerId = "37DC72B3-BCF2-46ED-AAD5-F0285A86700E";
shapes = (
{
closed = 1;
nodes = (
(30,242,l),
(453,438,l),
(403,547,l),
(-20,351,l)
);
},
{
pos = (51,0);
ref = L;
}
);
width = 651;
}
);
metricLeft = "=L-70";
metricRight = L;
unicode = 321;
},
{
glyphname = M;
kernLeft = H;
kernRight = H;
lastChange = "2023-07-05 17:52:13 +0000";
layers = (
{
background = {
shapes = (
{
pos = (-19,0);
ref = W;
}
);
};
layerId = m01;
shapes = (
{
closed = 1;
nodes = (
(92,0,l),
(180,0,l),
(180,533,l),
(380,0,l),
(498,0,l),
(698,533,l),
(698,0,l),
(786,0,l),
(786,710,l),
(664,710,l),
(439,96,l),
(214,710,l),
(92,710,l)
);
}
);
width = 878;
},
{
background = {
shapes = (
{
closed = 1;
nodes = (
(135,0,l),
(223,0,l),
(223,710,l),
(135,710,l)
);
},
{
closed = 1;
nodes = (
(428,0,l),
(536,0,l),
(802,710,l),
(707,710,l),
(469,62,l),
(494,62,l),
(257,710,l),
(162,710,l)
);
},
{
closed = 1;
nodes = (
(741,0,l),
(829,0,l),
(829,710,l),
(741,710,l)
);
}
);
};
layerId = "37DC72B3-BCF2-46ED-AAD5-F0285A86700E";
shapes = (
{
closed = 1;
nodes = (
(50,0,l),
(290,0,l),
(290,365,l),
(407,4,l),
(556,4,l),
(674,365,l),
(674,0,l),
(914,0,l),
(914,710,l),
(600,710,l),
(482,324,l),
(363,710,l),
(50,710,l)
);
}
);
width = 964;
},
{
background = {
shapes = (
{
closed = 1;
nodes = (
(52,0,l),
(140,0,l),
(140,710,l),
(52,710,l)
);
},
{
closed = 1;
nodes = (
(345,0,l),
(453,0,l),
(719,710,l),
(624,710,l),
(386,62,l),
(411,62,l),
(174,710,l),
(79,710,l)
);
},
{
closed = 1;
nodes = (
(658,0,l),
(746,0,l),
(746,710,l),
(658,710,l)
);
}
);
};
layerId = "EE2FFE84-06F1-4AFB-BBEC-60D09A436D14";
shapes = (
{
closed = 1;
nodes = (
(96,0,l),
(128,0,l),
(128,678,l),
(407,0,l),
(443,0,l),
(722,678,l),
(722,0,l),
(754,0,l),
(754,710,l),
(700,710,l),
(425,34,l),
(150,710,l),
(96,710,l)
);
}
);
width = 850;
},
{
associatedMasterId = "EE2FFE84-06F1-4AFB-BBEC-60D09A436D14";
background = {
shapes = (
{
closed = 1;
nodes = (
(70,0,l),
(158,0,l),
(158,710,l),
(70,710,l)
);
},
{
closed = 1;
nodes = (
(363,0,l),
(471,0,l),
(737,710,l),
(642,710,l),
(404,62,l),
(429,62,l),
(192,710,l),
(97,710,l)
);
},
{
closed = 1;
nodes = (
(676,0,l),
(764,0,l),
(764,710,l),
(676,710,l)
);
}
);
};
layerId = "1FB2E68D-DD9B-4BCB-982F-D48DBDE51AF6";
name = "5 de feb. de 23 02:23";
shapes = (
{
closed = 1;
nodes = (
(88,0,l),
(120,0,l),
(120,656,l),
(401,0,l),
(435,0,l),
(714,678,l),
(714,0,l),
(746,0,l),
(746,710,l),
(692,710,l),
(417,34,l),
(192,710,l),
(88,710,l)
);
}
);
width = 600;
},
{
associatedMasterId = m01;
layerId = "A78328DB-8F8F-44D4-BD5D-A6EBB052617C";
name = "24 de feb. de 23 09:21";
shapes = (
{
closed = 1;
nodes = (
(70,0,l),
(158,0,l),
(158,710,l),
(70,710,l)
);
},
{
closed = 1;
nodes = (
(363,0,l),
(471,0,l),
(737,710,l),
(642,710,l),
(404,62,l),
(429,62,l),
(192,710,l),
(97,710,l)
);
},
{
closed = 1;
nodes = (
(676,0,l),
(764,0,l),
(764,710,l),
(676,710,l)
);
}
);
width = 834;
}
);
metricLeft = H;
metricRight = H;
unicode = 77;
},
{
glyphname = N;
kernLeft = H;
kernRight = H;
lastChange = "2023-07-12 19:52:40 +0000";
layers = (
{
anchors = (
{
name = bottom;
pos = (369,0);
},
{
name = top;
pos = (370,710);
}
);
layerId = m01;
shapes = (
{
closed = 1;
nodes = (
(92,0,l),
(180,0,l),
(180,595,l),
(519,0,l),
(647,0,l),
(647,710,l),
(559,710,l),
(559,104,l),
(214,710,l),
(92,710,l)
);
}
);
width = 739;
},
{
anchors = (
{
name = bottom;
pos = (375,0);
},
{
name = top;
pos = (381,710);
}
);
background = {
anchors = (
{
name = bottom;
pos = (375,0);
},
{
name = top;
pos = (376,710);
}
);
shapes = (
{
closed = 1;
nodes = (
(98,0,l),
(186,0,l),
(186,603,l),
(530,0,l),
(653,0,l),
(653,710,l),
(565,710,l),
(565,104,l),
(220,710,l),
(98,710,l)
);
}
);
};
layerId = "37DC72B3-BCF2-46ED-AAD5-F0285A86700E";
shapes = (
{
closed = 1;
nodes = (
(50,0,l),
(290,0,l),
(290,301,l),
(475,0,l),
(711,0,l),
(711,710,l),
(471,710,l),
(471,384,l),
(280,710,l),
(50,710,l)
);
}
);
width = 761;
},
{
anchors = (
{
name = bottom;
pos = (356,0);
},
{
name = top;
pos = (356,710);
}
);
background = {
shapes = (
{
closed = 1;
nodes = (
(52,0,l),
(140,0,l),
(140,603,l),
(484,0,l),
(607,0,l),
(607,710,l),
(519,710,l),
(519,104,l),
(174,710,l),
(52,710,l)
);
}
);
};
layerId = "EE2FFE84-06F1-4AFB-BBEC-60D09A436D14";
shapes = (
{
closed = 1;
nodes = (
(96,0,l),
(128,0,l),
(128,678,l),
(568,0,l),
(615,0,l),
(615,710,l),
(583,710,l),
(583,32,l),
(143,710,l),
(96,710,l)
);
}
);
width = 711;
}
);
metricLeft = H;
metricRight = H;
unicode = 78;
},
{
color = 8;
glyphname = O;
kernLeft = O;
kernRight = O;
lastChange = "2023-07-07 14:18:04 +0000";
layers = (
{
anchors = (
{
name = bottom;
pos = (371,0);
},
{
name = top;
pos = (371,710);
}
);
layerId = m01;
shapes = (
{
closed = 1;
nodes = (
(569,-16,o),
(693,127,o),
(693,354,cs),
(693,583,o),
(569,726,o),
(371,726,cs),
(173,726,o),
(49,583,o),
(49,354,cs),
(49,127,o),
(173,-16,o),
(371,-16,cs)
);
},
{
closed = 1;
nodes = (
(223,70,o),
(141,172,o),
(141,354,cs),
(141,537,o),
(223,640,o),
(371,640,cs),
(519,640,o),
(601,537,o),
(601,354,cs),
(601,172,o),
(519,70,o),
(371,70,cs)
);
}
);
width = 742;
},
{
anchors = (
{
name = bottom;
pos = (400,0);
},
{
name = top;
pos = (400,710);
}
);
background = {
shapes = (
{
closed = 1;
nodes = (
(605,-16,o),
(722,149,o),
(722,354,cs),
(722,560,o),
(606,726,o),
(400,726,cs),
(194,726,o),
(78,560,o),
(78,354,cs),
(78,149,o),
(195,-16,o),
(400,-16,cs)
);
},
{
closed = 1;
nodes = (
(246,70,o),
(170,200,o),
(170,354,cs),
(170,509,o),
(245,640,o),
(400,640,cs),
(555,640,o),
(630,509,o),
(630,354,cs),
(630,200,o),
(554,70,o),
(400,70,cs)
);
}
);
};
layerId = "37DC72B3-BCF2-46ED-AAD5-F0285A86700E";
shapes = (
{
closed = 1;
nodes = (
(627,-16,o),
(770,127,o),
(770,354,cs),
(770,583,o),
(627,726,o),
(400,726,cs),
(173,726,o),
(30,583,o),
(30,354,cs),
(30,127,o),
(173,-16,o),
(400,-16,cs)
);
},
{
closed = 1;
nodes = (
(319,170,o),
(274,236,o),
(274,354,cs),
(274,473,o),
(319,540,o),
(400,540,cs),
(481,540,o),
(526,473,o),
(526,354,cs),
(526,236,o),
(481,170,o),
(400,170,cs)
);
}
);
width = 800;
},
{
anchors = (
{
name = bottom;
pos = (356,0);
},
{
name = top;
pos = (356,710);
}
);
background = {
shapes = (
{
closed = 1;
nodes = (
(569,-16,o),
(686,149,o),
(686,354,cs),
(686,560,o),
(570,726,o),
(364,726,cs),
(158,726,o),
(42,560,o),
(42,354,cs),
(42,149,o),
(159,-16,o),
(364,-16,cs)
);
},
{
closed = 1;
nodes = (
(210,70,o),
(134,200,o),
(134,354,cs),
(134,509,o),
(209,640,o),
(364,640,cs),
(519,640,o),
(594,509,o),
(594,354,cs),
(594,200,o),
(518,70,o),
(364,70,cs)
);
}
);
};
layerId = "EE2FFE84-06F1-4AFB-BBEC-60D09A436D14";
shapes = (
{
closed = 1;
nodes = (
(543,-16,o),
(660,127,o),
(660,354,cs),
(660,583,o),
(543,726,o),
(356,726,cs),
(169,726,o),
(52,583,o),
(52,354,cs),
(52,127,o),
(169,-16,o),
(356,-16,cs)
);
},
{
closed = 1;
nodes = (
(190,16,o),
(86,146,o),
(86,354,cs),
(86,563,o),
(190,694,o),
(356,694,cs),
(522,694,o),
(626,563,o),
(626,354,cs),
(626,146,o),
(522,16,o),
(356,16,cs)
);
}
);
width = 712;
}
);
unicode = 79;
},
{
glyphname = Oslash;
lastChange = "2023-07-05 17:52:13 +0000";
layers = (
{
layerId = m01;
shapes = (
{
pos = (5,0);
ref = O;
},
{
closed = 1;
nodes = (
(49,-16,l),
(134,-16,l),
(683,726,l),
(599,726,l)
);
}
);
width = 747;
},
{
layerId = "EE2FFE84-06F1-4AFB-BBEC-60D09A436D14";
shapes = (
{
ref = O;
},
{
closed = 1;
nodes = (
(69,-16,l),
(107,-16,l),
(656,726,l),
(619,726,l)
);
}
);
width = 712;
},
{
layerId = "37DC72B3-BCF2-46ED-AAD5-F0285A86700E";
shapes = (
{
ref = O;
},
{
closed = 1;
nodes = (
(48,-16,l),
(199,-16,l),
(758,726,l),
(608,726,l)
);
}
);
width = 800;
}
);
metricLeft = O;
metricRight = O;
unicode = 216;
},
{
glyphname = OE;
lastChange = "2023-07-05 17:52:13 +0000";
layers = (
{
layerId = m01;
shapes = (
{
closed = 1;
nodes = (
(474,-16,o),
(552,25,o),
(604,92,c),
(604,0,l),
(1029,0,l),
(1029,86,l),
(692,86,l),
(692,314,l),
(1009,314,l),
(1009,398,l),
(692,398,l),
(692,624,l),
(1021,624,l),
(1021,710,l),
(604,710,l),
(604,618,l),
(552,685,o),
(474,726,o),
(371,726,cs),
(165,726,o),
(49,560,o),
(49,354,cs),
(49,149,o),
(166,-16,o),
(371,-16,cs)
);
},
{
closed = 1;
nodes = (
(141,509,o),
(216,640,o),
(371,640,cs),
(526,640,o),
(601,509,o),
(601,354,cs),
(601,200,o),
(525,70,o),
(371,70,cs),
(217,70,o),
(141,200,o),
(141,354,cs)
);
}
);
width = 1086;
},
{
layerId = "EE2FFE84-06F1-4AFB-BBEC-60D09A436D14";
shapes = (
{
closed = 1;
nodes = (
(481,-16,o),
(578,53,o),
(626,169,c),
(626,0,l),
(1023,0,l),
(1023,30,l),
(658,30,l),
(658,339,l),
(1003,339,l),
(1003,369,l),
(658,369,l),
(658,680,l),
(1015,680,l),
(1015,710,l),
(626,710,l),
(626,541,l),
(578,657,o),
(482,726,o),
(356,726,cs),
(172,726,o),
(52,579,o),
(52,354,cs),
(52,131,o),
(173,-16,o),
(356,-16,cs)
);
},
{
closed = 1;
nodes = (
(86,563,o),
(190,694,o),
(356,694,cs),
(522,694,o),
(626,563,o),
(626,354,cs),
(626,146,o),
(522,16,o),
(356,16,cs),
(190,16,o),
(86,146,o),
(86,354,cs)
);
}
);
width = 1073;
},
{
layerId = "37DC72B3-BCF2-46ED-AAD5-F0285A86700E";
shapes = (
{
closed = 1;
nodes = (
(466,-16,o),
(526,-2,o),
(577,24,c),
(577,0,l),
(1118,0,l),
(1118,186,l),
(817,186,l),
(817,264,l),
(1098,264,l),
(1098,448,l),
(817,448,l),
(817,524,l),
(1110,524,l),
(1110,710,l),
(577,710,l),
(577,686,l),
(526,712,o),
(466,726,o),
(400,726,cs),
(183,726,o),
(30,571,o),
(30,354,cs),
(30,137,o),
(183,-16,o),
(400,-16,cs)
);
},
{
closed = 1;
nodes = (
(274,448,o),
(306,540,o),
(400,540,cs),
(494,540,o),
(526,448,o),
(526,354,cs),
(526,260,o),
(494,170,o),
(400,170,cs),
(306,170,o),
(274,260,o),
(274,354,cs)
);
}
);
width = 1148;
},
{
associatedMasterId = m01;
layerId = "19CA261B-AD5B-486D-9463-A251BC0352B3";
name = "29 de mar. de 23 18:08";
shapes = (
{
closed = 1;
nodes = (
(567,-16,o),
(674,149,o),
(674,354,cs),
(674,560,o),
(568,726,o),
(362,726,cs),
(156,726,o),
(40,560,o),
(40,354,cs),
(40,149,o),
(157,-16,o),
(362,-16,cs)
);
},
{
closed = 1;
nodes = (
(208,70,o),
(132,200,o),
(132,354,cs),
(132,509,o),
(207,640,o),
(362,640,cs),
(517,640,o),
(592,509,o),
(592,354,cs),
(592,200,o),
(516,70,o),
(362,70,cs)
);
},
{
closed = 1;
nodes = (
(595,0,l),
(1010,0,l),
(1010,86,l),
(683,86,l),
(683,314,l),
(990,314,l),
(990,398,l),
(683,398,l),
(683,624,l),
(1002,624,l),
(1002,710,l),
(595,710,l)
);
}
);
width = 1045;
},
{
associatedMasterId = "EE2FFE84-06F1-4AFB-BBEC-60D09A436D14";
layerId = "137246E1-289B-43AA-A482-8A8175EABD44";
name = "29 de mar. de 23 18:08";
shapes = (
{
closed = 1;
nodes = (
(519,-16,o),
(630,90,o),
(660,259,c),
(660,450,l),
(630,620,o),
(520,726,o),
(364,726,cs),
(180,726,o),
(60,579,o),
(60,354,cs),
(60,131,o),
(181,-16,o),
(364,-16,cs)
);
},
{
closed = 1;
nodes = (
(198,16,o),
(94,146,o),
(94,354,cs),
(94,563,o),
(198,694,o),
(364,694,cs),
(530,694,o),
(634,563,o),
(634,354,cs),
(634,146,o),
(530,16,o),
(364,16,cs)
);
},
{
closed = 1;
nodes = (
(634,0,l),
(1021,0,l),
(1021,30,l),
(666,30,l),
(666,339,l),
(1001,339,l),
(1001,369,l),
(666,369,l),
(666,680,l),
(1013,680,l),
(1013,710,l),
(634,710,l)
);
}
);
width = 1081;
},
{
associatedMasterId = "37DC72B3-BCF2-46ED-AAD5-F0285A86700E";
layerId = "2B316B35-5660-45E7-BB31-FED048511657";
name = "29 de mar. de 23 18:10";
shapes = (
{
closed = 1;
nodes = (
(476,0,l),
(1007,0,l),
(1007,186,l),
(716,186,l),
(716,264,l),
(987,264,l),
(987,448,l),
(716,448,l),
(716,524,l),
(999,524,l),
(999,710,l),
(476,710,l)
);
},
{
closed = 1;
nodes = (
(546,-16,o),
(699,137,o),
(699,354,cs),
(699,571,o),
(546,726,o),
(329,726,cs),
(112,726,o),
(-41,571,o),
(-41,354,cs),
(-41,137,o),
(112,-16,o),
(329,-16,cs)
);
},
{
closed = 1;
nodes = (
(235,170,o),
(203,260,o),
(203,354,cs),
(203,448,o),
(235,540,o),
(329,540,cs),
(423,540,o),
(455,448,o),
(455,354,cs),
(455,260,o),
(423,170,o),
(329,170,cs)
);
}
);
width = 591;
}
);
metricLeft = O;
metricRight = E;
unicode = 338;
},
{
glyphname = P;
kernLeft = H;
kernRight = P;
lastChange = "2023-07-05 17:52:13 +0000";
layers = (
{
background = {
shapes = (
{
pos = (22,0);
ref = R.ss04;
}
);
};
layerId = m01;
shapes = (
{
closed = 1;
nodes = (
(92,0,l),
(180,0,l),
(180,275,l),
(347,275,l),
(506,275,o),
(599,357,o),
(599,495,cs),
(599,630,o),
(506,710,o),
(347,710,c),
(92,710,l)
);
},
{
closed = 1;
nodes = (
(180,624,l),
(347,624,l),
(454,624,o),
(507,581,o),
(507,495,cs),
(507,406,o),
(454,361,o),
(347,361,cs),
(180,361,l)
);
}
);
width = 651;
},
{
background = {
shapes = (
{
pos = (20,0);
ref = R.ss04;
}
);
};
layerId = "37DC72B3-BCF2-46ED-AAD5-F0285A86700E";
shapes = (
{
closed = 1;
nodes = (
(50,0,l),
(290,0,l),
(290,205,l),
(373,205,l),
(555,205,o),
(675,305,o),
(675,456,cs),
(675,609,o),
(555,710,o),
(373,710,c),
(50,710,l)
);
},
{
closed = 1;
nodes = (
(290,524,l),
(353,524,ls),
(397,524,o),
(431,500,o),
(431,456,cs),
(431,413,o),
(396,391,o),
(353,391,cs),
(290,391,l)
);
}
);
width = 700;
},
{
associatedMasterId = "37DC72B3-BCF2-46ED-AAD5-F0285A86700E";
background = {
shapes = (
{
closed = 1;
nodes = (
(98,0,l),
(186,0,l),
(186,275,l),
(323,275,l),
(482,275,o),
(575,357,o),
(575,495,cs),
(575,630,o),
(482,710,o),
(323,710,c),
(98,710,l)
);
},
{
closed = 1;
nodes = (
(186,624,l),
(323,624,l),
(430,624,o),
(483,581,o),
(483,495,cs),
(483,406,o),
(430,361,o),
(323,361,cs),
(186,361,l)
);
}
);
};
layerId = "5D42A27F-5E7E-42EB-A828-24E59CEEE45E";
name = "15 Feb 23 15:54";
shapes = (
{
closed = 1;
nodes = (
(30,0,l),
(270,0,l),
(270,205,l),
(323,205,l),
(502,205,o),
(615,302,o),
(615,456,cs),
(615,612,o),
(502,710,o),
(323,710,c),
(30,710,l)
);
},
{
closed = 1;
nodes = (
(270,524,l),
(303,524,ls),
(347,524,o),
(381,500,o),
(381,456,cs),
(381,413,o),
(346,391,o),
(303,391,cs),
(270,391,l)
);
}
);
width = 645;
},
{
background = {
shapes = (
{
closed = 1;
nodes = (
(96,0,l),
(184,0,l),
(184,275,l),
(351,275,l),
(510,275,o),
(603,357,o),
(603,495,cs),
(603,630,o),
(510,710,o),
(351,710,c),
(96,710,l)
);
},
{
closed = 1;
nodes = (
(184,624,l),
(351,624,l),
(458,624,o),
(511,581,o),
(511,495,cs),
(511,406,o),
(458,361,o),
(351,361,cs),
(184,361,l)
);
}
);
};
layerId = "EE2FFE84-06F1-4AFB-BBEC-60D09A436D14";
shapes = (
{
closed = 1;
nodes = (
(96,0,l),
(128,0,l),
(128,305,l),
(333,305,l),
(480,305,o),
(573,382,o),
(573,505,cs),
(573,631,o),
(480,710,o),
(333,710,c),
(96,710,l)
);
},
{
closed = 1;
nodes = (
(128,680,l),
(333,680,l),
(465,680,o),
(539,617,o),
(539,505,cs),
(539,396,o),
(465,335,o),
(333,335,cs),
(128,335,l)
);
}
);
width = 618;
}
);
metricLeft = H;
metricRight = F;
unicode = 80;
},
{
glyphname = Thorn;
lastChange = "2023-07-05 17:52:13 +0000";
layers = (
{
layerId = m01;
shapes = (
{
closed = 1;
nodes = (
(180,710,l),
(92,710,l),
(92,0,l),
(180,0,l)
);
},
{
closed = 1;
nodes = (
(117,497,l),
(317,497,l),
(424,497,o),
(477,454,o),
(477,368,cs),
(477,279,o),
(424,234,o),
(317,234,cs),
(117,234,l),
(117,148,l),
(317,148,l),
(476,148,o),
(569,230,o),
(569,368,cs),
(569,503,o),
(476,583,o),
(317,583,c),
(117,583,l)
);
}
);
width = 621;
},
{
background = {
shapes = (
{
closed = 1;
nodes = (
(102,710,l),
(70,710,l),
(70,0,l),
(102,0,l)
);
},
{
closed = 1;
nodes = (
(67,497,l),
(267,497,ls),
(374,497,o),
(427,454,o),
(427,368,cs),
(427,279,o),
(374,234,o),
(267,234,cs),
(67,234,l),
(67,148,l),
(267,148,ls),
(426,148,o),
(519,230,o),
(519,368,cs),
(519,503,o),
(426,583,o),
(267,583,cs),
(67,583,l)
);
}
);
};
layerId = "EE2FFE84-06F1-4AFB-BBEC-60D09A436D14";
shapes = (
{
closed = 1;
nodes = (
(128,710,l),
(96,710,l),
(96,0,l),
(128,0,l)
);
},
{
closed = 1;
nodes = (
(112,533,l),
(293,533,ls),
(427,533,o),
(511,469,o),
(511,368,cs),
(511,264,o),
(427,198,o),
(293,198,cs),
(112,198,l),
(112,168,l),
(293,168,ls),
(448,168,o),
(545,245,o),
(545,368,cs),
(545,488,o),
(448,563,o),
(293,563,cs),
(112,563,l)
);
}
);
width = 590;
},
{
layerId = "37DC72B3-BCF2-46ED-AAD5-F0285A86700E";
shapes = (
{
closed = 1;
nodes = (
(290,710,l),
(50,710,l),
(50,0,l),
(290,0,l)
);
},
{
closed = 1;
nodes = (
(133,397,l),
(353,397,l),
(383,397,o),
(399,386,o),
(399,365,cs),
(399,345,o),
(383,334,o),
(353,334,cs),
(133,334,l),
(133,148,l),
(363,148,l),
(543,148,o),
(643,226,o),
(643,366,cs),
(643,505,o),
(543,583,o),
(363,583,c),
(133,583,l)
);
}
);
width = 668;
}
);
metricLeft = H;
metricRight = P;
unicode = 222;
},
{
glyphname = Q;
kernLeft = O;
kernRight = O;
lastChange = "2023-07-05 17:52:13 +0000";
layers = (
{
anchors = (
{
name = bottom;
pos = (371,0);
},
{
name = top;
pos = (371,710);
}
);
layerId = m01;
shapes = (
{
closed = 1;
nodes = (
(416,-16,o),
(457,-8,o),
(493,6,c),
(551,-69,l),
(643,-69,l),
(557,42,l),
(645,108,o),
(693,223,o),
(693,354,cs),
(693,560,o),
(577,726,o),
(371,726,cs),
(165,726,o),
(49,560,o),
(49,354,cs),
(49,149,o),
(166,-16,o),
(371,-16,cs)
);
},
{
closed = 1;
nodes = (
(141,509,o),
(216,640,o),
(371,640,cs),
(526,640,o),
(601,509,o),
(601,354,cs),
(601,253,o),
(568,163,o),
(503,112,c),
(429,208,l),
(337,208,l),
(437,79,l),
(417,73,o),
(395,70,o),
(371,70,cs),
(217,70,o),
(141,200,o),
(141,354,cs)
);
}
);
width = 742;
},
{
anchors = (
{
name = bottom;
pos = (400,0);
},
{
name = top;
pos = (400,710);
}
);
background = {
shapes = (
{
closed = 1;
nodes = (
(607,-16,o),
(724,149,o),
(724,354,cs),
(724,560,o),
(608,726,o),
(402,726,cs),
(196,726,o),
(80,560,o),
(80,354,cs),
(80,149,o),
(197,-16,o),
(402,-16,cs)
);
},
{
closed = 1;
nodes = (
(248,70,o),
(172,200,o),
(172,354,cs),
(172,509,o),
(247,640,o),
(402,640,cs),
(557,640,o),
(632,509,o),
(632,354,cs),
(632,200,o),
(556,70,o),
(402,70,cs)
);
},
{
closed = 1;
nodes = (
(460,208,l),
(368,208,l),
(582,-69,l),
(674,-69,l)
);
}
);
};
layerId = "37DC72B3-BCF2-46ED-AAD5-F0285A86700E";
shapes = (
{
closed = 1;
nodes = (
(453,-16,o),
(503,-7,o),
(547,10,c),
(599,-52,l),
(753,-52,l),
(650,72,l),
(725,138,o),
(770,237,o),
(770,354,cs),
(770,571,o),
(617,726,o),
(400,726,cs),
(183,726,o),
(30,571,o),
(30,354,cs),
(30,137,o),
(183,-16,o),
(400,-16,cs)
);
},
{
closed = 1;
nodes = (
(274,448,o),
(306,540,o),
(400,540,cs),
(494,540,o),
(526,448,o),
(526,354,cs),
(526,315,o),
(520,276,o),
(507,245,c),
(476,282,l),
(322,282,l),
(414,171,l),
(410,170,o),
(405,170,o),
(400,170,cs),
(306,170,o),
(274,260,o),
(274,354,cs)
);
}
);
width = 800;
},
{
anchors = (
{
name = bottom;
pos = (356,0);
},
{
name = top;
pos = (356,710);
}
);
background = {
shapes = (
{
closed = 1;
nodes = (
(567,-16,o),
(684,149,o),
(684,354,cs),
(684,560,o),
(568,726,o),
(362,726,cs),
(156,726,o),
(40,560,o),
(40,354,cs),
(40,149,o),
(157,-16,o),
(362,-16,cs)
);
},
{
closed = 1;
nodes = (
(208,70,o),
(132,200,o),
(132,354,cs),
(132,509,o),
(207,640,o),
(362,640,cs),
(517,640,o),
(592,509,o),
(592,354,cs),
(592,200,o),
(516,70,o),
(362,70,cs)
);
},
{
closed = 1;
nodes = (
(420,208,l),
(328,208,l),
(542,-69,l),
(634,-69,l)
);
}
);
};
layerId = "EE2FFE84-06F1-4AFB-BBEC-60D09A436D14";
shapes = (
{
closed = 1;
nodes = (
(411,-16,o),
(460,-3,o),
(502,22,c),
(572,-69,l),
(608,-69,l),
(526,37,l),
(610,99,o),
(660,211,o),
(660,354,cs),
(660,579,o),
(540,726,o),
(356,726,cs),
(172,726,o),
(52,579,o),
(52,354,cs),
(52,131,o),
(173,-16,o),
(356,-16,cs)
);
},
{
closed = 1;
nodes = (
(86,563,o),
(190,694,o),
(356,694,cs),
(522,694,o),
(626,563,o),
(626,354,cs),
(626,219,o),
(582,117,o),
(507,62,c),
(394,208,l),
(358,208,l),
(483,47,l),
(446,27,o),
(404,16,o),
(356,16,cs),
(190,16,o),
(86,146,o),
(86,354,cs)
);
}
);
width = 712;
},
{
associatedMasterId = "EE2FFE84-06F1-4AFB-BBEC-60D09A436D14";
background = {
shapes = (
{
closed = 1;
nodes = (
(567,-16,o),
(684,149,o),
(684,354,cs),
(684,560,o),
(568,726,o),
(362,726,cs),
(156,726,o),
(40,560,o),
(40,354,cs),
(40,149,o),
(157,-16,o),
(362,-16,cs)
);
},
{
closed = 1;
nodes = (
(208,70,o),
(132,200,o),
(132,354,cs),
(132,509,o),
(207,640,o),
(362,640,cs),
(517,640,o),
(592,509,o),
(592,354,cs),
(592,200,o),
(516,70,o),
(362,70,cs)
);
},
{
closed = 1;
nodes = (
(420,208,l),
(328,208,l),
(542,-69,l),
(634,-69,l)
);
}
);
};
layerId = "57B8AADA-883A-4D88-865F-303C17FF5ECC";
name = "24 de feb. de 23 09:24";
shapes = (
{
ref = O;
},
{
closed = 1;
nodes = (
(402,208,l),
(366,208,l),
(580,-69,l),
(616,-69,l)
);
}
);
width = 728;
},
{
associatedMasterId = "EE2FFE84-06F1-4AFB-BBEC-60D09A436D14";
background = {
shapes = (
{
closed = 1;
nodes = (
(567,-16,o),
(684,149,o),
(684,354,cs),
(684,560,o),
(568,726,o),
(362,726,cs),
(156,726,o),
(40,560,o),
(40,354,cs),
(40,149,o),
(157,-16,o),
(362,-16,cs)
);
},
{
closed = 1;
nodes = (
(208,70,o),
(132,200,o),
(132,354,cs),
(132,509,o),
(207,640,o),
(362,640,cs),
(517,640,o),
(592,509,o),
(592,354,cs),
(592,200,o),
(516,70,o),
(362,70,cs)
);
},
{
closed = 1;
nodes = (
(420,208,l),
(328,208,l),
(542,-69,l),
(634,-69,l)
);
}
);
};
layerId = "64775533-39F8-426A-91C6-DD7A69A21DE2";
name = "24 de feb. de 23 09:25";
shapes = (
{
ref = O;
},
{
closed = 1;
nodes = (
(402,208,l),
(366,208,l),
(580,-69,l),
(616,-69,l)
);
}
);
width = 728;
}
);
metricLeft = O;
metricRight = O;
unicode = 81;
},
{
glyphname = R;
kernLeft = H;
kernRight = R;
lastChange = "2023-08-30 19:09:29 +0000";
layers = (
{
anchors = (
{
name = bottom;
pos = (314,0);
},
{
name = top;
pos = (276,710);
}
);
associatedMasterId = m01;
background = {
anchors = (
{
name = bottom;
pos = (314,0);
},
{
name = top;
pos = (276,710);
}
);
shapes = (
{
closed = 1;
nodes = (
(70,0,l),
(158,0,l),
(158,285,l),
(295,285,l),
(450,285,o),
(547,366,o),
(547,495,cs),
(547,630,o),
(454,710,o),
(295,710,c),
(70,710,l)
);
},
{
closed = 1;
nodes = (
(158,624,l),
(295,624,l),
(398,624,o),
(455,578,o),
(455,497,cs),
(455,416,o),
(398,371,o),
(295,371,cs),
(158,371,l)
);
},
{
closed = 1;
nodes = (
(469,0,l),
(562,0,l),
(385,312,l),
(292,312,l)
);
}
);
};
layerId = "952A5B8B-8D28-4915-B95B-C6E8309AF372";
name = "26 de feb. de 23 23:27";
shapes = (
{
closed = 1;
nodes = (
(70,0,l),
(158,0,l),
(158,285,l),
(295,285,ls),
(490,285,o),
(414,146,o),
(470,0,c),
(563,0,l),
(508,155,o),
(575,309,o),
(387,338,c),
(387,316,l),
(491,348,o),
(547,412,o),
(547,495,cs),
(547,629,o),
(451,710,o),
(295,710,cs),
(70,710,l)
);
},
{
closed = 1;
nodes = (
(158,624,l),
(295,624,ls),
(398,624,o),
(455,578,o),
(455,497,cs),
(455,416,o),
(398,371,o),
(295,371,cs),
(158,371,l)
);
}
);
width = 608;
},
{
associatedMasterId = "EE2FFE84-06F1-4AFB-BBEC-60D09A436D14";
layerId = "9EE13298-BF92-4B00-8E5D-8782EE099A36";
name = "26 de feb. de 23 23:27";
shapes = (
{
closed = 1;
nodes = (
(517,631,o),
(424,710,o),
(277,710,cs),
(70,710,l),
(70,0,l),
(102,0,l),
(102,311,l),
(277,311,ls),
(518,311,o),
(442,146,o),
(503,0,c),
(536,0,l),
(484,144,o),
(525,285,o),
(379,327,c),
(463,350,o),
(517,415,o),
(517,505,cs)
);
},
{
closed = 1;
nodes = (
(102,680,l),
(277,680,ls),
(409,680,o),
(483,617,o),
(483,505,cs),
(483,400,o),
(409,341,o),
(277,341,cs),
(102,341,l)
);
}
);
width = 606;
},
{
associatedMasterId = "37DC72B3-BCF2-46ED-AAD5-F0285A86700E";
layerId = "1BE73E85-D1D4-4F6C-8B8A-2F282CB85070";
name = "26 de feb. de 23 23:27";
shapes = (
{
closed = 1;
nodes = (
(30,0,l),
(270,0,l),
(270,225,l),
(295,225,l),
(398,225,o),
(352,119,o),
(410,0,c),
(645,0,l),
(587,119,o),
(635,320,o),
(398,320,c),
(398,299,l),
(527,299,o),
(627,370,o),
(627,499,cs),
(627,643,o),
(497,710,o),
(353,710,cs),
(30,710,l)
);
},
{
closed = 1;
nodes = (
(270,524,l),
(303,524,ls),
(344,524,o),
(383,508,o),
(383,467,cs),
(383,426,o),
(344,411,o),
(303,411,cs),
(270,411,l)
);
}
);
width = 685;
},
{
anchors = (
{
name = bottom;
pos = (340,0);
},
{
name = top;
pos = (326,710);
}
);
associatedMasterId = m01;
layerId = "4C27E9A6-623B-4586-9CCC-2629D00326E8";
name = "16 de may. de 23 13:25";
shapes = (
{
closed = 1;
nodes = (
(96,0,l),
(184,0,l),
(184,285,l),
(345,285,ls),
(552,285,o),
(465,152,o),
(525,0,c),
(614,0,l),
(567,147,o),
(629,276,o),
(481,327,c),
(544,344,o),
(603,410,o),
(603,495,cs),
(603,627,o),
(510,710,o),
(361,710,cs),
(96,710,l)
);
},
{
closed = 1;
nodes = (
(184,624,l),
(361,624,ls),
(457,624,o),
(511,578,o),
(511,497,cs),
(511,416,o),
(457,371,o),
(361,371,cs),
(184,371,l)
);
}
);
width = 679;
},
{
anchors = (
{
name = bottom;
pos = (351,0);
},
{
name = top;
pos = (337,710);
}
);
background = {
shapes = (
{
closed = 1;
nodes = (
(97,0,l),
(185,0,l),
(185,285,l),
(346,285,ls),
(553,285,o),
(466,152,o),
(526,0,c),
(615,0,l),
(568,147,o),
(630,276,o),
(482,327,c),
(545,344,o),
(604,410,o),
(604,495,cs),
(604,627,o),
(511,710,o),
(362,710,cs),
(97,710,l)
);
},
{
closed = 1;
nodes = (
(185,624,l),
(362,624,ls),
(458,624,o),
(512,578,o),
(512,497,cs),
(512,416,o),
(458,371,o),
(362,371,cs),
(185,371,l)
);
}
);
};
layerId = m01;
name = Regular;
shapes = (
{
closed = 1;
nodes = (
(92,0,l),
(180,0,l),
(180,285,l),
(353,285,ls),
(456,285,o),
(498,264,o),
(504,200,cs),
(522,0,l),
(611,0,l),
(591,209,ls),
(582,302,o),
(538,335,o),
(425,335,c),
(456,326,l),
(528,330,o),
(604,399,o),
(604,495,cs),
(604,627,o),
(511,710,o),
(362,710,cs),
(92,710,l)
);
},
{
closed = 1;
nodes = (
(180,624,l),
(362,624,ls),
(458,624,o),
(512,578,o),
(512,497,cs),
(512,416,o),
(458,371,o),
(362,371,cs),
(180,371,l)
);
}
);
width = 673;
},
{
anchors = (
{
name = bottom;
pos = (353,0);
},
{
name = top;
pos = (335,710);
}
);
associatedMasterId = "37DC72B3-BCF2-46ED-AAD5-F0285A86700E";
layerId = "C5B71B35-5C21-4509-91D6-4962B44442BC";
name = "16 de may. de 23 13:25";
shapes = (
{
closed = 1;
nodes = (
(50,0,l),
(290,0,l),
(290,225,l),
(358,225,ls),
(461,225,o),
(395,119,o),
(453,0,c),
(688,0,l),
(636,106,o),
(696,278,o),
(537,314,c),
(616,341,o),
(670,404,o),
(670,499,cs),
(670,643,o),
(540,710,o),
(396,710,cs),
(50,710,l)
);
},
{
closed = 1;
nodes = (
(290,524,l),
(346,524,ls),
(387,524,o),
(426,508,o),
(426,467,cs),
(426,426,o),
(387,411,o),
(346,411,cs),
(290,411,l)
);
}
);
width = 723;
},
{
anchors = (
{
name = bottom;
pos = (373,0);
},
{
name = top;
pos = (355,710);
}
);
background = {
shapes = (
{
pos = (10,0);
ref = P;
}
);
};
layerId = "37DC72B3-BCF2-46ED-AAD5-F0285A86700E";
name = "Ultra Black";
shapes = (
{
closed = 1;
nodes = (
(50,0,l),
(290,0,l),
(290,225,l),
(368,225,ls),
(423,225,o),
(444,206,o),
(447,150,cs),
(455,0,l),
(695,0,l),
(681,196,ls),
(675,282,o),
(627,320,o),
(530,320,c),
(527,313,l),
(640,337,o),
(690,393,o),
(690,499,cs),
(690,643,o),
(560,710,o),
(416,710,cs),
(50,710,l)
);
},
{
closed = 1;
nodes = (
(290,524,l),
(366,524,ls),
(419,524,o),
(446,505,o),
(446,467,cs),
(446,430,o),
(419,411,o),
(366,411,cs),
(290,411,l)
);
}
);
width = 730;
},
{
anchors = (
{
name = bottom;
pos = (306,0);
},
{
name = top;
pos = (312,710);
}
);
associatedMasterId = "EE2FFE84-06F1-4AFB-BBEC-60D09A436D14";
background = {
shapes = (
{
closed = 1;
nodes = (
(96,0,l),
(128,0,l),
(128,305,l),
(333,305,l),
(480,305,o),
(573,382,o),
(573,505,cs),
(573,631,o),
(480,710,o),
(333,710,c),
(96,710,l)
);
},
{
closed = 1;
nodes = (
(128,680,l),
(333,680,l),
(465,680,o),
(539,617,o),
(539,505,cs),
(539,396,o),
(465,335,o),
(333,335,cs),
(128,335,l)
);
}
);
};
layerId = "A962C063-6C0C-461E-9F2C-0D2D3C0B8A7D";
name = "16 de may. de 23 13:25";
shapes = (
{
closed = 1;
nodes = (
(96,0,l),
(128,0,l),
(128,311,l),
(333,311,ls),
(594,311,o),
(494,146,o),
(555,0,c),
(588,0,l),
(536,144,o),
(601,285,o),
(435,327,c),
(519,350,o),
(573,415,o),
(573,505,cs),
(573,636,o),
(487,710,o),
(333,710,cs),
(96,710,l)
);
},
{
closed = 1;
nodes = (
(128,680,l),
(333,680,ls),
(471,680,o),
(539,622,o),
(539,505,cs),
(539,400,o),
(465,341,o),
(333,341,cs),
(128,341,l)
);
}
);
width = 643;
},
{
anchors = (
{
name = bottom;
pos = (318,0);
},
{
name = top;
pos = (324,710);
}
);
background = {
anchors = (
{
name = bottom;
pos = (308,0);
},
{
name = top;
pos = (314,710);
}
);
shapes = (
{
closed = 1;
nodes = (
(98,0,l),
(130,0,l),
(130,311,l),
(335,311,ls),
(596,311,o),
(496,146,o),
(557,0,c),
(590,0,l),
(538,144,o),
(603,285,o),
(437,327,c),
(521,350,o),
(575,415,o),
(575,505,cs),
(575,636,o),
(489,710,o),
(335,710,cs),
(98,710,l)
);
},
{
closed = 1;
nodes = (
(130,680,l),
(335,680,ls),
(473,680,o),
(541,622,o),
(541,505,cs),
(541,400,o),
(467,341,o),
(335,341,cs),
(130,341,l)
);
}
);
};
layerId = "EE2FFE84-06F1-4AFB-BBEC-60D09A436D14";
name = Thin;
shapes = (
{
closed = 1;
nodes = (
(96,0,l),
(128,0,l),
(128,311,l),
(335,311,ls),
(462,311,o),
(520,280,o),
(526,208,cs),
(542,0,l),
(575,0,l),
(558,209,ls),
(551,289,o),
(487,334,o),
(380,333,c),
(405,323,l),
(507,337,o),
(575,404,o),
(575,505,cs),
(575,636,o),
(489,710,o),
(335,710,cs),
(96,710,l)
);
},
{
closed = 1;
nodes = (
(128,680,l),
(335,680,ls),
(473,680,o),
(541,622,o),
(541,505,cs),
(541,400,o),
(467,341,o),
(335,341,cs),
(128,341,l)
);
}
);
width = 630;
},
{
anchors = (
{
name = bottom;
pos = (363,0);
},
{
name = top;
pos = (345,710);
}
);
associatedMasterId = "37DC72B3-BCF2-46ED-AAD5-F0285A86700E";
background = {
shapes = (
{
ref = P;
}
);
};
layerId = "4F87A53F-1FF8-47BB-8D41-3C7720E2EFA0";
name = "29 de jul. de 23 12:57";
shapes = (
{
closed = 1;
nodes = (
(50,0,l),
(290,0,l),
(290,225,l),
(358,225,ls),
(413,225,o),
(432,206,o),
(435,150,cs),
(443,0,l),
(685,0,l),
(666,196,ls),
(658,282,o),
(607,320,o),
(510,320,c),
(507,312,l),
(620,336,o),
(670,393,o),
(670,499,cs),
(670,643,o),
(540,710,o),
(396,710,cs),
(50,710,l)
);
},
{
closed = 1;
nodes = (
(290,524,l),
(346,524,ls),
(387,524,o),
(426,508,o),
(426,467,cs),
(426,426,o),
(387,411,o),
(346,411,cs),
(290,411,l)
);
}
);
width = 720;
}
);
metricLeft = H;
metricRight = "=P+10";
unicode = 82;
},
{
glyphname = S;
kernLeft = O;
kernRight = O;
lastChange = "2023-07-12 19:58:48 +0000";
layers = (
{
anchors = (
{
name = bottom;
pos = (332,0);
},
{
name = top;
pos = (331,710);
}
);
background = {
shapes = (
{
closed = 1;
nodes = (
(71,83,o),
(185,-12,o),
(341,-12,cs),
(469,-12,o),
(590,56,o),
(590,188,cs),
(590,297,o),
(486,361,o),
(358,397,cs),
(271,421,o),
(166,444,o),
(166,531,cs),
(166,598,o),
(225,640,o),
(305,640,cs),
(402,640,o),
(470,582,o),
(483,494,c),
(575,500,l),
(560,631,o),
(459,726,o),
(306,726,cs),
(170,726,o),
(74,651,o),
(74,531,cs),
(74,416,o),
(180,359,o),
(295,330,cs),
(436,294,o),
(498,251,o),
(498,179,cs),
(498,109,o),
(438,74,o),
(348,74,cs),
(236,74,o),
(170,138,o),
(151,233,c),
(59,227,l)
);
},
{
pos = (-31,0);
ref = H;
}
);
};
layerId = m01;
shapes = (
{
closed = 1;
nodes = (
(71,83,o),
(185,-12,o),
(341,-12,cs),
(469,-12,o),
(590,56,o),
(590,188,cs),
(590,297,o),
(486,361,o),
(358,397,cs),
(271,421,o),
(166,444,o),
(166,531,cs),
(166,598,o),
(225,640,o),
(305,640,cs),
(402,640,o),
(470,582,o),
(483,494,c),
(575,500,l),
(560,631,o),
(459,726,o),
(306,726,cs),
(170,726,o),
(74,651,o),
(74,531,cs),
(74,416,o),
(180,359,o),
(295,330,cs),
(436,294,o),
(498,251,o),
(498,179,cs),
(498,109,o),
(438,74,o),
(348,74,cs),
(236,74,o),
(170,138,o),
(151,233,c),
(59,227,l)
);
}
);
width = 649;
},
{
anchors = (
{
name = bottom;
pos = (307,0);
},
{
name = top;
pos = (290,710);
}
);
associatedMasterId = m01;
layerId = "1D40FF85-0D3C-4C5D-B9C6-9BA8AC1A652B";
name = "22 Feb 23 11:45";
shapes = (
{
closed = 1;
nodes = (
(27,109,o),
(139,-12,o),
(308,-12,cs),
(442,-12,o),
(563,52,o),
(563,184,cs),
(563,311,o),
(459,357,o),
(316,398,cs),
(182,436,o),
(145,466,o),
(145,527,cs),
(145,593,o),
(204,640,o),
(290,640,cs),
(382,640,o),
(462,562,o),
(467,458,c),
(417,491,l),
(600,503,l),
(557,469,l),
(554,611,o),
(439,726,o),
(302,726,cs),
(149,726,o),
(53,649,o),
(53,527,cs),
(53,419,o),
(122,364,o),
(288,321,cs),
(409,290,o),
(471,240,o),
(471,184,cs),
(471,116,o),
(411,74,o),
(313,74,cs),
(176,74,o),
(129,144,o),
(119,269,c),
(168,236,l),
(-15,224,l),
(29,256,l)
);
}
);
width = 593;
},
{
anchors = (
{
name = bottom;
pos = (370,0);
},
{
name = top;
pos = (370,710);
}
);
background = {
shapes = (
{
closed = 1;
nodes = (
(95,109,o),
(207,-12,o),
(376,-12,cs),
(510,-12,o),
(631,52,o),
(631,184,cs),
(631,311,o),
(527,357,o),
(384,398,cs),
(250,436,o),
(213,466,o),
(213,527,cs),
(213,593,o),
(272,640,o),
(358,640,cs),
(450,640,o),
(530,562,o),
(535,458,c),
(485,491,l),
(668,503,l),
(625,469,l),
(622,611,o),
(507,726,o),
(370,726,cs),
(217,726,o),
(121,649,o),
(121,527,cs),
(121,419,o),
(190,364,o),
(356,321,cs),
(477,290,o),
(539,240,o),
(539,184,cs),
(539,116,o),
(479,74,o),
(381,74,cs),
(244,74,o),
(197,144,o),
(187,269,c),
(236,236,l),
(53,224,l),
(97,256,l)
);
}
);
};
layerId = "37DC72B3-BCF2-46ED-AAD5-F0285A86700E";
shapes = (
{
closed = 1;
nodes = (
(49,84,o),
(179,-12,o),
(376,-12,cs),
(562,-12,o),
(679,75,o),
(679,214,cs),
(679,333,o),
(581,408,o),
(384,441,cs),
(326,451,o),
(298,466,o),
(293,491,cs),
(287,522,o),
(316,544,o),
(363,544,cs),
(409,544,o),
(437,513,o),
(440,458,c),
(673,466,l),
(655,626,o),
(538,726,o),
(370,726,cs),
(175,726,o),
(52,637,o),
(52,496,cs),
(52,382,o),
(141,312,o),
(346,266,cs),
(416,250,o),
(437,240,o),
(439,214,cs),
(441,188,o),
(415,172,o),
(377,172,cs),
(318,172,o),
(283,202,o),
(275,253,c),
(40,242,l)
);
}
);
width = 719;
},
{
anchors = (
{
name = bottom;
pos = (312,0);
},
{
name = top;
pos = (312,710);
}
);
background = {
shapes = (
{
closed = 1;
nodes = (
(47,109,o),
(159,-12,o),
(328,-12,cs),
(462,-12,o),
(583,52,o),
(583,184,cs),
(583,311,o),
(479,357,o),
(336,398,cs),
(202,436,o),
(165,466,o),
(165,527,cs),
(165,593,o),
(224,640,o),
(310,640,cs),
(402,640,o),
(482,562,o),
(487,458,c),
(437,491,l),
(620,503,l),
(577,469,l),
(573,632,o),
(428,726,o),
(322,726,cs),
(169,726,o),
(73,649,o),
(73,527,cs),
(73,419,o),
(142,364,o),
(308,321,cs),
(429,290,o),
(491,240,o),
(491,184,cs),
(491,116,o),
(431,74,o),
(333,74,cs),
(196,74,o),
(149,144,o),
(139,269,c),
(188,236,l),
(5,224,l),
(49,256,l)
);
}
);
};
layerId = "EE2FFE84-06F1-4AFB-BBEC-60D09A436D14";
shapes = (
{
closed = 1;
nodes = (
(62,90,o),
(176,-12,o),
(320,-12,cs),
(461,-12,o),
(565,70,o),
(565,174,cs),
(565,267,o),
(493,328,o),
(328,375,cs),
(164,423,o),
(109,464,o),
(109,540,cs),
(109,635,o),
(183,694,o),
(302,694,cs),
(425,694,o),
(512,616,o),
(512,505,c),
(546,508,l),
(546,630,o),
(441,726,o),
(312,726,cs),
(166,726,o),
(75,654,o),
(75,540,cs),
(75,450,o),
(143,394,o),
(300,352,cs),
(461,309,o),
(531,255,o),
(531,174,cs),
(531,88,o),
(440,20,o),
(325,20,cs),
(196,20,o),
(95,109,o),
(95,222,c),
(62,219,l)
);
}
);
width = 627;
},
{
anchors = (
{
name = bottom;
pos = (303,0);
},
{
name = top;
pos = (302,710);
}
);
associatedMasterId = m01;
layerId = "F492C915-A2E0-44DC-A354-4A0275F8B523";
name = "24 de feb. de 23 09:50";
shapes = (
{
closed = 1;
nodes = (
(27,96,o),
(148,-12,o),
(308,-12,cs),
(442,-12,o),
(563,52,o),
(563,184,cs),
(563,311,o),
(459,357,o),
(316,398,cs),
(182,436,o),
(145,466,o),
(145,527,cs),
(145,593,o),
(204,640,o),
(295,640,cs),
(393,640,o),
(462,560,o),
(467,458,c),
(417,491,l),
(600,503,l),
(557,469,l),
(554,616,o),
(449,726,o),
(302,726,cs),
(149,726,o),
(53,649,o),
(53,527,cs),
(53,419,o),
(122,364,o),
(288,321,cs),
(409,290,o),
(471,240,o),
(471,184,cs),
(471,116,o),
(411,74,o),
(313,74,cs),
(197,74,o),
(128,154,o),
(119,269,c),
(168,236,l),
(-15,224,l),
(29,256,l)
);
}
);
width = 593;
}
);
metricLeft = "=O+10";
metricRight = "=O+10";
unicode = 83;
},
{
glyphname = Saltillo;
lastChange = "2023-07-05 17:52:13 +0000";
layers = (
{
layerId = m01;
shapes = (
{
closed = 1;
nodes = (
(49,574,l),
(63,377,l),
(125,377,l),
(139,574,l),
(139,710,l),
(49,710,l)
);
}
);
width = 188;
},
{
layerId = "EE2FFE84-06F1-4AFB-BBEC-60D09A436D14";
shapes = (
{
closed = 1;
nodes = (
(52,580,l),
(58,397,l),
(86,397,l),
(92,580,l),
(92,710,l),
(52,710,l)
);
}
);
width = 144;
},
{
layerId = "37DC72B3-BCF2-46ED-AAD5-F0285A86700E";
shapes = (
{
closed = 1;
nodes = (
(30,556,l),
(45,347,l),
(164,347,l),
(178,556,l),
(178,710,l),
(30,710,l)
);
}
);
width = 208;
}
);
metricLeft = O;
metricRight = O;
unicode = 42891;
},
{
glyphname = Germandbls;
lastChange = "2023-07-05 17:52:18 +0000";
layers = (
{
background = {
shapes = (
{
closed = 1;
nodes = (
(219,30,l),
(219,0,l),
(323,0,ls),
(465,0,o),
(565,85,o),
(565,206,cs),
(565,338,o),
(435,421,o),
(250,408,c),
(263,404,l),
(562,694,l),
(527,583,l),
(527,710,l),
(92,710,l),
(92,0,l),
(124,0,l),
(124,680,l),
(525,680,l),
(525,699,l),
(182,367,l),
(229,461,l),
(229,378,l),
(277,379,ls),
(426,382,o),
(531,311,o),
(531,206,cs),
(531,103,o),
(445,30,o),
(323,30,cs)
);
}
);
};
guides = (
{
angle = -90;
pos = (90,426);
}
);
layerId = m01;
shapes = (
{
closed = 1;
nodes = (
(246,86,l),
(246,0,l),
(350,0,ls),
(505,0,o),
(602,90,o),
(602,221,cs),
(602,352,o),
(482,437,o),
(311,424,c),
(311,377,l),
(589,647,l),
(554,583,l),
(554,710,l),
(92,710,l),
(92,0,l),
(180,0,l),
(180,622,l),
(499,622,l),
(487,667,l),
(209,397,l),
(256,461,l),
(256,351,l),
(330,352,ls),
(442,354,o),
(512,302,o),
(512,217,cs),
(512,137,o),
(450,86,o),
(350,86,cs)
);
}
);
width = 664;
},
{
associatedMasterId = m01;
guides = (
{
angle = -90;
pos = (29,426);
}
);
layerId = "00EDF810-00C9-49CE-8E36-9A8771E57C39";
name = "2 de feb. de 23 13:18";
shapes = (
{
closed = 1;
nodes = (
(322,82,o),
(411,127,o),
(411,206,cs),
(411,301,o),
(322,337,o),
(239,337,c),
(185,336,l),
(185,396,l),
(285,396,l),
(418,396,o),
(501,320,o),
(501,199,cs),
(501,85,o),
(392,0,o),
(239,0,c),
(185,0,l),
(185,82,l),
(239,82,l)
);
},
{
closed = 1;
nodes = (
(31,0,l),
(118,0,l),
(118,710,l),
(31,710,l)
);
},
{
closed = 1;
nodes = (
(33,710,l),
(33,628,l),
(493,628,l),
(493,710,l)
);
},
{
closed = 1;
nodes = (
(185,396,l),
(285,396,l),
(493,628,l),
(393,628,l)
);
}
);
width = 566;
},
{
associatedMasterId = m01;
guides = (
{
angle = -90;
pos = (68,426);
}
);
layerId = "8F270C98-3484-43E7-9A58-CF8C3B07169D";
name = "7 Feb 23 15:16";
shapes = (
{
closed = 1;
nodes = (
(361,82,o),
(450,127,o),
(450,233,cs),
(450,361,o),
(361,397,o),
(278,397,c),
(224,396,l),
(224,456,l),
(324,456,l),
(457,456,o),
(540,380,o),
(540,233,cs),
(540,85,o),
(431,0,o),
(278,0,c),
(224,0,l),
(224,82,l),
(278,82,l)
);
},
{
closed = 1;
nodes = (
(70,0,l),
(157,0,l),
(157,710,l),
(70,710,l)
);
},
{
closed = 1;
nodes = (
(72,710,l),
(72,628,l),
(532,628,l),
(532,710,l)
);
},
{
closed = 1;
nodes = (
(224,456,l),
(324,456,l),
(532,628,l),
(432,628,l)
);
}
);
width = 585;
},
{
background = {
shapes = (
{
closed = 1;
nodes = (
(197,82,l),
(197,0,l),
(301,0,ls),
(456,0,o),
(553,82,o),
(553,213,cs),
(553,351,o),
(441,428,o),
(262,414,c),
(262,387,l),
(540,657,l),
(505,583,l),
(505,710,l),
(43,710,l),
(43,0,l),
(130,0,l),
(130,628,l),
(450,628,l),
(438,667,l),
(160,397,l),
(207,461,l),
(207,356,l),
(281,357,ls),
(391,359,o),
(463,303,o),
(463,213,cs),
(463,127,o),
(387,82,o),
(301,82,cs)
);
}
);
};
layerId = "EE2FFE84-06F1-4AFB-BBEC-60D09A436D14";
shapes = (
{
closed = 1;
nodes = (
(223,30,l),
(223,0,l),
(327,0,ls),
(469,0,o),
(569,85,o),
(569,206,cs),
(569,338,o),
(439,421,o),
(254,408,c),
(267,404,l),
(566,694,l),
(531,583,l),
(531,710,l),
(96,710,l),
(96,0,l),
(128,0,l),
(128,680,l),
(529,680,l),
(529,699,l),
(186,367,l),
(233,461,l),
(233,378,l),
(281,379,ls),
(430,382,o),
(535,311,o),
(535,206,cs),
(535,103,o),
(449,30,o),
(327,30,cs)
);
}
);
width = 624;
},
{
layerId = "37DC72B3-BCF2-46ED-AAD5-F0285A86700E";
shapes = (
{
closed = 1;
nodes = (
(346,186,l),
(346,0,l),
(430,0,ls),
(637,0,o),
(740,73,o),
(740,221,cs),
(740,355,o),
(596,438,o),
(391,424,c),
(481,296,l),
(759,566,l),
(723,481,l),
(723,710,l),
(50,710,l),
(50,0,l),
(290,0,l),
(290,524,l),
(579,524,l),
(567,647,l),
(289,377,l),
(356,471,l),
(356,271,l),
(430,272,ls),
(475,273,o),
(498,258,o),
(498,230,cs),
(498,201,o),
(475,186,o),
(430,186,cs)
);
}
);
width = 775;
}
);
metricLeft = H;
metricRight = B;
unicode = 7838;
},
{
color = 8;
glyphname = T;
kernLeft = T;
kernRight = T;
lastChange = "2023-09-08 14:35:58 +0000";
layers = (
{
anchors = (
{
name = bottom;
pos = (289,0);
},
{
name = top;
pos = (289,710);
}
);
layerId = m01;
shapes = (
{
closed = 1;
nodes = (
(25,710,l),
(25,624,l),
(245,624,l),
(245,0,l),
(333,0,l),
(333,624,l),
(553,624,l),
(553,710,l)
);
}
);
width = 578;
},
{
anchors = (
{
name = bottom;
pos = (352,0);
},
{
name = top;
pos = (352,710);
}
);
layerId = "37DC72B3-BCF2-46ED-AAD5-F0285A86700E";
shapes = (
{
closed = 1;
nodes = (
(30,710,l),
(30,524,l),
(232,524,l),
(232,0,l),
(472,0,l),
(472,524,l),
(674,524,l),
(674,710,l)
);
}
);
width = 704;
},
{
anchors = (
{
name = bottom;
pos = (286,0);
},
{
name = top;
pos = (286,710);
}
);
background = {
shapes = (
{
closed = 1;
nodes = (
(274,0,l),
(362,0,l),
(362,710,l),
(274,710,l)
);
},
{
closed = 1;
nodes = (
(74,624,l),
(562,624,l),
(562,710,l),
(74,710,l)
);
}
);
};
layerId = "EE2FFE84-06F1-4AFB-BBEC-60D09A436D14";
shapes = (
{
closed = 1;
nodes = (
(28,710,l),
(28,680,l),
(270,680,l),
(270,0,l),
(302,0,l),
(302,680,l),
(544,680,l),
(544,710,l)
);
}
);
width = 572;
}
);
unicode = 84;
},
{
glyphname = U;
kernLeft = U;
kernRight = U;
lastChange = "2023-07-05 17:52:13 +0000";
layers = (
{
anchors = (
{
name = bottom;
pos = (345,0);
},
{
name = ogonek;
pos = (445,0);
},
{
name = top;
pos = (345,710);
}
);
layerId = m01;
shapes = (
{
closed = 1;
nodes = (
(613,711,l),
(525,711,l),
(525,248,ls),
(525,134,o),
(460,70,o),
(345,70,cs),
(230,70,o),
(165,134,o),
(165,248,cs),
(165,711,l),
(77,711,l),
(77,248,ls),
(77,86,o),
(180,-16,o),
(345,-16,cs),
(510,-16,o),
(613,86,o),
(613,248,cs)
);
}
);
width = 690;
},
{
anchors = (
{
name = bottom;
pos = (361,0);
},
{
name = ogonek;
pos = (470,0);
},
{
name = top;
pos = (361,710);
}
);
background = {
shapes = (
{
closed = 1;
nodes = (
(619,711,l),
(531,711,l),
(531,248,ls),
(531,134,o),
(470,70,o),
(361,70,cs),
(252,70,o),
(191,134,o),
(191,248,cs),
(191,711,l),
(103,711,l),
(103,248,ls),
(103,86,o),
(203,-16,o),
(361,-16,cs),
(519,-16,o),
(619,86,o),
(619,248,cs)
);
}
);
};
layerId = "37DC72B3-BCF2-46ED-AAD5-F0285A86700E";
shapes = (
{
closed = 1;
nodes = (
(687,711,l),
(447,711,l),
(447,268,ls),
(447,200,o),
(414,170,o),
(361,170,cs),
(308,170,o),
(275,200,o),
(275,268,cs),
(275,711,l),
(35,711,l),
(35,268,ls),
(35,94,o),
(161,-16,o),
(361,-16,cs),
(561,-16,o),
(687,94,o),
(687,268,cs)
);
}
);
width = 722;
},
{
anchors = (
{
name = bottom;
pos = (331,0);
},
{
name = ogonek;
pos = (428,0);
},
{
name = top;
pos = (331,710);
}
);
background = {
shapes = (
{
closed = 1;
nodes = (
(563,711,l),
(475,711,l),
(475,248,ls),
(475,134,o),
(414,70,o),
(305,70,cs),
(196,70,o),
(135,134,o),
(135,248,cs),
(135,711,l),
(47,711,l),
(47,248,ls),
(47,86,o),
(147,-16,o),
(305,-16,cs),
(463,-16,o),
(563,86,o),
(563,248,cs)
);
}
);
};
layerId = "EE2FFE84-06F1-4AFB-BBEC-60D09A436D14";
shapes = (
{
closed = 1;
nodes = (
(581,711,l),
(549,711,l),
(549,248,ls),
(549,99,o),
(471,16,o),
(331,16,cs),
(191,16,o),
(113,99,o),
(113,248,cs),
(113,711,l),
(81,711,l),
(81,248,ls),
(81,79,o),
(171,-16,o),
(331,-16,cs),
(491,-16,o),
(581,79,o),
(581,248,cs)
);
}
);
width = 662;
}
);
metricLeft = "=H-15";
metricRight = "=H-15";
unicode = 85;
},
{
color = 8;
glyphname = V;
kernLeft = V;
kernRight = V;
lastChange = "2023-08-27 23:27:29 +0000";
layers = (
{
layerId = m01;
shapes = (
{
closed = 1;
nodes = (
(277,0,l),
(393,0,l),
(649,710,l),
(550,710,l),
(335,98,l),
(119,710,l),
(21,710,l)
);
}
);
width = 670;
},
{
background = {
shapes = (
{
closed = 1;
nodes = (
(354,0,l),
(462,0,l),
(718,710,l),
(623,710,l),
(395,62,l),
(420,62,l),
(192,710,l),
(98,710,l)
);
}
);
};
layerId = "37DC72B3-BCF2-46ED-AAD5-F0285A86700E";
shapes = (
{
closed = 1;
nodes = (
(286,0,l),
(530,0,l),
(786,710,l),
(555,710,l),
(408,271,l),
(260,710,l),
(30,710,l)
);
}
);
width = 816;
},
{
background = {
shapes = (
{
closed = 1;
nodes = (
(303,0,l),
(411,0,l),
(667,710,l),
(572,710,l),
(344,62,l),
(369,62,l),
(141,710,l),
(47,710,l)
);
}
);
};
layerId = "EE2FFE84-06F1-4AFB-BBEC-60D09A436D14";
shapes = (
{
closed = 1;
nodes = (
(303,0,l),
(339,0,l),
(618,710,l),
(583,710,l),
(321,34,l),
(59,710,l),
(24,710,l)
);
}
);
width = 642;
},
{
associatedMasterId = m01;
layerId = "50D927A0-CD3D-49EA-A8F2-3753421C80D0";
name = "24 de feb. de 23 10:12";
shapes = (
{
closed = 1;
nodes = (
(276,0,l),
(384,0,l),
(640,710,l),
(545,710,l),
(317,62,l),
(342,62,l),
(114,710,l),
(20,710,l)
);
}
);
width = 660;
},
{
associatedMasterId = "37DC72B3-BCF2-46ED-AAD5-F0285A86700E";
background = {
shapes = (
{
closed = 1;
nodes = (
(354,0,l),
(462,0,l),
(718,710,l),
(623,710,l),
(395,62,l),
(420,62,l),
(192,710,l),
(98,710,l)
);
}
);
};
layerId = "A380CCBF-FB1A-4DD2-9AD2-BC1BAB1785BE";
name = "24 de feb. de 23 10:12";
shapes = (
{
closed = 1;
nodes = (
(286,0,l),
(530,0,l),
(786,710,l),
(555,710,l),
(327,32,l),
(488,32,l),
(260,710,l),
(30,710,l)
);
}
);
width = 816;
}
);
unicode = 86;
},
{
glyphname = W;
kernLeft = V;
kernRight = V;
lastChange = "2023-07-05 17:52:13 +0000";
layers = (
{
anchors = (
{
name = bottom;
pos = (456,0);
},
{
name = top;
pos = (456,710);
}
);
layerId = m01;
shapes = (
{
closed = 1;
nodes = (
(207,0,l),
(317,0,l),
(456,531,l),
(595,0,l),
(705,0,l),
(891,710,l),
(794,710,l),
(651,121,l),
(505,710,l),
(406,710,l),
(261,121,l),
(117,710,l),
(21,710,l)
);
}
);
width = 912;
},
{
anchors = (
{
name = bottom;
pos = (548,0);
},
{
name = top;
pos = (548,710);
}
);
background = {
anchors = (
{
name = top;
pos = (548,710);
}
);
shapes = (
{
closed = 1;
nodes = (
(301,0,l),
(409,0,l),
(548,531,l),
(687,0,l),
(795,0,l),
(981,710,l),
(886,710,l),
(741,121,l),
(595,710,l),
(500,710,l),
(355,121,l),
(209,710,l),
(115,710,l)
);
}
);
};
layerId = "37DC72B3-BCF2-46ED-AAD5-F0285A86700E";
shapes = (
{
closed = 1;
nodes = (
(229,0,l),
(463,0,l),
(548,326,l),
(633,0,l),
(867,0,l),
(1066,710,l),
(823,710,l),
(732,333,l),
(638,710,l),
(458,710,l),
(364,333,l),
(273,710,l),
(30,710,l)
);
}
);
width = 1096;
},
{
anchors = (
{
name = bottom;
pos = (439,0);
},
{
name = top;
pos = (439,710);
}
);
background = {
shapes = (
{
closed = 1;
nodes = (
(228,0,l),
(336,0,l),
(475,531,l),
(614,0,l),
(722,0,l),
(908,710,l),
(813,710,l),
(668,121,l),
(522,710,l),
(427,710,l),
(282,121,l),
(136,710,l),
(42,710,l)
);
}
);
};
layerId = "EE2FFE84-06F1-4AFB-BBEC-60D09A436D14";
shapes = (
{
closed = 1;
nodes = (
(223,0,l),
(271,0,l),
(439,676,l),
(607,0,l),
(655,0,l),
(854,710,l),
(821,710,l),
(632,33,l),
(461,710,l),
(417,710,l),
(246,33,l),
(57,710,l),
(24,710,l)
);
}
);
width = 878;
}
);
metricLeft = V;
metricRight = V;
unicode = 87;
},
{
color = 8;
glyphname = X;
kernLeft = X;
kernRight = X;
lastChange = "2023-07-05 17:51:33 +0000";
layers = (
{
background = {
shapes = (
{
pos = (-3,0);
ref = Y;
}
);
};
guides = (
{
pos = (261,357);
}
);
layerId = m01;
shapes = (
{
closed = 1;
nodes = (
(316,427,l),
(131,710,l),
(29,710,l),
(260,357,l),
(27,0,l),
(127,0,l),
(314,286,l),
(500,0,l),
(602,0,l),
(369,356,l),
(600,710,l),
(500,710,l)
);
}
);
width = 629;
},
{
background = {
shapes = (
{
closed = 1;
nodes = (
(372,368,l),
(356,359,l),
(122,0,l),
(222,0,l),
(442,337,l),
(459,348,l),
(695,710,l),
(595,710,l)
);
},
{
closed = 1;
nodes = (
(124,710,l),
(369,335,l),
(384,324,l),
(595,0,l),
(697,0,l),
(443,389,l),
(429,399,l),
(226,710,l)
);
}
);
};
layerId = "37DC72B3-BCF2-46ED-AAD5-F0285A86700E";
shapes = (
{
closed = 1;
nodes = (
(410,532,l),
(296,710,l),
(32,710,l),
(275,357,l),
(30,0,l),
(296,0,l),
(410,183,l),
(524,0,l),
(790,0,l),
(545,357,l),
(788,710,l),
(524,710,l)
);
}
);
width = 820;
},
{
background = {
shapes = (
{
closed = 1;
nodes = (
(280,368,l),
(264,359,l),
(30,0,l),
(130,0,l),
(350,337,l),
(367,348,l),
(603,710,l),
(503,710,l)
);
},
{
closed = 1;
nodes = (
(32,710,l),
(277,335,l),
(292,324,l),
(503,0,l),
(605,0,l),
(351,389,l),
(337,399,l),
(134,710,l)
);
}
);
};
guides = (
{
angle = -90;
pos = (588,0);
}
);
layerId = "EE2FFE84-06F1-4AFB-BBEC-60D09A436D14";
shapes = (
{
closed = 1;
nodes = (
(309,382,l),
(76,710,l),
(37,710,l),
(287,357,l),
(30,0,l),
(69,0,l),
(309,332,l),
(549,0,l),
(588,0,l),
(331,357,l),
(581,710,l),
(542,710,l)
);
}
);
width = 618;
},
{
associatedMasterId = "EE2FFE84-06F1-4AFB-BBEC-60D09A436D14";
background = {
shapes = (
{
closed = 1;
nodes = (
(280,368,l),
(264,359,l),
(30,0,l),
(130,0,l),
(350,337,l),
(367,348,l),
(603,710,l),
(503,710,l)
);
},
{
closed = 1;
nodes = (
(32,710,l),
(277,335,l),
(292,324,l),
(503,0,l),
(605,0,l),
(351,389,l),
(337,399,l),
(134,710,l)
);
}
);
};
layerId = "C47B0997-5802-47AD-AE45-D8AD767F0936";
name = "5 de feb. de 23 12:24";
shapes = (
{
closed = 1;
nodes = (
(322,368,l),
(284,359,l),
(50,0,l),
(88,0,l),
(308,337,l),
(347,348,l),
(583,710,l),
(545,710,l)
);
},
{
closed = 1;
nodes = (
(52,710,l),
(297,335,l),
(336,324,l),
(547,0,l),
(585,0,l),
(331,389,l),
(293,399,l),
(90,710,l)
);
}
);
width = 600;
},
{
associatedMasterId = m01;
guides = (
{
pos = (264,357);
}
);
layerId = "FCBD726A-1A4B-4BBB-8E6C-B0DFA003EB8B";
name = "24 de feb. de 23 10:16";
shapes = (
{
closed = 1;
nodes = (
(280,368,l),
(264,359,l),
(30,0,l),
(130,0,l),
(350,337,l),
(367,348,l),
(603,710,l),
(503,710,l)
);
},
{
closed = 1;
nodes = (
(32,710,l),
(277,335,l),
(292,324,l),
(503,0,l),
(605,0,l),
(351,389,l),
(337,399,l),
(134,710,l)
);
}
);
width = 635;
}
);
unicode = 88;
},
{
glyphname = Y;
kernLeft = V;
kernRight = V;
lastChange = "2023-07-05 17:52:13 +0000";
layers = (
{
anchors = (
{
name = bottom;
pos = (316,0);
},
{
name = top;
pos = (316,710);
}
);
layerId = m01;
shapes = (
{
closed = 1;
nodes = (
(272,290,l),
(272,0,l),
(360,0,l),
(360,290,l),
(610,710,l),
(506,710,l),
(316,383,l),
(125,710,l),
(21,710,l)
);
}
);
width = 631;
},
{
anchors = (
{
name = top;
pos = (311,710);
}
);
associatedMasterId = m01;
layerId = "6D2BED7F-7E3B-4273-99CD-A40B078EA22B";
name = "7 Feb 23 18:26";
shapes = (
{
closed = 1;
nodes = (
(343,287,l),
(601,710,l),
(503,710,l),
(311,389,l),
(118,710,l),
(20,710,l),
(279,287,l)
);
},
{
closed = 1;
nodes = (
(267,0,l),
(355,0,l),
(355,360,l),
(267,360,l)
);
}
);
width = 621;
},
{
anchors = (
{
name = bottom;
pos = (381,0);
},
{
name = top;
pos = (381,710);
}
);
background = {
shapes = (
{
closed = 1;
nodes = (
(360,258,l),
(337,342,l),
(337,0,l),
(425,0,l),
(425,342,l),
(402,258,l),
(671,710,l),
(571,710,l),
(358,344,l),
(404,344,l),
(190,710,l),
(90,710,l)
);
}
);
};
layerId = "37DC72B3-BCF2-46ED-AAD5-F0285A86700E";
shapes = (
{
closed = 1;
nodes = (
(261,257,l),
(261,0,l),
(501,0,l),
(501,257,l),
(731,710,l),
(488,710,l),
(381,473,l),
(273,710,l),
(30,710,l)
);
}
);
width = 761;
},
{
anchors = (
{
name = bottom;
pos = (297,0);
},
{
name = top;
pos = (297,710);
}
);
background = {
shapes = (
{
closed = 1;
nodes = (
(365,287,l),
(623,710,l),
(525,710,l),
(333,389,l),
(140,710,l),
(42,710,l),
(301,287,l)
);
},
{
closed = 1;
nodes = (
(289,0,l),
(377,0,l),
(377,360,l),
(289,360,l)
);
}
);
};
layerId = "EE2FFE84-06F1-4AFB-BBEC-60D09A436D14";
shapes = (
{
closed = 1;
nodes = (
(281,290,l),
(281,0,l),
(313,0,l),
(313,290,l),
(569,710,l),
(532,710,l),
(297,321,l),
(62,710,l),
(24,710,l)
);
}
);
width = 593;
},
{
anchors = (
{
name = top;
pos = (311,710);
}
);
associatedMasterId = m01;
layerId = "F773665B-F3DF-40F8-A126-3D52A45D2CCE";
name = "24 de feb. de 23 10:17";
shapes = (
{
closed = 1;
nodes = (
(290,258,l),
(267,342,l),
(267,0,l),
(355,0,l),
(355,342,l),
(332,258,l),
(601,710,l),
(501,710,l),
(288,344,l),
(334,344,l),
(120,710,l),
(20,710,l)
);
}
);
width = 621;
}
);
metricLeft = V;
metricRight = V;
unicode = 89;
},
{
color = 8;
glyphname = Z;
kernLeft = Z;
kernRight = Z;
lastChange = "2023-07-05 17:51:39 +0000";
layers = (
{
anchors = (
{
name = bottom;
pos = (279,0);
},
{
name = top;
pos = (279,710);
}
);
layerId = m01;
shapes = (
{
closed = 1;
nodes = (
(508,710,l),
(44,710,l),
(44,624,l),
(406,624,l),
(27,91,l),
(27,0,l),
(516,0,l),
(516,86,l),
(126,86,l),
(508,622,l)
);
}
);
width = 543;
},
{
anchors = (
{
name = top;
pos = (267,710);
}
);
associatedMasterId = m01;
layerId = "BCD9446D-EC61-45AD-8C39-00DD06631DAC";
name = "7 Feb 23 18:27";
shapes = (
{
closed = 1;
nodes = (
(495,710,l),
(47,710,l),
(47,624,l),
(399,624,l),
(30,97,l),
(30,0,l),
(503,0,l),
(503,86,l),
(125,86,l),
(495,614,l)
);
}
);
width = 533;
},
{
anchors = (
{
name = bottom;
pos = (344,0);
},
{
name = top;
pos = (344,710);
}
);
background = {
shapes = (
{
closed = 1;
nodes = (
(573,710,l),
(125,710,l),
(125,624,l),
(522,624,l),
(503,661,l),
(108,97,l),
(108,0,l),
(581,0,l),
(581,86,l),
(158,86,l),
(177,49,l),
(573,614,l)
);
}
);
};
layerId = "37DC72B3-BCF2-46ED-AAD5-F0285A86700E";
shapes = (
{
closed = 1;
nodes = (
(631,710,l),
(56,710,l),
(56,524,l),
(326,524,l),
(30,177,l),
(30,0,l),
(639,0,l),
(639,186,l),
(315,186,l),
(631,554,l)
);
}
);
width = 669;
},
{
anchors = (
{
name = bottom;
pos = (266,0);
},
{
name = top;
pos = (266,710);
}
);
background = {
shapes = (
{
closed = 1;
nodes = (
(493,710,l),
(45,710,l),
(45,624,l),
(397,624,l),
(28,97,l),
(28,0,l),
(501,0,l),
(501,86,l),
(123,86,l),
(493,614,l)
);
}
);
};
layerId = "EE2FFE84-06F1-4AFB-BBEC-60D09A436D14";
shapes = (
{
closed = 1;
nodes = (
(485,710,l),
(47,710,l),
(47,680,l),
(450,680,l),
(30,30,l),
(30,0,l),
(493,0,l),
(493,30,l),
(65,30,l),
(485,680,l)
);
}
);
width = 523;
},
{
anchors = (
{
name = top;
pos = (266,710);
}
);
associatedMasterId = m01;
layerId = "A6871A7E-8A92-4F19-8EDF-6EA5B18F8E4D";
name = "24 de feb. de 23 10:18";
shapes = (
{
closed = 1;
nodes = (
(495,710,l),
(47,710,l),
(47,624,l),
(444,624,l),
(425,661,l),
(30,97,l),
(30,0,l),
(503,0,l),
(503,86,l),
(80,86,l),
(99,49,l),
(495,614,l)
);
}
);
width = 533;
},
{
associatedMasterId = "37DC72B3-BCF2-46ED-AAD5-F0285A86700E";
background = {
shapes = (
{
closed = 1;
nodes = (
(573,710,l),
(125,710,l),
(125,624,l),
(522,624,l),
(503,661,l),
(108,97,l),
(108,0,l),
(581,0,l),
(581,86,l),
(158,86,l),
(177,49,l),
(573,614,l)
);
}
);
};
layerId = "1914815C-163A-4577-9DF0-C2530622FF26";
name = "24 de feb. de 23 10:18";
shapes = (
{
closed = 1;
nodes = (
(631,710,l),
(56,710,l),
(56,524,l),
(522,524,l),
(443,661,l),
(30,177,l),
(30,0,l),
(639,0,l),
(639,186,l),
(158,186,l),
(197,49,l),
(631,554,l)
);
}
);
width = 669;
}
);
unicode = 90;
},
{
glyphname = R.ss04;
kernLeft = H;
kernRight = R;
lastChange = "2023-07-05 17:52:13 +0000";
layers = (
{
anchors = (
{
name = bottom;
pos = (332,0);
},
{
name = top;
pos = (332,710);
}
);
background = {
shapes = (
{
pos = (-4,0);
ref = R;
}
);
};
layerId = m01;
shapes = (
{
closed = 1;
nodes = (
(92,0,l),
(180,0,l),
(180,285,l),
(347,285,l),
(351,285,o),
(354,285,o),
(358,285,c),
(520,0,l),
(617,0,l),
(448,298,l),
(545,325,o),
(599,396,o),
(599,495,cs),
(599,630,o),
(506,710,o),
(347,710,cs),
(92,710,l)
);
},
{
closed = 1;
nodes = (
(180,624,l),
(347,624,ls),
(450,624,o),
(507,578,o),
(507,497,cs),
(507,416,o),
(450,371,o),
(347,371,cs),
(180,371,l)
);
}
);
width = 679;
},
{
anchors = (
{
name = bottom;
pos = (356,0);
},
{
name = top;
pos = (356,710);
}
);
background = {
shapes = (
{
ref = R;
}
);
};
layerId = "37DC72B3-BCF2-46ED-AAD5-F0285A86700E";
shapes = (
{
closed = 1;
nodes = (
(50,0,l),
(290,0,l),
(290,227,l),
(347,227,l),
(349,227,o),
(350,227,o),
(352,227,c),
(458,0,l),
(703,0,l),
(562,268,l),
(641,305,o),
(675,389,o),
(675,472,cs),
(675,625,o),
(567,710,o),
(373,710,cs),
(50,710,l)
);
},
{
closed = 1;
nodes = (
(290,524,l),
(353,524,ls),
(394,524,o),
(433,508,o),
(433,467,cs),
(433,426,o),
(394,411,o),
(353,411,cs),
(290,411,l)
);
}
);
width = 738;
},
{
associatedMasterId = "37DC72B3-BCF2-46ED-AAD5-F0285A86700E";
background = {
shapes = (
{
closed = 1;
nodes = (
(90,0,l),
(178,0,l),
(178,285,l),
(315,285,l),
(470,285,o),
(567,366,o),
(567,495,cs),
(567,630,o),
(474,710,o),
(315,710,c),
(90,710,l)
);
},
{
closed = 1;
nodes = (
(178,624,l),
(315,624,l),
(418,624,o),
(475,578,o),
(475,497,cs),
(475,416,o),
(418,371,o),
(315,371,cs),
(178,371,l)
);
},
{
closed = 1;
nodes = (
(488,0,l),
(582,0,l),
(405,312,l),
(311,312,l)
);
}
);
};
layerId = "758031CB-FF6D-4DAD-AB1A-3FEA71DB4C90";
name = "13 de feb. de 23 11:52";
shapes = (
{
closed = 1;
nodes = (
(30,0,l),
(270,0,l),
(270,225,l),
(323,225,l),
(502,225,o),
(615,302,o),
(615,456,cs),
(615,612,o),
(502,710,o),
(323,710,c),
(30,710,l)
);
},
{
closed = 1;
nodes = (
(270,524,l),
(303,524,ls),
(348,524,o),
(373,504,o),
(373,467,cs),
(373,431,o),
(348,411,o),
(303,411,cs),
(270,411,l)
);
},
{
closed = 1;
nodes = (
(231,373,l),
(421,-7,l),
(653,0,l),
(454,373,l)
);
}
);
width = 683;
},
{
associatedMasterId = "37DC72B3-BCF2-46ED-AAD5-F0285A86700E";
background = {
shapes = (
{
closed = 1;
nodes = (
(90,0,l),
(178,0,l),
(178,285,l),
(315,285,l),
(470,285,o),
(567,366,o),
(567,495,cs),
(567,630,o),
(474,710,o),
(315,710,c),
(90,710,l)
);
},
{
closed = 1;
nodes = (
(178,624,l),
(315,624,l),
(418,624,o),
(475,578,o),
(475,497,cs),
(475,416,o),
(418,371,o),
(315,371,cs),
(178,371,l)
);
},
{
closed = 1;
nodes = (
(488,0,l),
(582,0,l),
(405,312,l),
(311,312,l)
);
}
);
};
layerId = "EBB7435B-BF96-48EA-894A-A9051EBD0FD5";
name = "15 Feb 23 15:52";
shapes = (
{
closed = 1;
nodes = (
(30,0,l),
(270,0,l),
(270,225,l),
(305,225,l),
(408,0,l),
(653,0,l),
(500,296,l),
(483,247,l),
(574,268,o),
(615,370,o),
(615,456,cs),
(615,612,o),
(502,710,o),
(323,710,cs),
(30,710,l)
);
},
{
closed = 1;
nodes = (
(270,524,l),
(303,524,ls),
(348,524,o),
(373,504,o),
(373,467,cs),
(373,431,o),
(348,411,o),
(303,411,cs),
(270,411,l)
);
}
);
width = 683;
},
{
anchors = (
{
name = bottom;
pos = (318,0);
},
{
name = top;
pos = (318,710);
}
);
background = {
shapes = (
{
ref = R;
}
);
};
layerId = "EE2FFE84-06F1-4AFB-BBEC-60D09A436D14";
shapes = (
{
closed = 1;
nodes = (
(96,0,l),
(128,0,l),
(128,311,l),
(333,311,ls),
(342,311,o),
(352,311,o),
(360,312,c),
(539,0,l),
(573,0,l),
(392,315,l),
(505,333,o),
(573,403,o),
(573,505,cs),
(573,631,o),
(480,710,o),
(333,710,cs),
(96,710,l)
);
},
{
closed = 1;
nodes = (
(128,680,l),
(333,680,ls),
(465,680,o),
(539,617,o),
(539,505,cs),
(539,400,o),
(465,341,o),
(333,341,cs),
(128,341,l)
);
}
);
width = 628;
},
{
associatedMasterId = "37DC72B3-BCF2-46ED-AAD5-F0285A86700E";
background = {
shapes = (
{
closed = 1;
nodes = (
(90,0,l),
(178,0,l),
(178,285,l),
(315,285,l),
(470,285,o),
(567,366,o),
(567,495,cs),
(567,630,o),
(474,710,o),
(315,710,c),
(90,710,l)
);
},
{
closed = 1;
nodes = (
(178,624,l),
(315,624,l),
(418,624,o),
(475,578,o),
(475,497,cs),
(475,416,o),
(418,371,o),
(315,371,cs),
(178,371,l)
);
},
{
closed = 1;
nodes = (
(488,0,l),
(582,0,l),
(405,312,l),
(311,312,l)
);
}
);
};
layerId = "8919A2CC-67CD-465A-9AEE-F1D3C7D701DE";
name = "24 de feb. de 23 09:29";
shapes = (
{
closed = 1;
nodes = (
(30,0,l),
(270,0,l),
(270,227,l),
(350,227,l),
(284,266,l),
(408,0,l),
(653,0,l),
(498,296,l),
(453,251,l),
(574,268,o),
(625,370,o),
(625,472,cs),
(625,612,o),
(502,710,o),
(323,710,cs),
(30,710,l)
);
},
{
closed = 1;
nodes = (
(270,524,l),
(303,524,ls),
(344,524,o),
(383,508,o),
(383,467,cs),
(383,426,o),
(344,411,o),
(303,411,cs),
(270,411,l)
);
}
);
width = 693;
},
{
anchors = (
{
name = bottom;
pos = (314,0);
},
{
name = top;
pos = (276,710);
}
);
associatedMasterId = m01;
layerId = "6D3167F8-2F0D-4878-BBD3-B52CCC019E3B";
name = "24 de feb. de 23 09:29";
shapes = (
{
closed = 1;
nodes = (
(70,0,l),
(158,0,l),
(158,285,l),
(295,285,l),
(450,285,o),
(547,366,o),
(547,495,cs),
(547,630,o),
(454,710,o),
(295,710,c),
(70,710,l)
);
},
{
closed = 1;
nodes = (
(158,624,l),
(295,624,l),
(398,624,o),
(455,578,o),
(455,497,cs),
(455,416,o),
(398,371,o),
(295,371,cs),
(158,371,l)
);
},
{
closed = 1;
nodes = (
(468,0,l),
(562,0,l),
(385,312,l),
(291,312,l)
);
}
);
width = 607;
},
{
anchors = (
{
name = bottom;
pos = (267,0);
},
{
name = top;
pos = (267,710);
}
);
associatedMasterId = "EE2FFE84-06F1-4AFB-BBEC-60D09A436D14";
background = {
shapes = (
{
closed = 1;
nodes = (
(52,0,l),
(140,0,l),
(140,285,l),
(277,285,l),
(432,285,o),
(529,366,o),
(529,495,cs),
(529,630,o),
(436,710,o),
(277,710,c),
(52,710,l)
);
},
{
closed = 1;
nodes = (
(140,624,l),
(277,624,l),
(380,624,o),
(437,578,o),
(437,497,cs),
(437,416,o),
(380,371,o),
(277,371,cs),
(140,371,l)
);
},
{
closed = 1;
nodes = (
(451,0,l),
(544,0,l),
(367,312,l),
(274,312,l)
);
}
);
};
layerId = "E52F05DD-F8BB-41FB-A85A-A270D0A939B3";
name = "24 de feb. de 23 09:29";
shapes = (
{
closed = 1;
nodes = (
(483,0,l),
(517,0,l),
(335,318,l),
(301,318,l)
);
},
{
closed = 1;
nodes = (
(70,0,l),
(102,0,l),
(102,311,l),
(277,311,l),
(424,311,o),
(517,386,o),
(517,505,cs),
(517,631,o),
(424,710,o),
(277,710,c),
(70,710,l)
);
},
{
closed = 1;
nodes = (
(102,680,l),
(277,680,l),
(409,680,o),
(483,617,o),
(483,505,cs),
(483,400,o),
(409,341,o),
(277,341,cs),
(102,341,l)
);
}
);
width = 587;
}
);
metricLeft = H;
metricRight = "=P+10";
},
{
glyphname = I.ss05;
lastChange = "2023-07-05 17:52:13 +0000";
layers = (
{
associatedMasterId = m01;
layerId = "69BEA468-2855-4A2A-9DDC-916CE28F143C";
name = "13 Jan 23 11:46";
shapes = (
{
closed = 1;
nodes = (
(60,0,l),
(148,0,l),
(148,710,l),
(60,710,l)
);
}
);
width = 208;
},
{
anchors = (
{
name = bottom;
pos = (219,0);
},
{
name = ogonek;
pos = (389,0);
},
{
name = top;
pos = (219,710);
}
);
layerId = m01;
name = Regular;
shapes = (
{
closed = 1;
nodes = (
(55,710,l),
(55,624,l),
(175,624,l),
(175,86,l),
(49,86,l),
(49,0,l),
(389,0,l),
(389,86,l),
(263,86,l),
(263,624,l),
(383,624,l),
(383,710,l)
);
}
);
width = 438;
},
{
anchors = (
{
name = bottom;
pos = (162,0);
},
{
name = ogonek;
pos = (272,0);
},
{
name = top;
pos = (162,710);
}
);
background = {
shapes = (
{
closed = 1;
nodes = (
(6,710,l),
(6,624,l),
(126,624,l),
(126,86,l),
(0,86,l),
(0,0,l),
(340,0,l),
(340,86,l),
(214,86,l),
(214,624,l),
(334,624,l),
(334,710,l)
);
}
);
};
layerId = "EE2FFE84-06F1-4AFB-BBEC-60D09A436D14";
shapes = (
{
closed = 1;
nodes = (
(58,710,l),
(58,680,l),
(146,680,l),
(146,30,l),
(52,30,l),
(52,0,l),
(272,0,l),
(272,30,l),
(178,30,l),
(178,680,l),
(266,680,l),
(266,710,l)
);
}
);
width = 324;
},
{
anchors = (
{
name = bottom;
pos = (258,0);
},
{
name = ogonek;
pos = (486,0);
},
{
name = top;
pos = (258,710);
}
);
layerId = "37DC72B3-BCF2-46ED-AAD5-F0285A86700E";
shapes = (
{
closed = 1;
nodes = (
(36,710,l),
(36,524,l),
(138,524,l),
(138,186,l),
(30,186,l),
(30,0,l),
(486,0,l),
(486,186,l),
(378,186,l),
(378,524,l),
(480,524,l),
(480,710,l)
);
}
);
width = 516;
}
);
metricLeft = O;
metricRight = O;
},
{
glyphname = G.ss06;
lastChange = "2023-07-05 17:52:13 +0000";
layers = (
{
anchors = (
{
name = bottom;
pos = (371,0);
},
{
name = top;
pos = (371,710);
}
);
layerId = m01;
shapes = (
{
closed = 1;
nodes = (
(371,274,l),
(570,274,l),
(566,159,o),
(497,70,o),
(371,70,cs),
(210,70,o),
(141,203,o),
(141,354,cs),
(141,506,o),
(209,640,o),
(371,640,cs),
(473,640,o),
(537,581,o),
(560,496,c),
(652,502,l),
(621,632,o),
(522,726,o),
(371,726,cs),
(165,726,o),
(49,560,o),
(49,354,cs),
(49,149,o),
(166,-16,o),
(371,-16,cs),
(553,-16,o),
(658,107,o),
(658,315,c),
(658,360,l),
(371,360,l)
);
}
);
width = 702;
},
{
anchors = (
{
name = bottom;
pos = (400,0);
},
{
name = top;
pos = (400,710);
}
);
background = {
anchors = (
{
name = bottom;
pos = (398,0);
},
{
name = top;
pos = (400,710);
}
);
shapes = (
{
closed = 1;
nodes = (
(737,384,l),
(391,384,l),
(391,234,l),
(490,234,l),
(472,189,o),
(442,170,o),
(393,170,cs),
(317,170,o),
(274,236,o),
(274,354,cs),
(274,473,o),
(317,540,o),
(393,540,cs),
(442,540,o),
(476,510,o),
(489,456,c),
(736,467,l),
(696,633,o),
(575,726,o),
(400,726,cs),
(183,726,o),
(30,571,o),
(30,354,cs),
(30,137,o),
(183,-16,o),
(400,-16,cs),
(498,-16,o),
(584,31,o),
(613,125,c),
(593,124,l),
(605,0,l),
(737,0,l)
);
}
);
};
layerId = "37DC72B3-BCF2-46ED-AAD5-F0285A86700E";
shapes = (
{
closed = 1;
nodes = (
(391,234,l),
(490,234,l),
(472,189,o),
(442,170,o),
(393,170,cs),
(317,170,o),
(274,236,o),
(274,354,cs),
(274,473,o),
(317,540,o),
(393,540,cs),
(442,540,o),
(476,510,o),
(489,456,c),
(736,467,l),
(696,633,o),
(575,726,o),
(400,726,cs),
(183,726,o),
(30,571,o),
(30,354,cs),
(30,137,o),
(183,-16,o),
(400,-16,cs),
(535,-16,o),
(737,39,o),
(737,343,c),
(737,384,l),
(391,384,l)
);
}
);
width = 762;
},
{
anchors = (
{
name = bottom;
pos = (356,0);
},
{
name = top;
pos = (356,710);
}
);
background = {
shapes = (
{
ref = G;
}
);
};
layerId = "EE2FFE84-06F1-4AFB-BBEC-60D09A436D14";
shapes = (
{
closed = 1;
nodes = (
(356,300,l),
(588,300,l),
(588,126,o),
(499,16,o),
(356,16,cs),
(190,16,o),
(86,146,o),
(86,354,cs),
(86,563,o),
(190,694,o),
(356,694,cs),
(464,694,o),
(552,618,o),
(585,497,c),
(618,501,l),
(585,639,o),
(484,726,o),
(356,726,cs),
(169,726,o),
(52,583,o),
(52,354,cs),
(52,127,o),
(169,-16,o),
(356,-16,cs),
(519,-16,o),
(622,108,o),
(622,306,cs),
(622,330,l),
(356,330,l)
);
}
);
width = 669;
}
);
metricLeft = O;
metricRight = C;
note = "<svg xmlns=\"http://www.w3.org/2000/svg\" viewBox=\"0 0 606 742\"><path d=\"M606,726v-360h-284v86h199c-7,115-76,204-199,204c-161,0-230-133-230-284c0-152,68-286,230-286c102,0,166,59,189,144l92-6c-31-130-130-224-281-224c-206,0-322,166-322,372c0,205,117,370,322,370c93,0,181-54,212-131l8,115Z\"></path></svg>";
},
{
glyphname = a;
kernLeft = a;
kernRight = l;
lastChange = "2023-09-08 13:27:07 +0000";
layers = (
{
anchors = (
{
name = bottom;
pos = (281,0);
},
{
name = ogonek;
pos = (541,3);
},
{
name = top;
pos = (282,530);
}
);
background = {
shapes = (
{
pos = (12,0);
ref = a.ss01;
}
);
};
layerId = m01;
shapes = (
{
closed = 1;
nodes = (
(147,367,l),
(163,427,o),
(207,460,o),
(273,460,cs),
(358,460,o),
(400,417,o),
(401,329,c),
(247,299,ls),
(129,276,o),
(47,249,o),
(47,139,cs),
(47,44,o),
(133,-12,o),
(238,-12,cs),
(322,-12,o),
(380,33,o),
(402,81,c),
(402,17,o),
(450,0,o),
(504,0,cs),
(541,0,l),
(541,76,l),
(519,76,ls),
(497,76,o),
(487,86,o),
(487,108,cs),
(487,320,ls),
(487,462,o),
(410,542,o),
(273,542,cs),
(160,542,o),
(77,477,o),
(56,374,c)
);
},
{
closed = 1;
nodes = (
(137,213,o),
(201,217,o),
(279,231,cs),
(403,253,l),
(403,248,ls),
(403,124,o),
(335,64,o),
(249,64,cs),
(172,64,o),
(137,98,o),
(137,139,cs)
);
}
);
width = 576;
},
{
associatedMasterId = m01;
layerId = "8246345C-8D56-4D85-B6F2-E63D7AB8D0DD";
name = "13 Jan 23 12:53";
shapes = (
{
closed = 1;
nodes = (
(225,301,ls),
(108,280,o),
(25,249,o),
(25,137,cs),
(25,40,o),
(111,-16,o),
(216,-16,cs),
(316,-16,o),
(387,47,o),
(393,106,c),
(383,106,l),
(387,0,l),
(465,0,l),
(465,320,ls),
(465,472,o),
(379,546,o),
(251,546,cs),
(129,546,o),
(36,463,o),
(30,339,c),
(2,376,l),
(142,366,l),
(123,338,l),
(124,411,o),
(176,464,o),
(251,464,cs),
(329,464,o),
(379,420,o),
(379,327,cs),
(379,303,l),
(400,333,l)
);
},
{
closed = 1;
nodes = (
(115,213,o),
(179,216,o),
(257,231,cs),
(395,257,l),
(381,274,l),
(381,199,ls),
(381,113,o),
(313,60,o),
(227,60,cs),
(150,60,o),
(115,94,o),
(115,137,cs)
);
}
);
width = 485;
},
{
associatedMasterId = m01;
layerId = "B45E3CEC-0667-4FE8-8A6C-8DFFF7E3385A";
name = "19 Jan 23 14:38";
shapes = (
{
closed = 1;
nodes = (
(340,-16,o),
(405,43,o),
(414,100,c),
(405,111,l),
(403,46,o),
(442,0,o),
(520,0,cs),
(547,0,l),
(547,76,l),
(525,76,ls),
(503,76,o),
(493,86,o),
(493,108,cs),
(493,320,ls),
(493,472,o),
(407,546,o),
(279,546,cs),
(169,546,o),
(82,478,o),
(62,374,c),
(154,367,l),
(167,425,o),
(214,464,o),
(279,464,cs),
(357,464,o),
(407,420,o),
(407,327,cs),
(407,293,l),
(253,293,ls),
(133,293,o),
(53,249,o),
(53,137,cs),
(53,40,o),
(139,-16,o),
(244,-16,cs)
);
},
{
closed = 1;
nodes = (
(178,60,o),
(143,94,o),
(143,137,cs),
(143,213,o),
(205,217,o),
(285,217,cs),
(409,217,l),
(409,199,ls),
(409,113,o),
(341,60,o),
(255,60,cs)
);
}
);
width = 539;
},
{
anchors = (
{
name = bottom;
pos = (264,0);
},
{
name = ogonek;
pos = (516,0);
},
{
name = top;
pos = (264,530);
}
);
background = {
shapes = (
{
closed = 1;
nodes = (
(328,-12,o),
(392,48,o),
(401,102,c),
(392,110,l),
(391,49,o),
(430,0,o),
(507,0,cs),
(534,0,l),
(534,76,l),
(512,76,ls),
(490,76,o),
(480,86,o),
(480,108,cs),
(480,320,ls),
(480,468,o),
(394,542,o),
(266,542,cs),
(156,542,o),
(69,474,o),
(49,374,c),
(141,367,l),
(154,421,o),
(201,460,o),
(266,460,cs),
(354,460,o),
(407,404,o),
(391,287,c),
(438,338,l),
(240,299,ls),
(122,276,o),
(40,249,o),
(40,139,cs),
(40,44,o),
(126,-12,o),
(231,-12,cs)
);
},
{
closed = 1;
nodes = (
(130,213,o),
(194,216,o),
(272,230,cs),
(440,261,l),
(396,267,l),
(396,228,ls),
(396,124,o),
(328,64,o),
(242,64,cs),
(165,64,o),
(130,98,o),
(130,139,cs)
);
}
);
};
layerId = "EE2FFE84-06F1-4AFB-BBEC-60D09A436D14";
shapes = (
{
closed = 1;
nodes = (
(92,370,l),
(107,461,o),
(166,512,o),
(258,512,cs),
(372,512,o),
(422,452,o),
(422,315,c),
(232,280,ls),
(139,263,o),
(50,226,o),
(50,131,cs),
(50,48,o),
(116,-10,o),
(223,-12,cs),
(312,-10,o),
(388,34,o),
(424,115,c),
(419,25,o),
(451,0,o),
(498,0,cs),
(516,0,l),
(516,30,l),
(498,30,ls),
(467,30,o),
(454,48,o),
(454,90,cs),
(454,320,ls),
(454,468,o),
(389,542,o),
(258,542,cs),
(149,542,o),
(77,481,o),
(59,373,c)
);
},
{
closed = 1;
nodes = (
(82,219,o),
(177,241,o),
(264,257,cs),
(424,287,l),
(425,219,ls),
(427,108,o),
(347,23,o),
(234,18,cs),
(141,13,o),
(82,60,o),
(82,131,cs)
);
}
);
width = 551;
},
{
anchors = (
{
name = bottom;
pos = (322,0);
},
{
name = ogonek;
pos = (657,0);
},
{
name = top;
pos = (322,530);
}
);
background = {
shapes = (
{
pos = (13,0);
ref = a.ss01;
},
{
closed = 1;
nodes = (
(270,178,o),
(289,195,o),
(328,203,cs),
(368,211,l),
(368,207,ls),
(368,147,o),
(349,114,o),
(312,114,cs),
(288,114,o),
(270,128,o),
(270,151,cs)
);
}
);
};
layerId = "37DC72B3-BCF2-46ED-AAD5-F0285A86700E";
shapes = (
{
closed = 1;
nodes = (
(269,347,l),
(274,398,o),
(290,420,o),
(321,420,cs),
(352,420,o),
(365,393,o),
(365,331,c),
(231,303,ls),
(90,274,o),
(28,224,o),
(28,140,cs),
(28,48,o),
(107,-12,o),
(217,-12,cs),
(330,-12,o),
(393,16,o),
(424,79,c),
(457,-51,o),
(634,-5,o),
(643,-3,cs),
(657,0,l),
(657,140,l),
(641,140,ls),
(626,140,o),
(606,143,o),
(606,195,cs),
(606,300,ls),
(606,465,o),
(516,542,o),
(322,542,cs),
(148,542,o),
(56,482,o),
(36,355,c)
);
},
{
closed = 1;
nodes = (
(270,180,o),
(289,197,o),
(329,205,cs),
(368,213,l),
(368,207,ls),
(368,149,o),
(349,116,o),
(312,116,cs),
(288,116,o),
(270,130,o),
(270,153,cs)
);
}
);
width = 676;
},
{
anchors = (
{
name = bottom;
pos = (243,0);
},
{
name = ogonek;
pos = (386,0);
},
{
name = top;
pos = (243,530);
}
);
associatedMasterId = "EE2FFE84-06F1-4AFB-BBEC-60D09A436D14";
background = {
shapes = (
{
closed = 1;
nodes = (
(323,-12,o),
(387,48,o),
(396,102,c),
(387,110,l),
(386,49,o),
(425,0,o),
(502,0,cs),
(529,0,l),
(529,76,l),
(507,76,ls),
(485,76,o),
(475,86,o),
(475,108,cs),
(475,320,ls),
(475,468,o),
(389,542,o),
(261,542,cs),
(151,542,o),
(64,474,o),
(44,374,c),
(136,367,l),
(149,421,o),
(196,460,o),
(261,460,cs),
(349,460,o),
(402,404,o),
(386,287,c),
(433,338,l),
(235,299,ls),
(117,276,o),
(35,249,o),
(35,139,cs),
(35,44,o),
(121,-12,o),
(226,-12,cs)
);
},
{
closed = 1;
nodes = (
(125,213,o),
(189,216,o),
(267,230,cs),
(435,261,l),
(391,267,l),
(391,228,ls),
(391,124,o),
(323,64,o),
(237,64,cs),
(160,64,o),
(125,98,o),
(125,139,cs)
);
}
);
};
layerId = "456932B6-354B-4A2F-81B9-CE7212349174";
name = "30 de mar. de 23 15:28";
shapes = (
{
closed = 1;
nodes = (
(217,280,ls),
(124,263,o),
(35,226,o),
(35,131,cs),
(35,48,o),
(101,-10,o),
(208,-12,cs),
(322,-10,o),
(414,62,o),
(430,192,c),
(411,192,l),
(410,155,o),
(409,127,o),
(409,90,cs),
(409,38,o),
(442,-2,o),
(483,0,cs),
(488,0,o),
(492,0,o),
(496,0,c),
(496,30,l),
(491,30,o),
(488,30,o),
(483,30,cs),
(457,31,o),
(439,56,o),
(439,90,cs),
(439,320,ls),
(439,468,o),
(371,542,o),
(243,542,cs),
(121,542,o),
(46,459,o),
(40,339,c),
(-6,376,l),
(134,366,l),
(77,338,l),
(79,446,o),
(142,512,o),
(243,512,cs),
(346,512,o),
(407,442,o),
(407,327,cs),
(407,303,l),
(430,319,l)
);
},
{
closed = 1;
nodes = (
(67,219,o),
(162,241,o),
(249,257,cs),
(425,290,l),
(409,295,l),
(410,219,ls),
(411,108,o),
(332,23,o),
(219,18,cs),
(126,13,o),
(67,60,o),
(67,131,cs)
);
}
);
width = 526;
}
);
metricLeft = o;
metricRight = "=l-5";
unicode = 97;
},
{
glyphname = ae;
lastChange = "2023-07-05 17:52:13 +0000";
layers = (
{
layerId = m01;
shapes = (
{
closed = 1;
nodes = (
(149,367,l),
(162,421,o),
(209,460,o),
(273,460,cs),
(350,460,o),
(400,417,o),
(401,329,c),
(247,301,ls),
(130,280,o),
(47,253,o),
(47,141,cs),
(47,46,o),
(133,-10,o),
(238,-12,cs),
(344,-10,o),
(413,43,o),
(432,136,c),
(487,320,l),
(487,468,o),
(401,542,o),
(273,542,cs),
(163,542,o),
(77,475,o),
(56,374,c)
);
},
{
closed = 1;
nodes = (
(137,217,o),
(201,216,o),
(279,231,cs),
(403,254,l),
(403,219,ls),
(403,121,o),
(335,64,o),
(249,60,cs),
(172,56,o),
(137,100,o),
(137,141,cs)
);
},
{
alignment = -1;
pos = (364,0);
ref = e;
}
);
width = 932;
},
{
background = {
shapes = (
{
closed = 1;
nodes = (
(255,301,ls),
(138,280,o),
(55,253,o),
(55,141,cs),
(55,46,o),
(141,-10,o),
(246,-12,cs),
(352,-10,o),
(421,43,o),
(440,136,c),
(495,320,l),
(495,468,o),
(409,542,o),
(281,542,cs),
(159,542,o),
(66,459,o),
(60,339,c),
(32,376,l),
(172,366,l),
(153,338,l),
(154,407,o),
(206,460,o),
(281,460,cs),
(359,460,o),
(409,416,o),
(409,327,cs),
(409,303,l),
(430,333,l)
);
},
{
closed = 1;
nodes = (
(145,217,o),
(209,216,o),
(287,231,cs),
(425,257,l),
(411,274,l),
(411,219,ls),
(411,121,o),
(343,64,o),
(257,60,cs),
(180,56,o),
(145,100,o),
(145,141,cs)
);
},
{
closed = 1;
nodes = (
(756,-12,o),
(846,50,o),
(877,150,c),
(785,157,l),
(761,102,o),
(710,70,o),
(654,70,cs),
(564,70,o),
(510,132,o),
(502,238,c),
(885,238,l),
(885,275,l),
(884,277,l),
(875,467,o),
(770,542,o),
(654,542,cs),
(507,542,o),
(411,434,o),
(411,265,cs),
(411,96,o),
(507,-12,o),
(654,-12,cs)
);
},
{
closed = 1;
nodes = (
(518,406,o),
(571,460,o),
(654,460,cs),
(717,460,o),
(776,424,o),
(791,314,c),
(504,314,l)
);
}
);
};
layerId = "EE2FFE84-06F1-4AFB-BBEC-60D09A436D14";
shapes = (
{
closed = 1;
nodes = (
(95,370,l),
(107,459,o),
(167,512,o),
(258,512,cs),
(363,512,o),
(422,446,o),
(422,315,c),
(232,280,ls),
(139,263,o),
(50,226,o),
(50,131,cs),
(50,48,o),
(116,-10,o),
(223,-12,cs),
(337,-10,o),
(438,62,o),
(444,192,c),
(450,320,l),
(450,468,o),
(386,542,o),
(258,542,cs),
(148,542,o),
(76,474,o),
(59,373,c)
);
},
{
closed = 1;
nodes = (
(82,219,o),
(177,241,o),
(264,257,cs),
(424,287,l),
(424,219,ls),
(424,108,o),
(347,23,o),
(234,18,cs),
(141,13,o),
(82,60,o),
(82,131,cs)
);
},
{
alignment = -1;
pos = (384,0);
ref = e;
}
);
width = 934;
},
{
layerId = "37DC72B3-BCF2-46ED-AAD5-F0285A86700E";
shapes = (
{
closed = 1;
nodes = (
(269,347,l),
(274,399,o),
(289,420,o),
(321,420,cs),
(355,420,o),
(365,400,o),
(365,329,c),
(200,295,ls),
(85,271,o),
(28,222,o),
(28,140,cs),
(28,48,o),
(127,-14,o),
(229,-14,cs),
(366,-14,o),
(450,31,o),
(488,147,c),
(606,300,l),
(615,461,o),
(516,542,o),
(322,542,cs),
(148,542,o),
(56,482,o),
(36,355,c)
);
},
{
closed = 1;
nodes = (
(270,178,o),
(289,194,o),
(328,203,cs),
(369,212,l),
(369,181,l),
(366,128,o),
(347,104,o),
(316,104,cs),
(285,104,o),
(270,122,o),
(270,144,cs)
);
},
{
alignment = -1;
pos = (346,0);
ref = e;
}
);
width = 1016;
},
{
associatedMasterId = "EE2FFE84-06F1-4AFB-BBEC-60D09A436D14";
background = {
shapes = (
{
closed = 1;
nodes = (
(250,301,ls),
(133,280,o),
(50,253,o),
(50,141,cs),
(50,46,o),
(136,-10,o),
(241,-12,cs),
(347,-10,o),
(416,43,o),
(435,136,c),
(490,320,l),
(490,468,o),
(404,542,o),
(276,542,cs),
(154,542,o),
(61,459,o),
(55,339,c),
(27,376,l),
(167,366,l),
(148,338,l),
(149,407,o),
(201,460,o),
(276,460,cs),
(354,460,o),
(404,416,o),
(404,327,cs),
(404,303,l),
(425,333,l)
);
},
{
closed = 1;
nodes = (
(140,217,o),
(204,216,o),
(282,231,cs),
(420,257,l),
(406,274,l),
(406,219,ls),
(406,121,o),
(338,64,o),
(252,60,cs),
(175,56,o),
(140,100,o),
(140,141,cs)
);
},
{
closed = 1;
nodes = (
(751,-12,o),
(841,50,o),
(872,150,c),
(780,157,l),
(756,102,o),
(705,70,o),
(649,70,cs),
(559,70,o),
(505,132,o),
(497,238,c),
(880,238,l),
(880,275,l),
(879,277,l),
(870,467,o),
(765,542,o),
(649,542,cs),
(502,542,o),
(406,434,o),
(406,265,cs),
(406,96,o),
(502,-12,o),
(649,-12,cs)
);
},
{
closed = 1;
nodes = (
(513,406,o),
(566,460,o),
(649,460,cs),
(712,460,o),
(771,424,o),
(786,314,c),
(499,314,l)
);
}
);
};
layerId = "E6022EAD-E776-496E-ABC3-4A5031DA1E76";
name = "30 de mar. de 23 10:45";
shapes = (
{
closed = 1;
nodes = (
(80,370,l),
(92,459,o),
(152,512,o),
(243,512,cs),
(348,512,o),
(407,446,o),
(407,327,cs),
(407,315,l),
(217,280,ls),
(124,263,o),
(35,226,o),
(35,131,cs),
(35,48,o),
(101,-10,o),
(208,-12,cs),
(322,-10,o),
(420,62,o),
(429,192,cs),
(435,320,l),
(435,468,o),
(371,542,o),
(243,542,cs),
(133,542,o),
(61,474,o),
(44,373,c)
);
},
{
closed = 1;
nodes = (
(67,219,o),
(162,241,o),
(249,257,cs),
(409,287,l),
(409,219,ls),
(409,108,o),
(332,23,o),
(219,18,cs),
(126,13,o),
(67,60,o),
(67,131,cs)
);
},
{
alignment = -1;
pos = (369,0);
ref = e;
}
);
width = 894;
}
);
metricLeft = a;
metricRight = e;
unicode = 230;
},
{
glyphname = b;
kernLeft = b;
kernRight = o;
lastChange = "2023-09-20 15:44:32 +0000";
layers = (
{
layerId = m01;
shapes = (
{
closed = 1;
nodes = (
(85,0,l),
(163,0,l),
(166,74,l),
(195,20,o),
(251,-12,o),
(333,-12,cs),
(487,-12,o),
(557,120,o),
(557,265,cs),
(557,410,o),
(487,542,o),
(333,542,cs),
(255,542,o),
(201,514,o),
(171,462,c),
(171,710,l),
(85,710,l)
);
},
{
closed = 1;
nodes = (
(163,367,o),
(206,464,o),
(315,464,cs),
(425,464,o),
(467,368,o),
(467,265,cs),
(467,166,o),
(425,70,o),
(315,70,cs),
(206,70,o),
(163,167,o),
(163,265,cs)
);
}
);
width = 604;
},
{
associatedMasterId = m01;
layerId = "8C83E3AE-DDFD-4E24-BE86-D98B49217FA4";
name = "13 Jan 23 12:00";
shapes = (
{
closed = 1;
nodes = (
(60,0,l),
(146,0,l),
(146,101,l),
(126,265,l),
(146,424,l),
(146,710,l),
(60,710,l)
);
},
{
closed = 1;
nodes = (
(436,-16,o),
(532,92,o),
(532,265,cs),
(532,438,o),
(436,546,o),
(293,546,cs),
(150,546,o),
(110,438,o),
(110,265,cs),
(110,92,o),
(150,-16,o),
(293,-16,cs)
);
},
{
closed = 1;
nodes = (
(200,66,o),
(144,139,o),
(144,265,cs),
(144,391,o),
(200,464,o),
(293,464,cs),
(386,464,o),
(442,391,o),
(442,265,cs),
(442,139,o),
(386,66,o),
(293,66,cs)
);
}
);
width = 762;
},
{
background = {
shapes = (
{
closed = 1;
nodes = (
(116,0,l),
(194,0,l),
(198,108,l),
(189,91,l),
(215,26,o),
(274,-12,o),
(364,-12,cs),
(518,-12,o),
(588,120,o),
(588,265,cs),
(588,410,o),
(518,542,o),
(364,542,cs),
(274,542,o),
(215,504,o),
(190,436,c),
(202,422,l),
(202,710,l),
(116,710,l)
);
},
{
closed = 1;
nodes = (
(194,367,o),
(237,464,o),
(346,464,cs),
(456,464,o),
(498,368,o),
(498,265,cs),
(498,166,o),
(456,70,o),
(346,70,cs),
(237,70,o),
(194,167,o),
(194,265,cs)
);
}
);
};
layerId = "37DC72B3-BCF2-46ED-AAD5-F0285A86700E";
shapes = (
{
closed = 1;
nodes = (
(46,0,l),
(280,0,l),
(283,78,l),
(313,20,o),
(366,-12,o),
(434,-12,cs),
(572,-12,o),
(658,95,o),
(658,265,cs),
(658,435,o),
(572,542,o),
(434,542,cs),
(371,542,o),
(318,510,o),
(284,451,c),
(284,710,l),
(46,710,l)
);
},
{
closed = 1;
nodes = (
(274,337,o),
(303,382,o),
(346,382,cs),
(389,382,o),
(417,337,o),
(417,265,cs),
(417,196,o),
(385,148,o),
(346,148,cs),
(302,148,o),
(274,196,o),
(274,265,cs)
);
}
);
width = 686;
},
{
background = {
shapes = (
{
closed = 1;
nodes = (
(30,0,l),
(108,0,l),
(112,108,l),
(103,91,l),
(129,26,o),
(188,-12,o),
(278,-12,cs),
(432,-12,o),
(502,120,o),
(502,265,cs),
(502,410,o),
(432,542,o),
(278,542,cs),
(188,542,o),
(129,504,o),
(104,436,c),
(116,422,l),
(116,710,l),
(30,710,l)
);
},
{
closed = 1;
nodes = (
(108,367,o),
(151,464,o),
(260,464,cs),
(370,464,o),
(412,368,o),
(412,265,cs),
(412,166,o),
(370,70,o),
(260,70,cs),
(151,70,o),
(108,167,o),
(108,265,cs)
);
}
);
};
layerId = "EE2FFE84-06F1-4AFB-BBEC-60D09A436D14";
shapes = (
{
closed = 1;
nodes = (
(88,0,l),
(110,0,l),
(113,130,l),
(149,43,o),
(222,-12,o),
(302,-12,cs),
(438,-12,o),
(523,95,o),
(523,265,cs),
(523,433,o),
(438,539,o),
(302,539,cs),
(222,539,o),
(146,482,o),
(118,402,c),
(118,710,l),
(88,710,l)
);
},
{
closed = 1;
nodes = (
(115,402,o),
(197,509,o),
(302,509,cs),
(418,509,o),
(491,415,o),
(491,265,cs),
(491,113,o),
(418,17,o),
(302,17,cs),
(197,17,o),
(115,126,o),
(115,265,cs)
);
}
);
width = 573;
},
{
associatedMasterId = m01;
layerId = "F63B9669-E4AC-420A-8D2E-FC64185A55F2";
name = "24 de feb. de 23 10:20";
shapes = (
{
closed = 1;
nodes = (
(80,0,l),
(158,0,l),
(162,108,l),
(153,91,l),
(179,26,o),
(238,-12,o),
(328,-12,cs),
(482,-12,o),
(552,120,o),
(552,265,cs),
(552,410,o),
(482,542,o),
(328,542,cs),
(238,542,o),
(179,504,o),
(154,436,c),
(166,422,l),
(166,710,l),
(80,710,l)
);
},
{
closed = 1;
nodes = (
(158,367,o),
(201,464,o),
(310,464,cs),
(420,464,o),
(462,368,o),
(462,265,cs),
(462,166,o),
(420,70,o),
(310,70,cs),
(201,70,o),
(158,167,o),
(158,265,cs)
);
}
);
width = 592;
},
{
associatedMasterId = "37DC72B3-BCF2-46ED-AAD5-F0285A86700E";
background = {
shapes = (
{
closed = 1;
nodes = (
(110,0,l),
(188,0,l),
(192,108,l),
(183,91,l),
(209,26,o),
(268,-12,o),
(358,-12,cs),
(512,-12,o),
(582,120,o),
(582,265,cs),
(582,410,o),
(512,542,o),
(358,542,cs),
(268,542,o),
(209,504,o),
(184,436,c),
(196,422,l),
(196,710,l),
(110,710,l)
);
},
{
closed = 1;
nodes = (
(188,367,o),
(231,464,o),
(340,464,cs),
(450,464,o),
(492,368,o),
(492,265,cs),
(492,166,o),
(450,70,o),
(340,70,cs),
(231,70,o),
(188,167,o),
(188,265,cs)
);
}
);
};
layerId = "254ED750-129E-49DC-ABAA-3A2C883CDBA7";
name = "24 de feb. de 23 10:21";
shapes = (
{
closed = 1;
nodes = (
(40,0,l),
(274,0,l),
(278,108,l),
(264,109,l),
(290,31,o),
(349,-12,o),
(428,-12,cs),
(566,-12,o),
(652,95,o),
(652,265,cs),
(652,435,o),
(566,542,o),
(428,542,cs),
(355,542,o),
(296,499,o),
(264,422,c),
(278,422,l),
(278,710,l),
(40,710,l)
);
},
{
closed = 1;
nodes = (
(268,337,o),
(297,382,o),
(340,382,cs),
(383,382,o),
(411,337,o),
(411,265,cs),
(411,196,o),
(379,148,o),
(340,148,cs),
(296,148,o),
(268,196,o),
(268,265,cs)
);
}
);
width = 672;
}
);
metricLeft = n;
metricRight = o;
unicode = 98;
},
{
glyphname = c;
kernLeft = o;
kernRight = o;
lastChange = "2023-07-05 17:52:13 +0000";
layers = (
{
anchors = (
{
name = bottom;
pos = (290,0);
},
{
name = top;
pos = (290,530);
}
);
layerId = m01;
shapes = (
{
closed = 1;
nodes = (
(511,358,l),
(497,472,o),
(398,542,o),
(290,542,cs),
(143,542,o),
(47,434,o),
(47,265,cs),
(47,96,o),
(143,-12,o),
(290,-12,cs),
(402,-12,o),
(499,62,o),
(516,182,c),
(425,188,l),
(413,113,o),
(356,70,o),
(290,70,cs),
(193,70,o),
(137,143,o),
(137,265,cs),
(137,387,o),
(193,460,o),
(290,460,cs),
(353,460,o),
(410,420,o),
(421,352,c)
);
}
);
width = 553;
},
{
associatedMasterId = m01;
layerId = "3DBEEC6D-03AE-45F5-AFB3-66EDF02CC97D";
name = "13 Jan 23 12:16";
shapes = (
{
closed = 1;
nodes = (
(541,360,l),
(521,279,l),
(516,443,o),
(421,546,o),
(278,546,cs),
(131,546,o),
(35,438,o),
(35,265,cs),
(35,92,o),
(131,-16,o),
(278,-16,cs),
(421,-16,o),
(516,87,o),
(521,251,c),
(544,180,l),
(405,190,l),
(431,254,l),
(428,135,o),
(372,66,o),
(278,66,cs),
(181,66,o),
(125,139,o),
(125,265,cs),
(125,391,o),
(181,464,o),
(278,464,cs),
(372,464,o),
(428,395,o),
(431,276,c),
(402,350,l)
);
}
);
width = 556;
},
{
anchors = (
{
name = bottom;
pos = (339,0);
},
{
name = top;
pos = (339,530);
}
);
background = {
shapes = (
{
closed = 1;
nodes = (
(590,360,l),
(564,340,l),
(558,464,o),
(455,542,o),
(341,542,cs),
(194,542,o),
(98,434,o),
(98,265,cs),
(98,96,o),
(194,-12,o),
(341,-12,cs),
(467,-12,o),
(574,82,o),
(569,228,c),
(593,180,l),
(454,190,l),
(478,228,l),
(483,129,o),
(418,70,o),
(341,70,cs),
(244,70,o),
(188,143,o),
(188,265,cs),
(188,387,o),
(244,460,o),
(341,460,cs),
(409,460,o),
(471,413,o),
(474,333,c),
(451,350,l)
);
}
);
};
layerId = "37DC72B3-BCF2-46ED-AAD5-F0285A86700E";
shapes = (
{
closed = 1;
nodes = (
(648,302,l),
(634,451,o),
(515,542,o),
(339,542,cs),
(152,542,o),
(28,431,o),
(28,265,cs),
(28,99,o),
(152,-12,o),
(339,-12,cs),
(519,-12,o),
(638,81,o),
(649,229,c),
(407,235,l),
(402,174,o),
(381,150,o),
(339,150,cs),
(294,150,o),
(270,190,o),
(270,265,cs),
(270,340,o),
(294,380,o),
(339,380,cs),
(378,380,o),
(400,352,o),
(406,293,c)
);
}
);
width = 667;
},
{
anchors = (
{
name = bottom;
pos = (275,0);
},
{
name = top;
pos = (275,530);
}
);
background = {
shapes = (
{
closed = 1;
nodes = (
(532,360,l),
(506,340,l),
(500,464,o),
(397,542,o),
(283,542,cs),
(136,542,o),
(40,434,o),
(40,265,cs),
(40,96,o),
(136,-12,o),
(283,-12,cs),
(409,-12,o),
(516,82,o),
(511,228,c),
(535,180,l),
(396,190,l),
(420,228,l),
(425,129,o),
(360,70,o),
(283,70,cs),
(186,70,o),
(130,143,o),
(130,265,cs),
(130,387,o),
(186,460,o),
(283,460,cs),
(351,460,o),
(413,413,o),
(416,333,c),
(393,350,l)
);
}
);
};
layerId = "EE2FFE84-06F1-4AFB-BBEC-60D09A436D14";
shapes = (
{
closed = 1;
nodes = (
(488,365,l),
(462,471,o),
(391,542,o),
(275,542,cs),
(125,542,o),
(50,415,o),
(50,265,cs),
(50,115,o),
(125,-12,o),
(275,-12,cs),
(396,-12,o),
(467,66,o),
(491,175,c),
(458,178,l),
(434,80,o),
(367,18,o),
(275,18,cs),
(157,18,o),
(82,113,o),
(82,265,cs),
(82,417,o),
(157,512,o),
(275,512,cs),
(364,512,o),
(429,455,o),
(455,363,c)
);
}
);
width = 531;
},
{
anchors = (
{
name = bottom;
pos = (283,0);
},
{
name = top;
pos = (283,530);
}
);
associatedMasterId = m01;
layerId = "2764C2B6-8DCD-4FB3-8E1C-D4E46278CB74";
name = "24 de feb. de 23 10:21";
shapes = (
{
closed = 1;
nodes = (
(532,360,l),
(506,340,l),
(500,464,o),
(397,542,o),
(283,542,cs),
(136,542,o),
(40,434,o),
(40,265,cs),
(40,96,o),
(136,-12,o),
(283,-12,cs),
(409,-12,o),
(516,82,o),
(511,228,c),
(535,180,l),
(396,190,l),
(420,228,l),
(425,129,o),
(360,70,o),
(283,70,cs),
(186,70,o),
(130,143,o),
(130,265,cs),
(130,387,o),
(186,460,o),
(283,460,cs),
(351,460,o),
(413,413,o),
(416,333,c),
(393,350,l)
);
}
);
width = 539;
}
);
metricLeft = o;
metricRight = "=o-10";
unicode = 99;
},
{
glyphname = eth;
lastChange = "2023-07-06 20:33:50 +0000";
layers = (
{
layerId = m01;
shapes = (
{
ref = partialdiff;
},
{
closed = 1;
nodes = (
(543,633,l),
(520,697,l),
(222,590,l),
(245,525,l)
);
}
);
width = 595;
},
{
layerId = "EE2FFE84-06F1-4AFB-BBEC-60D09A436D14";
shapes = (
{
ref = partialdiff;
},
{
closed = 1;
nodes = (
(560,649,l),
(550,677,l),
(252,570,l),
(262,541,l)
);
}
);
width = 610;
},
{
layerId = "37DC72B3-BCF2-46ED-AAD5-F0285A86700E";
shapes = (
{
ref = partialdiff;
},
{
closed = 1;
nodes = (
(584,650,l),
(551,723,l),
(210,561,l),
(244,489,l)
);
}
);
width = 647;
}
);
metricLeft = o;
metricRight = o;
unicode = 240;
},
{
glyphname = dcroat;
lastChange = "2023-07-06 20:33:50 +0000";
layers = (
{
layerId = m01;
shapes = (
{
ref = d;
},
{
closed = 1;
nodes = (
(329,583,l),
(582,583,l),
(582,659,l),
(329,659,l)
);
}
);
width = 657;
},
{
layerId = "EE2FFE84-06F1-4AFB-BBEC-60D09A436D14";
shapes = (
{
ref = d;
},
{
closed = 1;
nodes = (
(301,606,l),
(545,606,l),
(545,636,l),
(301,636,l)
);
}
);
width = 623;
},
{
layerId = "37DC72B3-BCF2-46ED-AAD5-F0285A86700E";
shapes = (
{
ref = d;
},
{
closed = 1;
nodes = (
(296,563,l),
(707,563,l),
(707,659,l),
(296,659,l)
);
}
);
width = 743;
}
);
metricLeft = o;
metricRight = "=d-10";
unicode = 273;
},
{
color = 8;
glyphname = e;
kernLeft = o;
kernRight = o;
lastChange = "2023-10-03 15:40:12 +0000";
layers = (
{
anchors = (
{
name = bottom;
pos = (290,0);
},
{
name = ogonek;
pos = (366,0);
},
{
name = top;
pos = (290,528);
}
);
layerId = m01;
shapes = (
{
closed = 1;
nodes = (
(47,96,o),
(143,-12,o),
(290,-12,cs),
(392,-12,o),
(482,50,o),
(513,150,c),
(421,157,l),
(397,102,o),
(346,70,o),
(290,70,cs),
(200,70,o),
(146,132,o),
(138,238,c),
(521,238,l),
(520,277,l),
(511,467,o),
(406,542,o),
(290,542,cs),
(143,542,o),
(47,434,o),
(47,265,cs)
);
},
{
closed = 1;
nodes = (
(154,406,o),
(207,460,o),
(290,460,cs),
(353,460,o),
(412,424,o),
(427,314,c),
(140,314,l)
);
}
);
width = 568;
},
{
anchors = (
{
name = bottom;
pos = (341,0);
},
{
name = ogonek;
pos = (417,0);
},
{
name = top;
pos = (341,530);
}
);
background = {
shapes = (
{
pos = (10,0);
ref = o;
}
);
};
layerId = "37DC72B3-BCF2-46ED-AAD5-F0285A86700E";
shapes = (
{
closed = 1;
nodes = (
(30,99,o),
(154,-12,o),
(341,-12,cs),
(488,-12,o),
(598,55,o),
(632,161,c),
(399,177,l),
(392,156,o),
(368,140,o),
(341,140,cs),
(303,140,o),
(277,168,o),
(277,209,c),
(638,209,l),
(639,223,l),
(652,407,o),
(528,542,o),
(341,542,cs),
(154,542,o),
(30,431,o),
(30,265,cs)
);
},
{
closed = 1;
nodes = (
(277,362,o),
(303,390,o),
(341,390,cs),
(379,390,o),
(406,362,o),
(406,321,c),
(277,321,l)
);
}
);
width = 670;
},
{
anchors = (
{
name = bottom;
pos = (331,0);
},
{
name = ogonek;
pos = (407,0);
},
{
name = top;
pos = (331,530);
}
);
associatedMasterId = "37DC72B3-BCF2-46ED-AAD5-F0285A86700E";
background = {
shapes = (
{
ref = o;
}
);
};
layerId = "610DBB92-C7F2-432B-ABF3-FE1D3DE505BA";
name = "15 Feb 23 16:01";
shapes = (
{
closed = 1;
nodes = (
(384,173,l),
(380,155,o),
(356,140,o),
(331,140,cs),
(293,140,o),
(267,168,o),
(267,209,c),
(638,209,l),
(658,405,o),
(531,542,o),
(331,542,cs),
(144,542,o),
(20,431,o),
(20,265,cs),
(20,99,o),
(144,-12,o),
(331,-12,cs),
(480,-12,o),
(591,56,o),
(623,165,c)
);
},
{
closed = 1;
nodes = (
(267,362,o),
(293,390,o),
(331,390,cs),
(369,390,o),
(396,362,o),
(396,321,c),
(267,321,l)
);
}
);
width = 662;
},
{
anchors = (
{
name = bottom;
pos = (275,0);
},
{
name = ogonek;
pos = (338,0);
},
{
name = top;
pos = (275,530);
}
);
background = {
shapes = (
{
closed = 1;
nodes = (
(395,-12,o),
(493,63,o),
(514,181,c),
(533,148,l),
(394,158,l),
(422,180,l),
(403,111,o),
(347,70,o),
(283,70,cs),
(186,70,o),
(130,143,o),
(130,265,cs),
(130,387,o),
(186,460,o),
(283,460,cs),
(355,460,o),
(421,413,o),
(424,265,c),
(514,265,l),
(508,464,o),
(401,542,o),
(283,542,cs),
(136,542,o),
(40,434,o),
(40,265,cs),
(40,96,o),
(136,-12,o),
(283,-12,cs)
);
},
{
closed = 1;
nodes = (
(514,238,l),
(514,275,l),
(509,297,l),
(463,297,l),
(463,314,l),
(84,314,l),
(84,238,l)
);
}
);
};
layerId = "EE2FFE84-06F1-4AFB-BBEC-60D09A436D14";
shapes = (
{
closed = 1;
nodes = (
(50,115,o),
(125,-12,o),
(275,-12,cs),
(373,-12,o),
(454,48,o),
(485,143,c),
(452,145,l),
(423,67,o),
(355,18,o),
(275,18,cs),
(159,18,o),
(84,110,o),
(82,258,c),
(500,258,l),
(500,265,l),
(500,415,o),
(425,542,o),
(275,542,cs),
(125,542,o),
(50,415,o),
(50,265,cs)
);
},
{
closed = 1;
nodes = (
(90,427,o),
(163,512,o),
(275,512,cs),
(387,512,o),
(460,427,o),
(467,288,c),
(83,288,l)
);
}
);
width = 550;
},
{
anchors = (
{
name = bottom;
pos = (265,0);
},
{
name = ogonek;
pos = (328,0);
},
{
name = top;
pos = (265,530);
}
);
associatedMasterId = "EE2FFE84-06F1-4AFB-BBEC-60D09A436D14";
background = {
shapes = (
{
closed = 1;
nodes = (
(395,-12,o),
(493,63,o),
(514,181,c),
(533,148,l),
(394,158,l),
(422,180,l),
(403,111,o),
(347,70,o),
(283,70,cs),
(186,70,o),
(130,143,o),
(130,265,cs),
(130,387,o),
(186,460,o),
(283,460,cs),
(355,460,o),
(421,413,o),
(424,265,c),
(514,265,l),
(508,464,o),
(401,542,o),
(283,542,cs),
(136,542,o),
(40,434,o),
(40,265,cs),
(40,96,o),
(136,-12,o),
(283,-12,cs)
);
},
{
closed = 1;
nodes = (
(514,238,l),
(514,275,l),
(509,297,l),
(463,297,l),
(463,314,l),
(84,314,l),
(84,238,l)
);
}
);
};
layerId = "E9BBF2E6-3E46-4BD2-A166-D8A1CCFF5D66";
name = "24 de feb. de 23 10:25";
shapes = (
{
closed = 1;
nodes = (
(56,258,l),
(490,258,l),
(488,288,l),
(56,288,l)
);
},
{
closed = 1;
nodes = (
(490,259,l),
(490,261,o),
(490,263,o),
(490,265,cs),
(490,415,o),
(415,542,o),
(265,542,cs),
(115,542,o),
(40,415,o),
(40,265,cs),
(40,115,o),
(115,-12,o),
(265,-12,cs),
(363,-12,o),
(444,48,o),
(475,143,c),
(442,145,l),
(413,67,o),
(345,18,o),
(265,18,cs),
(147,18,o),
(72,113,o),
(72,265,cs),
(72,417,o),
(147,512,o),
(265,512,cs),
(383,512,o),
(458,417,o),
(458,265,cs),
(458,263,o),
(458,261,o),
(458,259,c)
);
}
);
width = 525;
}
);
unicode = 101;
},
{
glyphname = f;
kernLeft = f;
kernRight = f;
lastChange = "2023-09-21 18:10:16 +0000";
layers = (
{
layerId = m01;
shapes = (
{
closed = 1;
nodes = (
(222,0,l),
(222,563,ls),
(222,607,o),
(246,634,o),
(280,634,c),
(362,634,l),
(362,710,l),
(280,710,l),
(181,710,o),
(136,652,o),
(136,563,c),
(136,0,l)
);
},
{
closed = 1;
nodes = (
(355,454,l),
(355,530,l),
(65,530,l),
(65,454,l)
);
}
);
width = 404;
},
{
background = {
shapes = (
{
closed = 1;
nodes = (
(285,0,l),
(285,563,ls),
(285,607,o),
(309,634,o),
(343,634,c),
(425,634,l),
(425,710,l),
(343,710,l),
(244,710,o),
(199,652,o),
(199,563,c),
(199,0,l)
);
},
{
closed = 1;
nodes = (
(418,454,l),
(418,530,l),
(128,530,l),
(128,454,l)
);
}
);
};
layerId = "37DC72B3-BCF2-46ED-AAD5-F0285A86700E";
shapes = (
{
closed = 1;
nodes = (
(351,0,l),
(351,494,ls),
(351,527,o),
(371,548,o),
(403,548,c),
(492,548,l),
(492,710,l),
(349,710,l),
(185,710,o),
(113,644,o),
(113,494,c),
(113,0,l)
);
},
{
closed = 1;
nodes = (
(483,317,l),
(483,479,l),
(26,479,l),
(26,317,l)
);
}
);
width = 515;
},
{
background = {
shapes = (
{
closed = 1;
nodes = (
(179,0,l),
(179,563,ls),
(179,607,o),
(203,634,o),
(237,634,c),
(319,634,l),
(319,710,l),
(237,710,l),
(138,710,o),
(93,652,o),
(93,563,c),
(93,0,l)
);
},
{
closed = 1;
nodes = (
(312,454,l),
(312,530,l),
(22,530,l),
(22,454,l)
);
}
);
};
layerId = "EE2FFE84-06F1-4AFB-BBEC-60D09A436D14";
shapes = (
{
closed = 1;
nodes = (
(179,0,l),
(179,603,ls),
(179,653,o),
(209,683,o),
(257,683,cs),
(322,683,l),
(322,710,l),
(261,710,ls),
(192,710,o),
(149,667,o),
(149,598,cs),
(149,0,l)
);
},
{
closed = 1;
nodes = (
(322,500,l),
(322,530,l),
(68,530,l),
(68,500,l)
);
}
);
width = 367;
}
);
metricLeft = "=b-20";
metricRight = "=r-5";
unicode = 102;
},
{
glyphname = g;
kernLeft = o;
lastChange = "2023-08-06 14:57:31 +0000";
layers = (
{
anchors = (
{
name = top;
pos = (286,530);
}
);
layerId = m01;
shapes = (
{
closed = 1;
nodes = (
(341,28,o),
(400,58,o),
(432,119,c),
(432,32,ls),
(432,-41,o),
(376,-80,o),
(283,-80,cs),
(218,-80,o),
(173,-51,o),
(151,-2,c),
(61,-8,l),
(86,-101,o),
(170,-162,o),
(283,-162,cs),
(422,-162,o),
(518,-88,o),
(518,52,cs),
(518,530,l),
(436,530,l),
(436,448,l),
(413,504,o),
(356,542,o),
(286,542,cs),
(143,542,o),
(47,434,o),
(47,285,cs),
(47,136,o),
(140,28,o),
(286,28,cs)
);
},
{
closed = 1;
nodes = (
(137,387,o),
(193,460,o),
(286,460,cs),
(379,460,o),
(435,387,o),
(433,285,cs),
(432,183,o),
(376,110,o),
(286,110,cs),
(193,110,o),
(137,183,o),
(137,285,cs)
);
}
);
width = 603;
},
{
associatedMasterId = m01;
layerId = "701979C2-7286-41A3-ADAE-002FDDF7A2A8";
name = "11 Jan 23 12:59";
shapes = (
{
closed = 1;
nodes = (
(420,32,o),
(516,140,o),
(516,291,cs),
(516,442,o),
(420,550,o),
(273,550,cs),
(126,550,o),
(30,442,o),
(30,291,cs),
(30,140,o),
(126,32,o),
(273,32,cs)
);
},
{
closed = 1;
nodes = (
(176,114,o),
(120,187,o),
(120,291,cs),
(120,395,o),
(176,468,o),
(273,468,cs),
(370,468,o),
(426,395,o),
(426,291,cs),
(426,187,o),
(370,114,o),
(273,114,cs)
);
},
{
closed = 1;
nodes = (
(516,530,l),
(426,530,l),
(426,36,l),
(426,-45,o),
(370,-88,o),
(273,-88,cs),
(204,-88,o),
(160,-55,o),
(140,5,c),
(50,5,l),
(70,-102,o),
(154,-170,o),
(273,-170,cs),
(420,-170,o),
(516,-92,o),
(516,36,c)
);
}
);
width = 546;
},
{
anchors = (
{
name = top;
pos = (344,530);
}
);
background = {
shapes = (
{
closed = 1;
nodes = (
(352,28,o),
(422,70,o),
(447,154,c),
(433,154,l),
(433,32,ls),
(433,-41,o),
(377,-80,o),
(284,-80,cs),
(203,-80,o),
(154,-35,o),
(140,38,c),
(176,0,l),
(36,-10,l),
(54,37,l),
(62,-80,o),
(153,-162,o),
(284,-162,cs),
(423,-162,o),
(519,-88,o),
(519,52,cs),
(519,530,l),
(437,530,l),
(437,406,l),
(447,406,l),
(440,485,o),
(373,542,o),
(287,542,cs),
(144,542,o),
(48,434,o),
(48,285,cs),
(48,136,o),
(141,28,o),
(287,28,cs)
);
},
{
closed = 1;
nodes = (
(138,387,o),
(194,460,o),
(287,460,cs),
(380,460,o),
(436,387,o),
(434,285,cs),
(433,183,o),
(377,110,o),
(287,110,cs),
(194,110,o),
(138,183,o),
(138,285,cs)
);
}
);
};
layerId = "37DC72B3-BCF2-46ED-AAD5-F0285A86700E";
shapes = (
{
closed = 1;
nodes = (
(315,20,o),
(375,47,o),
(399,86,c),
(399,70,ls),
(399,3,o),
(380,-26,o),
(338,-26,cs),
(311,-26,o),
(288,-15,o),
(283,-1,c),
(45,-17,l),
(83,-105,o),
(195,-161,o),
(335,-161,cs),
(514,-161,o),
(640,-62,o),
(640,80,cs),
(640,530,l),
(402,530,l),
(402,451,l),
(368,510,o),
(315,542,o),
(252,542,cs),
(114,542,o),
(28,435,o),
(28,265,cs),
(28,114,o),
(114,20,o),
(252,20,cs)
);
},
{
closed = 1;
nodes = (
(269,340,o),
(297,385,o),
(340,385,cs),
(383,385,o),
(412,340,o),
(412,268,cs),
(412,199,o),
(384,151,o),
(340,151,cs),
(301,151,o),
(269,199,o),
(269,268,cs)
);
}
);
width = 686;
},
{
anchors = (
{
name = top;
pos = (271,530);
}
);
background = {
shapes = (
{
closed = 1;
nodes = (
(331,28,o),
(401,70,o),
(426,154,c),
(412,154,l),
(412,32,ls),
(412,-41,o),
(356,-80,o),
(263,-80,cs),
(182,-80,o),
(133,-35,o),
(119,38,c),
(155,0,l),
(15,-10,l),
(33,37,l),
(41,-80,o),
(132,-162,o),
(263,-162,cs),
(402,-162,o),
(498,-88,o),
(498,52,cs),
(498,530,l),
(416,530,l),
(416,406,l),
(426,406,l),
(419,485,o),
(352,542,o),
(266,542,cs),
(123,542,o),
(27,434,o),
(27,285,cs),
(27,136,o),
(120,28,o),
(266,28,cs)
);
},
{
closed = 1;
nodes = (
(117,387,o),
(173,460,o),
(266,460,cs),
(359,460,o),
(415,387,o),
(413,285,cs),
(412,183,o),
(356,110,o),
(266,110,cs),
(173,110,o),
(117,183,o),
(117,285,cs)
);
}
);
};
layerId = "EE2FFE84-06F1-4AFB-BBEC-60D09A436D14";
shapes = (
{
closed = 1;
nodes = (
(349,25,o),
(421,78,o),
(455,159,c),
(455,57,ls),
(455,-59,o),
(385,-133,o),
(276,-133,cs),
(182,-133,o),
(113,-80,o),
(108,-4,c),
(76,-6,l),
(76,-94,o),
(164,-163,o),
(276,-163,cs),
(404,-163,o),
(485,-78,o),
(485,57,cs),
(485,530,l),
(455,530,l),
(455,402,l),
(427,482,o),
(351,539,o),
(271,539,cs),
(135,539,o),
(50,433,o),
(50,285,cs),
(50,132,o),
(135,25,o),
(271,25,cs)
);
},
{
closed = 1;
nodes = (
(82,415,o),
(155,509,o),
(271,509,cs),
(376,509,o),
(458,402,o),
(458,285,cs),
(458,163,o),
(376,55,o),
(271,55,cs),
(155,55,o),
(82,150,o),
(82,285,cs)
);
}
);
width = 573;
},
{
anchors = (
{
name = top;
pos = (279,530);
}
);
associatedMasterId = m01;
layerId = "155BF911-E1FB-4703-88C2-8F7FEE013B40";
name = "24 de feb. de 23 10:34";
shapes = (
{
closed = 1;
nodes = (
(344,28,o),
(414,70,o),
(439,154,c),
(425,154,l),
(425,32,ls),
(425,-41,o),
(369,-80,o),
(276,-80,cs),
(195,-80,o),
(146,-35,o),
(132,38,c),
(168,0,l),
(28,-10,l),
(46,37,l),
(54,-80,o),
(145,-162,o),
(276,-162,cs),
(415,-162,o),
(511,-88,o),
(511,52,cs),
(511,530,l),
(429,530,l),
(429,406,l),
(439,406,l),
(432,485,o),
(365,542,o),
(279,542,cs),
(136,542,o),
(40,434,o),
(40,285,cs),
(40,136,o),
(133,28,o),
(279,28,cs)
);
},
{
closed = 1;
nodes = (
(130,387,o),
(186,460,o),
(279,460,cs),
(372,460,o),
(428,387,o),
(426,285,cs),
(425,183,o),
(369,110,o),
(279,110,cs),
(186,110,o),
(130,183,o),
(130,285,cs)
);
}
);
width = 591;
}
);
metricLeft = o;
metricRight = d;
unicode = 103;
},
{
glyphname = h;
kernLeft = n;
kernRight = n;
lastChange = "2023-07-05 17:52:13 +0000";
layers = (
{
anchors = (
{
name = top;
pos = (128,710);
}
);
background = {
shapes = (
{
closed = 1;
nodes = (
(170,338,ls),
(170,399,o),
(245,482,o),
(311,482,qs),
(371,482,o),
(423,411,o),
(423,340,qs),
(423,0,l),
(509,0,l),
(509,351,ls),
(509,444,o),
(412,550,o),
(325,550,qs),
(275,550,o),
(191,503,o),
(170,469,q),
(170,501,l),
(170,700,l),
(85,700,l),
(85,0,l),
(170,0,l)
);
}
);
};
layerId = m01;
shapes = (
{
closed = 1;
nodes = (
(85,0,l),
(171,0,l),
(171,311,ls),
(171,408,o),
(226,460,o),
(310,460,cs),
(389,460,o),
(421,408,o),
(421,311,cs),
(421,0,l),
(507,0,l),
(507,341,ls),
(507,453,o),
(449,542,o),
(328,542,cs),
(253,542,o),
(182,507,o),
(158,429,c),
(171,414,l),
(171,710,l),
(85,710,l)
);
}
);
width = 586;
},
{
associatedMasterId = m01;
background = {
shapes = (
{
closed = 1;
nodes = (
(150,338,ls),
(150,399,o),
(225,482,o),
(291,482,qs),
(351,482,o),
(403,411,o),
(403,340,qs),
(403,0,l),
(489,0,l),
(489,351,ls),
(489,444,o),
(392,550,o),
(305,550,qs),
(255,550,o),
(171,503,o),
(150,469,q),
(150,501,l),
(150,700,l),
(65,700,l),
(65,0,l),
(150,0,l)
);
}
);
};
layerId = "66CA29C3-6D4F-4A18-BC83-537BB95DF157";
name = "20 Jan 23 12:42";
shapes = (
{
closed = 1;
nodes = (
(65,0,l),
(151,0,l),
(151,710,l),
(65,710,l)
);
},
{
closed = 1;
nodes = (
(401,0,l),
(487,0,l),
(487,341,ls),
(487,453,o),
(429,542,o),
(308,542,cs),
(210,542,o),
(122,483,o),
(130,350,c),
(151,311,l),
(151,408,o),
(206,460,o),
(290,460,cs),
(369,460,o),
(401,408,o),
(401,311,cs)
);
}
);
width = 547;
},
{
anchors = (
{
name = top;
pos = (165,710);
}
);
layerId = "37DC72B3-BCF2-46ED-AAD5-F0285A86700E";
shapes = (
{
closed = 1;
nodes = (
(46,0,l),
(284,0,l),
(284,257,ls),
(284,324,o),
(289,364,o),
(325,364,cs),
(366,364,o),
(366,324,o),
(366,257,cs),
(366,0,l),
(604,0,l),
(604,341,ls),
(604,462,o),
(533,542,o),
(427,542,cs),
(331,542,o),
(259,500,o),
(249,347,c),
(284,397,l),
(284,710,l),
(46,710,l)
);
}
);
width = 644;
},
{
anchors = (
{
name = top;
pos = (103,710);
}
);
background = {
shapes = (
{
closed = 1;
nodes = (
(42,0,l),
(128,0,l),
(128,317,ls),
(128,414,o),
(183,466,o),
(267,466,cs),
(346,466,o),
(378,414,o),
(378,317,cs),
(378,0,l),
(464,0,l),
(464,341,ls),
(464,453,o),
(406,542,o),
(285,542,cs),
(202,542,o),
(133,500,o),
(113,407,c),
(124,395,l),
(120,530,l),
(42,530,l)
);
}
);
};
layerId = "EE2FFE84-06F1-4AFB-BBEC-60D09A436D14";
shapes = (
{
closed = 1;
nodes = (
(88,0,l),
(118,0,l),
(118,317,ls),
(118,431,o),
(181,512,o),
(292,512,cs),
(401,512,o),
(444,432,o),
(444,317,cs),
(444,0,l),
(474,0,l),
(474,341,ls),
(474,453,o),
(415,542,o),
(300,542,cs),
(204,542,o),
(121,494,o),
(114,385,c),
(118,385,l),
(118,710,l),
(88,710,l)
);
}
);
width = 556;
}
);
metricLeft = n;
metricRight = n;
unicode = 104;
},
{
glyphname = hbar;
lastChange = "2023-05-31 13:13:34 +0000";
layers = (
{
layerId = m01;
shapes = (
{
ref = h;
},
{
closed = 1;
nodes = (
(25,583,l),
(279,583,l),
(279,659,l),
(25,659,l)
);
}
);
width = 572;
},
{
layerId = "EE2FFE84-06F1-4AFB-BBEC-60D09A436D14";
shapes = (
{
ref = h;
},
{
closed = 1;
nodes = (
(25,606,l),
(269,606,l),
(269,636,l),
(25,636,l)
);
}
);
width = 536;
},
{
layerId = "37DC72B3-BCF2-46ED-AAD5-F0285A86700E";
shapes = (
{
ref = h;
},
{
closed = 1;
nodes = (
(-22,563,l),
(389,563,l),
(389,659,l),
(-22,659,l)
);
}
);
width = 638;
}
);
unicode = 295;
},
{
glyphname = i;
kernLeft = n;
kernRight = d;
lastChange = "2023-08-10 19:47:55 +0000";
layers = (
{
layerId = m01;
shapes = (
{
ref = idotless;
},
{
pos = (36,0);
ref = dotaccentcomb;
}
);
width = 256;
},
{
associatedMasterId = m01;
layerId = "6DF59896-6238-47AA-ACD3-EA681A384F79";
name = "13 Jan 23 11:49";
shapes = (
{
closed = 1;
nodes = (
(60,0,l),
(146,0,l),
(146,530,l),
(60,530,l)
);
},
{
closed = 1;
nodes = (
(150,608,l),
(150,690,l),
(56,690,l),
(56,608,l)
);
}
);
width = 206;
},
{
layerId = "37DC72B3-BCF2-46ED-AAD5-F0285A86700E";
shapes = (
{
ref = idotless;
},
{
pos = (15,0);
ref = dotaccentcomb;
}
);
width = 330;
},
{
layerId = "EE2FFE84-06F1-4AFB-BBEC-60D09A436D14";
shapes = (
{
ref = idotless;
},
{
pos = (36,0);
ref = dotaccentcomb;
}
);
width = 206;
}
);
unicode = 105;
},
{
glyphname = idotless;
lastChange = "2023-07-06 20:33:50 +0000";
layers = (
{
anchors = (
{
name = ogonek;
pos = (171,0);
},
{
name = top;
pos = (128,530);
}
);
layerId = m01;
shapes = (
{
closed = 1;
nodes = (
(85,0,l),
(171,0,l),
(171,530,l),
(85,530,l)
);
}
);
width = 256;
},
{
anchors = (
{
name = ogonek;
pos = (284,0);
},
{
name = top;
pos = (165,530);
}
);
layerId = "37DC72B3-BCF2-46ED-AAD5-F0285A86700E";
shapes = (
{
closed = 1;
nodes = (
(46,0,l),
(284,0,l),
(284,530,l),
(46,530,l)
);
}
);
width = 330;
},
{
anchors = (
{
name = ogonek;
pos = (118,0);
},
{
name = top;
pos = (103,530);
}
);
layerId = "EE2FFE84-06F1-4AFB-BBEC-60D09A436D14";
shapes = (
{
closed = 1;
nodes = (
(88,0,l),
(118,0,l),
(118,530,l),
(88,530,l)
);
}
);
width = 206;
}
);
metricLeft = n;
metricRight = d;
unicode = 305;
},
{
glyphname = j;
kernLeft = j;
kernRight = d;
lastChange = "2023-07-05 17:52:29 +0000";
layers = (
{
layerId = m01;
shapes = (
{
ref = jdotless;
},
{
pos = (46,0);
ref = dotaccentcomb;
}
);
width = 260;
},
{
background = {
shapes = (
{
closed = 1;
nodes = (
(277,530,l),
(277,-3,ls),
(277,-46,o),
(254,-74,o),
(219,-74,cs),
(177,-74,l),
(177,-150,l),
(229,-150,ls),
(318,-150,o),
(363,-92,o),
(363,-3,cs),
(363,530,l)
);
}
);
};
layerId = "37DC72B3-BCF2-46ED-AAD5-F0285A86700E";
shapes = (
{
ref = jdotless;
},
{
pos = (168,0);
ref = dotaccentcomb;
}
);
width = 477;
},
{
layerId = "EE2FFE84-06F1-4AFB-BBEC-60D09A436D14";
shapes = (
{
ref = jdotless;
},
{
pos = (63,0);
ref = dotaccentcomb;
}
);
width = 227;
}
);
unicode = 106;
},
{
glyphname = jdotless;
lastChange = "2023-07-05 17:52:13 +0000";
layers = (
{
anchors = (
{
name = top;
pos = (138,530);
}
);
layerId = m01;
shapes = (
{
closed = 1;
nodes = (
(95,530,l),
(95,-3,ls),
(95,-46,o),
(72,-74,o),
(37,-74,cs),
(-5,-74,l),
(-5,-150,l),
(47,-150,ls),
(136,-150,o),
(181,-92,o),
(181,-3,cs),
(181,530,l)
);
}
);
width = 260;
},
{
anchors = (
{
name = top;
pos = (318,530);
}
);
layerId = "37DC72B3-BCF2-46ED-AAD5-F0285A86700E";
shapes = (
{
closed = 1;
nodes = (
(199,530,l),
(199,66,ls),
(199,33,o),
(179,12,o),
(147,12,c),
(58,12,l),
(58,-150,l),
(201,-150,l),
(365,-150,o),
(437,-84,o),
(437,66,c),
(437,530,l)
);
}
);
width = 477;
},
{
anchors = (
{
name = top;
pos = (130,530);
}
);
background = {
shapes = (
{
closed = 1;
nodes = (
(130,530,l),
(130,-3,ls),
(130,-46,o),
(107,-74,o),
(72,-74,cs),
(30,-74,l),
(30,-150,l),
(82,-150,ls),
(171,-150,o),
(216,-92,o),
(216,-3,cs),
(216,530,l)
);
}
);
};
layerId = "EE2FFE84-06F1-4AFB-BBEC-60D09A436D14";
shapes = (
{
closed = 1;
nodes = (
(115,530,l),
(115,-3,ls),
(115,-93,o),
(99,-123,o),
(21,-123,cs),
(-5,-123,l),
(-5,-150,l),
(21,-150,ls),
(111,-150,o),
(145,-109,o),
(145,-3,cs),
(145,530,l)
);
}
);
width = 227;
}
);
metricRight = n;
unicode = 567;
},
{
glyphname = k;
kernLeft = n;
kernRight = x;
lastChange = "2023-08-18 14:55:15 +0000";
layers = (
{
anchors = (
{
name = bottom;
pos = (303,0);
}
);
layerId = m01;
shapes = (
{
closed = 1;
nodes = (
(85,0,l),
(171,0,l),
(171,135,l),
(273,246,l),
(443,0,l),
(549,0,l),
(332,305,l),
(539,530,l),
(422,530,l),
(171,247,l),
(171,710,l),
(85,710,l)
);
}
);
width = 596;
},
{
anchors = (
{
name = bottom;
pos = (344,0);
}
);
background = {
shapes = (
{
closed = 1;
nodes = (
(96,0,l),
(182,0,l),
(182,710,l),
(96,710,l)
);
},
{
closed = 1;
nodes = (
(560,0,l),
(337,314,l),
(318,278,l),
(550,530,l),
(433,530,l),
(128,186,l),
(128,59,l),
(304,265,l),
(272,265,l),
(454,0,l)
);
}
);
};
layerId = "37DC72B3-BCF2-46ED-AAD5-F0285A86700E";
shapes = (
{
closed = 1;
nodes = (
(46,0,l),
(284,0,l),
(284,167,l),
(317,202,l),
(434,0,l),
(678,0,l),
(463,324,l),
(669,530,l),
(407,530,l),
(284,406,l),
(284,710,l),
(46,710,l)
);
}
);
width = 723;
},
{
anchors = (
{
name = bottom;
pos = (302,0);
}
);
background = {
shapes = (
{
closed = 1;
nodes = (
(42,0,l),
(128,0,l),
(128,710,l),
(42,710,l)
);
},
{
closed = 1;
nodes = (
(506,0,l),
(283,314,l),
(264,278,l),
(496,530,l),
(379,530,l),
(74,186,l),
(74,59,l),
(250,265,l),
(218,265,l),
(400,0,l)
);
}
);
};
layerId = "EE2FFE84-06F1-4AFB-BBEC-60D09A436D14";
shapes = (
{
closed = 1;
nodes = (
(88,0,l),
(118,0,l),
(118,156,l),
(248,283,l),
(487,0,l),
(524,0,l),
(268,301,l),
(504,530,l),
(462,530,l),
(118,195,l),
(118,710,l),
(88,710,l)
);
}
);
width = 574;
},
{
anchors = (
{
name = bottom;
pos = (298,0);
}
);
associatedMasterId = m01;
layerId = "A0CB8DD8-31A6-472E-9C9E-D0774D5433D0";
name = "24 de feb. de 23 10:41";
shapes = (
{
closed = 1;
nodes = (
(80,0,l),
(166,0,l),
(166,710,l),
(80,710,l)
);
},
{
closed = 1;
nodes = (
(544,0,l),
(321,314,l),
(302,278,l),
(534,530,l),
(417,530,l),
(112,186,l),
(112,59,l),
(288,265,l),
(256,265,l),
(438,0,l)
);
}
);
width = 574;
},
{
anchors = (
{
name = bottom;
pos = (274,0);
},
{
name = top;
pos = (274,530);
}
);
associatedMasterId = "EE2FFE84-06F1-4AFB-BBEC-60D09A436D14";
background = {
shapes = (
{
closed = 1;
nodes = (
(42,0,l),
(128,0,l),
(128,710,l),
(42,710,l)
);
},
{
closed = 1;
nodes = (
(506,0,l),
(283,314,l),
(264,278,l),
(496,530,l),
(379,530,l),
(74,186,l),
(74,59,l),
(250,265,l),
(218,265,l),
(400,0,l)
);
}
);
};
layerId = "057BC141-43A0-44B5-9F16-EF09775895DB";
name = "24 de feb. de 23 10:41";
shapes = (
{
closed = 1;
nodes = (
(60,0,l),
(90,0,l),
(90,710,l),
(60,710,l)
);
},
{
closed = 1;
nodes = (
(476,530,l),
(434,530,l),
(74,179,l),
(74,141,l)
);
},
{
closed = 1;
nodes = (
(211,294,l),
(459,0,l),
(496,0,l),
(229,314,l)
);
}
);
width = 536;
}
);
metricLeft = n;
metricRight = x;
unicode = 107;
},
{
glyphname = l;
kernLeft = l;
kernRight = l;
lastChange = "2023-09-21 18:06:19 +0000";
layers = (
{
associatedMasterId = m01;
layerId = "0B125F15-0C99-41E6-BE85-84B554DCDCC5";
name = "11 Jan 23 17:26";
shapes = (
{
closed = 1;
nodes = (
(55,93,l),
(55,34,o),
(96,-7,o),
(155,-7,cs),
(179,-7,o),
(187,-6,o),
(215,0,c),
(215,75,l),
(199,73,o),
(186,73,o),
(177,73,cs),
(153,73,o),
(141,93,o),
(141,117,cs),
(141,710,l),
(55,710,l)
);
}
);
width = 220;
},
{
associatedMasterId = m01;
layerId = "6CED9564-E4CE-4A11-A954-66260A710CB2";
name = "13 Jan 23 10:18";
shapes = (
{
closed = 1;
nodes = (
(60,0,l),
(146,0,l),
(146,710,l),
(60,710,l)
);
}
);
width = 206;
},
{
anchors = (
{
name = bottom;
pos = (173,0);
},
{
name = top;
pos = (129,710);
}
);
background = {
shapes = (
{
closed = 1;
nodes = (
(87,720,l),
(87,119,ls),
(87,43,o),
(131,0,o),
(214,0,cs),
(252,0,l),
(252,66,l),
(183,66,l),
(175,74,l),
(175,720,l)
);
}
);
};
layerId = m01;
name = Regular;
shapes = (
{
closed = 1;
nodes = (
(87,104,l),
(87,42,o),
(129,0,o),
(191,0,c),
(251,0,l),
(251,76,l),
(205,76,l),
(183,76,o),
(173,86,o),
(173,108,cs),
(173,710,l),
(87,710,l)
);
}
);
width = 291;
},
{
associatedMasterId = m01;
layerId = "80F7260F-2483-4CCF-B552-8C2FA491765E";
name = "13 Jan 23 10:18";
shapes = (
{
closed = 1;
nodes = (
(55,74,l),
(55,25,o),
(80,0,o),
(129,0,c),
(201,0,l),
(201,76,l),
(173,76,l),
(151,76,o),
(141,86,o),
(141,108,cs),
(141,710,l),
(55,710,l)
);
}
);
width = 211;
},
{
anchors = (
{
name = bottom;
pos = (230,0);
},
{
name = top;
pos = (187,710);
}
);
background = {
shapes = (
{
closed = 1;
nodes = (
(220,104,l),
(220,42,o),
(262,0,o),
(324,0,c),
(384,0,l),
(384,76,l),
(338,76,l),
(316,76,o),
(306,86,o),
(306,108,cs),
(306,710,l),
(220,710,l)
);
}
);
};
layerId = "37DC72B3-BCF2-46ED-AAD5-F0285A86700E";
shapes = (
{
closed = 1;
nodes = (
(68,206,l),
(68,68,o),
(150,0,o),
(274,0,c),
(385,0,l),
(385,162,l),
(358,162,l),
(326,162,o),
(306,183,o),
(306,216,cs),
(306,710,l),
(68,710,l)
);
}
);
width = 409;
},
{
anchors = (
{
name = bottom;
pos = (149,0);
},
{
name = top;
pos = (105,710);
}
);
background = {
shapes = (
{
closed = 1;
nodes = (
(58,104,l),
(58,42,o),
(100,0,o),
(162,0,c),
(222,0,l),
(222,76,l),
(176,76,l),
(154,76,o),
(144,86,o),
(144,108,cs),
(144,710,l),
(58,710,l)
);
}
);
};
layerId = "EE2FFE84-06F1-4AFB-BBEC-60D09A436D14";
shapes = (
{
closed = 1;
nodes = (
(90,80,l),
(90,27,o),
(121,0,o),
(184,0,c),
(208,0,l),
(208,27,l),
(176,27,l),
(140,27,o),
(120,46,o),
(120,80,cs),
(120,710,l),
(90,710,l)
);
}
);
width = 248;
}
);
metricLeft = u;
unicode = 108;
},
{
glyphname = lcaron;
lastChange = "2023-07-06 20:45:59 +0000";
layers = (
{
guides = (
{
pos = (-29,180);
},
{
pos = (373,739);
}
);
layerId = m01;
shapes = (
{
alignment = -1;
ref = l;
},
{
alignment = -1;
pos = (158,-1);
ref = caroncomb.alt;
}
);
width = 410;
},
{
background = {
shapes = (
{
closed = 1;
nodes = (
(27,710,l),
(27,402,l),
(-1,482,o),
(-77,539,o),
(-157,539,cs),
(-293,539,o),
(-378,433,o),
(-378,265,cs),
(-378,95,o),
(-293,-12,o),
(-157,-12,cs),
(-77,-12,o),
(-4,43,o),
(32,130,c),
(35,0,l),
(57,0,l),
(57,710,l)
);
},
{
closed = 1;
nodes = (
(30,126,o),
(-52,17,o),
(-157,17,cs),
(-273,17,o),
(-346,113,o),
(-346,265,cs),
(-346,415,o),
(-273,509,o),
(-157,509,cs),
(-52,509,o),
(30,402,o),
(30,265,cs)
);
},
{
pos = (76,0);
ref = caroncomb.alt;
}
);
};
layerId = "EE2FFE84-06F1-4AFB-BBEC-60D09A436D14";
shapes = (
{
alignment = -1;
ref = l;
},
{
alignment = -1;
pos = (97,0);
ref = caroncomb.alt;
}
);
width = 303;
},
{
layerId = "37DC72B3-BCF2-46ED-AAD5-F0285A86700E";
shapes = (
{
alignment = -1;
ref = l;
},
{
alignment = -1;
pos = (318,-1);
ref = caroncomb.alt;
}
);
width = 600;
}
);
metricLeft = l;
metricRight = o;
unicode = 318;
},
{
glyphname = lslash;
lastChange = "2023-07-06 20:45:59 +0000";
layers = (
{
layerId = m01;
shapes = (
{
pos = (85,0);
ref = l;
},
{
closed = 1;
nodes = (
(119,303,l),
(345,407,l),
(313,476,l),
(87,372,l)
);
}
);
width = 385;
},
{
layerId = "EE2FFE84-06F1-4AFB-BBEC-60D09A436D14";
shapes = (
{
pos = (98,0);
ref = l;
},
{
closed = 1;
nodes = (
(103,331,l),
(313,427,l),
(300,454,l),
(90,358,l)
);
}
);
width = 353;
},
{
layerId = "37DC72B3-BCF2-46ED-AAD5-F0285A86700E";
shapes = (
{
pos = (78,0);
ref = l;
},
{
closed = 1;
nodes = (
(93,301,l),
(468,401,l),
(443,493,l),
(68,393,l)
);
}
);
width = 492;
}
);
metricLeft = l;
metricRight = l;
unicode = 322;
},
{
glyphname = m;
kernLeft = n;
kernRight = n;
lastChange = "2023-08-06 15:03:26 +0000";
layers = (
{
anchors = (
{
name = bottom;
pos = (444,0);
},
{
name = top;
pos = (444,530);
}
);
layerId = m01;
shapes = (
{
closed = 1;
nodes = (
(85,0,l),
(171,0,l),
(171,317,ls),
(171,410,o),
(219,466,o),
(300,466,cs),
(363,466,o),
(401,410,o),
(401,317,cs),
(401,0,l),
(487,0,l),
(487,317,ls),
(487,412,o),
(534,466,o),
(616,466,cs),
(680,466,o),
(717,412,o),
(717,317,cs),
(717,0,l),
(803,0,l),
(803,341,ls),
(803,469,o),
(741,542,o),
(634,542,cs),
(551,542,o),
(496,503,o),
(473,432,c),
(450,502,o),
(395,542,o),
(318,542,cs),
(245,542,o),
(191,506,o),
(166,442,c),
(163,530,l),
(85,530,l)
);
}
);
width = 882;
},
{
associatedMasterId = m01;
layerId = "73F81D87-2B6A-410E-8612-D6F0002C5C10";
name = "20 Jan 23 12:43";
shapes = (
{
closed = 1;
nodes = (
(65,0,l),
(151,0,l),
(151,404,l),
(147,404,l),
(143,530,l),
(65,530,l)
);
},
{
closed = 1;
nodes = (
(381,0,l),
(467,0,l),
(467,345,ls),
(467,471,o),
(404,546,o),
(298,546,cs),
(193,546,o),
(130,474,o),
(130,354,c),
(151,321,l),
(151,414,o),
(199,470,o),
(280,470,cs),
(343,470,o),
(381,414,o),
(381,321,cs)
);
},
{
closed = 1;
nodes = (
(697,0,l),
(783,0,l),
(783,345,ls),
(783,473,o),
(721,546,o),
(614,546,cs),
(503,546,o),
(442,476,o),
(442,354,c),
(467,321,l),
(467,416,o),
(514,470,o),
(596,470,cs),
(660,470,o),
(697,416,o),
(697,321,cs)
);
}
);
width = 843;
},
{
anchors = (
{
name = bottom;
pos = (465,0);
},
{
name = top;
pos = (465,530);
}
);
background = {
shapes = (
{
closed = 1;
nodes = (
(106,0,l),
(192,0,l),
(192,317,ls),
(192,410,o),
(240,466,o),
(321,466,cs),
(384,466,o),
(422,410,o),
(422,317,cs),
(422,0,l),
(508,0,l),
(508,317,ls),
(508,412,o),
(555,466,o),
(637,466,cs),
(701,466,o),
(738,412,o),
(738,317,cs),
(738,0,l),
(824,0,l),
(824,341,ls),
(824,469,o),
(762,542,o),
(655,542,cs),
(560,542,o),
(502,491,o),
(486,400,c),
(502,399,l),
(487,489,o),
(427,542,o),
(339,542,cs),
(254,542,o),
(195,494,o),
(178,410,c),
(189,397,l),
(184,530,l),
(106,530,l)
);
}
);
};
layerId = "37DC72B3-BCF2-46ED-AAD5-F0285A86700E";
shapes = (
{
closed = 1;
nodes = (
(46,0,l),
(284,0,l),
(284,257,ls),
(284,331,o),
(292,364,o),
(325,364,cs),
(360,364,o),
(366,337,o),
(366,257,cs),
(366,0,l),
(564,0,l),
(564,257,ls),
(564,331,o),
(572,364,o),
(605,364,cs),
(639,364,o),
(646,334,o),
(646,257,cs),
(646,0,l),
(884,0,l),
(884,341,ls),
(884,478,o),
(805,542,o),
(697,542,cs),
(637,542,o),
(582,509,o),
(550,435,c),
(526,502,o),
(475,542,o),
(405,542,cs),
(343,542,o),
(292,509,o),
(263,453,c),
(258,530,l),
(46,530,l)
);
}
);
width = 924;
},
{
anchors = (
{
name = bottom;
pos = (423,0);
},
{
name = top;
pos = (423,530);
}
);
background = {
shapes = (
{
closed = 1;
nodes = (
(31,0,l),
(117,0,l),
(117,317,ls),
(117,410,o),
(165,466,o),
(246,466,cs),
(309,466,o),
(347,410,o),
(347,317,cs),
(347,0,l),
(433,0,l),
(433,317,ls),
(433,412,o),
(480,466,o),
(562,466,cs),
(626,466,o),
(663,412,o),
(663,317,cs),
(663,0,l),
(749,0,l),
(749,341,ls),
(749,469,o),
(687,542,o),
(580,542,cs),
(485,542,o),
(427,491,o),
(411,400,c),
(427,399,l),
(412,489,o),
(352,542,o),
(264,542,cs),
(179,542,o),
(120,494,o),
(103,410,c),
(114,397,l),
(109,530,l),
(31,530,l)
);
}
);
};
layerId = "EE2FFE84-06F1-4AFB-BBEC-60D09A436D14";
shapes = (
{
closed = 1;
nodes = (
(88,0,l),
(118,0,l),
(118,317,ls),
(118,426,o),
(190,512,o),
(283,512,cs),
(362,512,o),
(408,437,o),
(408,317,cs),
(408,0,l),
(438,0,l),
(438,308,ls),
(438,422,o),
(510,512,o),
(602,512,cs),
(683,512,o),
(734,436,o),
(734,314,cs),
(734,0,l),
(764,0,l),
(764,338,ls),
(764,458,o),
(699,542,o),
(606,542,cs),
(522,542,o),
(453,487,o),
(431,399,c),
(413,487,o),
(358,542,o),
(289,542,cs),
(205,542,o),
(136,488,o),
(118,415,c),
(116,530,l),
(88,530,l)
);
}
);
width = 846;
},
{
associatedMasterId = "EE2FFE84-06F1-4AFB-BBEC-60D09A436D14";
background = {
shapes = (
{
closed = 1;
nodes = (
(11,0,l),
(97,0,l),
(97,317,ls),
(97,410,o),
(145,466,o),
(226,466,cs),
(289,466,o),
(327,410,o),
(327,317,cs),
(327,0,l),
(413,0,l),
(413,317,ls),
(413,412,o),
(460,466,o),
(542,466,cs),
(606,466,o),
(643,412,o),
(643,317,cs),
(643,0,l),
(729,0,l),
(729,341,ls),
(729,469,o),
(667,542,o),
(560,542,cs),
(465,542,o),
(407,491,o),
(391,400,c),
(407,399,l),
(392,489,o),
(332,542,o),
(244,542,cs),
(159,542,o),
(100,494,o),
(83,410,c),
(94,397,l),
(89,530,l),
(11,530,l)
);
}
);
};
layerId = "09ED80C9-A39B-4FA7-92C4-302824AFB0B4";
name = "8 de feb. de 23 15:09";
shapes = (
{
closed = 1;
nodes = (
(40,0,l),
(70,0,l),
(70,317,ls),
(70,426,o),
(142,512,o),
(235,512,cs),
(314,512,o),
(360,437,o),
(360,317,cs),
(360,0,l),
(390,0,l),
(390,341,ls),
(390,459,o),
(327,542,o),
(238,542,cs),
(154,542,o),
(88,488,o),
(70,415,c),
(68,530,l),
(40,530,l)
);
},
{
closed = 1;
nodes = (
(390,308,l),
(390,422,o),
(462,512,o),
(554,512,cs),
(635,512,o),
(686,436,o),
(686,314,cs),
(686,0,l),
(716,0,l),
(716,338,ls),
(716,458,o),
(651,542,o),
(558,542,cs),
(473,542,o),
(406,486,o),
(384,397,c)
);
}
);
width = 756;
},
{
anchors = (
{
name = bottom;
pos = (459,0);
},
{
name = top;
pos = (459,530);
}
);
associatedMasterId = "37DC72B3-BCF2-46ED-AAD5-F0285A86700E";
background = {
shapes = (
{
closed = 1;
nodes = (
(100,0,l),
(186,0,l),
(186,317,ls),
(186,410,o),
(234,466,o),
(315,466,cs),
(378,466,o),
(416,410,o),
(416,317,cs),
(416,0,l),
(502,0,l),
(502,317,ls),
(502,412,o),
(549,466,o),
(631,466,cs),
(695,466,o),
(732,412,o),
(732,317,cs),
(732,0,l),
(818,0,l),
(818,341,ls),
(818,469,o),
(756,542,o),
(649,542,cs),
(554,542,o),
(496,491,o),
(480,400,c),
(496,399,l),
(481,489,o),
(421,542,o),
(333,542,cs),
(248,542,o),
(189,494,o),
(172,410,c),
(183,397,l),
(178,530,l),
(100,530,l)
);
}
);
};
layerId = "928B2702-974C-48F2-836E-A64C2029FCAD";
name = "24 de feb. de 23 11:13";
shapes = (
{
closed = 1;
nodes = (
(40,0,l),
(278,0,l),
(278,257,ls),
(278,331,o),
(286,364,o),
(319,364,cs),
(354,364,o),
(360,337,o),
(360,257,cs),
(360,0,l),
(558,0,l),
(558,341,ls),
(558,464,o),
(497,542,o),
(399,542,cs),
(305,542,o),
(234,466,o),
(233,347,c),
(264,347,l),
(252,530,l),
(40,530,l)
);
},
{
closed = 1;
nodes = (
(558,257,l),
(558,331,o),
(566,364,o),
(599,364,cs),
(633,364,o),
(640,334,o),
(640,257,cs),
(640,0,l),
(878,0,l),
(878,341,ls),
(878,478,o),
(799,542,o),
(691,542,cs),
(595,542,o),
(513,459,o),
(513,257,c)
);
}
);
width = 918;
},
{
associatedMasterId = m01;
layerId = "BE76CF6C-9084-4530-93DD-F06607EF7968";
name = "24 de feb. de 23 11:13";
shapes = (
{
closed = 1;
nodes = (
(80,0,l),
(166,0,l),
(166,317,ls),
(166,410,o),
(214,466,o),
(295,466,cs),
(358,466,o),
(396,410,o),
(396,317,cs),
(396,0,l),
(482,0,l),
(482,317,ls),
(482,412,o),
(529,466,o),
(611,466,cs),
(675,466,o),
(712,412,o),
(712,317,cs),
(712,0,l),
(798,0,l),
(798,341,ls),
(798,469,o),
(736,542,o),
(629,542,cs),
(534,542,o),
(476,491,o),
(460,400,c),
(476,399,l),
(461,489,o),
(401,542,o),
(313,542,cs),
(228,542,o),
(169,494,o),
(152,410,c),
(163,397,l),
(158,530,l),
(80,530,l)
);
}
);
width = 868;
}
);
metricLeft = n;
metricRight = n;
unicode = 109;
},
{
color = 8;
glyphname = n;
kernLeft = n;
kernRight = n;
lastChange = "2023-08-27 23:35:57 +0000";
layers = (
{
anchors = (
{
name = bottom;
pos = (296,0);
},
{
name = top;
pos = (296,530);
}
);
layerId = m01;
shapes = (
{
closed = 1;
nodes = (
(85,0,l),
(171,0,l),
(171,317,ls),
(171,414,o),
(226,466,o),
(310,466,cs),
(389,466,o),
(421,414,o),
(421,317,cs),
(421,0,l),
(507,0,l),
(507,341,ls),
(507,453,o),
(449,542,o),
(328,542,cs),
(245,542,o),
(176,500,o),
(156,407,c),
(167,395,l),
(163,530,l),
(85,530,l)
);
}
);
width = 586;
},
{
associatedMasterId = m01;
layerId = "8066EA3A-F5AF-4BA1-8633-EF94AA9D2E58";
name = "20 Jan 23 12:43";
shapes = (
{
closed = 1;
nodes = (
(65,0,l),
(151,0,l),
(151,404,l),
(147,404,l),
(143,530,l),
(65,530,l)
);
},
{
closed = 1;
nodes = (
(401,0,l),
(487,0,l),
(487,345,ls),
(487,457,o),
(429,546,o),
(308,546,cs),
(210,546,o),
(130,487,o),
(130,354,c),
(151,321,l),
(151,418,o),
(206,470,o),
(290,470,cs),
(369,470,o),
(401,418,o),
(401,321,cs)
);
}
);
width = 547;
},
{
anchors = (
{
name = bottom;
pos = (325,0);
},
{
name = top;
pos = (325,530);
}
);
background = {
shapes = (
{
closed = 1;
nodes = (
(115,0,l),
(201,0,l),
(201,317,ls),
(201,414,o),
(256,466,o),
(340,466,cs),
(419,466,o),
(451,414,o),
(451,317,cs),
(451,0,l),
(537,0,l),
(537,341,ls),
(537,453,o),
(479,542,o),
(358,542,cs),
(275,542,o),
(206,500,o),
(186,407,c),
(197,395,l),
(193,530,l),
(115,530,l)
);
}
);
};
layerId = "37DC72B3-BCF2-46ED-AAD5-F0285A86700E";
shapes = (
{
closed = 1;
nodes = (
(46,0,l),
(284,0,l),
(284,257,ls),
(284,324,o),
(289,364,o),
(325,364,cs),
(366,364,o),
(366,324,o),
(366,257,cs),
(366,0,l),
(604,0,l),
(604,341,ls),
(604,478,o),
(525,542,o),
(417,542,cs),
(321,542,o),
(249,500,o),
(239,347,c),
(270,347,l),
(258,530,l),
(46,530,l)
);
}
);
width = 644;
},
{
anchors = (
{
name = bottom;
pos = (281,0);
},
{
name = top;
pos = (281,530);
}
);
background = {
shapes = (
{
closed = 1;
nodes = (
(169,0,l),
(255,0,l),
(255,317,ls),
(255,414,o),
(310,466,o),
(394,466,cs),
(473,466,o),
(505,414,o),
(505,317,cs),
(505,0,l),
(591,0,l),
(591,341,ls),
(591,453,o),
(533,542,o),
(412,542,cs),
(329,542,o),
(260,500,o),
(240,407,c),
(251,395,l),
(247,530,l),
(169,530,l)
);
}
);
};
layerId = "EE2FFE84-06F1-4AFB-BBEC-60D09A436D14";
shapes = (
{
closed = 1;
nodes = (
(88,0,l),
(118,0,l),
(118,317,ls),
(118,431,o),
(181,512,o),
(292,512,cs),
(401,512,o),
(444,432,o),
(444,317,cs),
(444,0,l),
(474,0,l),
(474,341,ls),
(474,453,o),
(415,542,o),
(300,542,cs),
(204,542,o),
(121,494,o),
(114,385,c),
(119,385,l),
(116,530,l),
(88,530,l)
);
}
);
width = 556;
}
);
unicode = 110;
},
{
color = 8;
glyphname = o;
kernLeft = o;
kernRight = o;
lastChange = "2023-09-13 12:37:29 +0000";
layers = (
{
anchors = (
{
name = bottom;
pos = (290,0);
},
{
name = top;
pos = (290,530);
}
);
layerId = m01;
shapes = (
{
closed = 1;
nodes = (
(437,-12,o),
(533,96,o),
(533,265,cs),
(533,434,o),
(437,542,o),
(290,542,cs),
(143,542,o),
(47,434,o),
(47,265,cs),
(47,96,o),
(143,-12,o),
(290,-12,cs)
);
},
{
closed = 1;
nodes = (
(193,70,o),
(137,143,o),
(137,265,cs),
(137,387,o),
(193,460,o),
(290,460,cs),
(387,460,o),
(443,387,o),
(443,265,cs),
(443,143,o),
(387,70,o),
(290,70,cs)
);
}
);
width = 580;
},
{
anchors = (
{
name = bottom;
pos = (339,0);
},
{
name = top;
pos = (339,530);
}
);
background = {
shapes = (
{
closed = 1;
nodes = (
(486,-12,o),
(582,96,o),
(582,265,cs),
(582,434,o),
(486,542,o),
(339,542,cs),
(192,542,o),
(96,434,o),
(96,265,cs),
(96,96,o),
(192,-12,o),
(339,-12,cs)
);
},
{
closed = 1;
nodes = (
(242,70,o),
(186,143,o),
(186,265,cs),
(186,387,o),
(242,460,o),
(339,460,cs),
(436,460,o),
(492,387,o),
(492,265,cs),
(492,143,o),
(436,70,o),
(339,70,cs)
);
}
);
};
layerId = "37DC72B3-BCF2-46ED-AAD5-F0285A86700E";
shapes = (
{
closed = 1;
nodes = (
(526,-12,o),
(650,99,o),
(650,265,cs),
(650,431,o),
(526,542,o),
(339,542,cs),
(152,542,o),
(28,431,o),
(28,265,cs),
(28,99,o),
(152,-12,o),
(339,-12,cs)
);
},
{
closed = 1;
nodes = (
(294,150,o),
(270,190,o),
(270,265,cs),
(270,340,o),
(294,380,o),
(339,380,cs),
(384,380,o),
(408,340,o),
(408,265,cs),
(408,190,o),
(384,150,o),
(339,150,cs)
);
}
);
width = 678;
},
{
anchors = (
{
name = bottom;
pos = (275,0);
},
{
name = top;
pos = (275,530);
}
);
background = {
shapes = (
{
closed = 1;
nodes = (
(412,-12,o),
(508,96,o),
(508,265,cs),
(508,434,o),
(412,542,o),
(265,542,cs),
(118,542,o),
(22,434,o),
(22,265,cs),
(22,96,o),
(118,-12,o),
(265,-12,cs)
);
},
{
closed = 1;
nodes = (
(168,70,o),
(112,143,o),
(112,265,cs),
(112,387,o),
(168,460,o),
(265,460,cs),
(362,460,o),
(418,387,o),
(418,265,cs),
(418,143,o),
(362,70,o),
(265,70,cs)
);
}
);
};
layerId = "EE2FFE84-06F1-4AFB-BBEC-60D09A436D14";
shapes = (
{
closed = 1;
nodes = (
(425,-12,o),
(500,115,o),
(500,265,cs),
(500,415,o),
(425,542,o),
(275,542,cs),
(125,542,o),
(50,415,o),
(50,265,cs),
(50,115,o),
(125,-12,o),
(275,-12,cs)
);
},
{
closed = 1;
nodes = (
(157,18,o),
(82,113,o),
(82,265,cs),
(82,417,o),
(157,512,o),
(275,512,cs),
(393,512,o),
(468,417,o),
(468,265,cs),
(468,113,o),
(393,18,o),
(275,18,cs)
);
}
);
width = 550;
}
);
unicode = 111;
},
{
glyphname = oslash;
lastChange = "2023-05-31 13:13:34 +0000";
layers = (
{
layerId = m01;
shapes = (
{
ref = o;
},
{
closed = 1;
nodes = (
(12,-12,l),
(101,-12,l),
(566,542,l),
(477,542,l)
);
}
);
width = 566;
},
{
layerId = "EE2FFE84-06F1-4AFB-BBEC-60D09A436D14";
shapes = (
{
pos = (-1,0);
ref = o;
},
{
closed = 1;
nodes = (
(12,-12,l),
(51,-12,l),
(516,542,l),
(477,542,l)
);
}
);
width = 516;
},
{
layerId = "37DC72B3-BCF2-46ED-AAD5-F0285A86700E";
shapes = (
{
ref = o;
},
{
closed = 1;
nodes = (
(59,-12,l),
(185,-12,l),
(606,542,l),
(481,542,l)
);
}
);
width = 662;
}
);
unicode = 248;
},
{
glyphname = p;
kernLeft = n;
kernRight = o;
lastChange = "2023-07-05 17:52:13 +0000";
layers = (
{
layerId = m01;
shapes = (
{
closed = 1;
nodes = (
(171,-150,l),
(171,112,l),
(159,98,l),
(184,26,o),
(243,-12,o),
(328,-12,cs),
(487,-12,o),
(557,120,o),
(557,265,cs),
(557,410,o),
(487,542,o),
(328,542,cs),
(243,542,o),
(184,504,o),
(158,435,c),
(167,418,l),
(163,530,l),
(85,530,l),
(85,-150,l)
);
},
{
closed = 1;
nodes = (
(161,363,o),
(205,460,o),
(313,460,cs),
(422,460,o),
(465,364,o),
(465,265,cs),
(465,166,o),
(422,70,o),
(313,70,cs),
(205,70,o),
(161,167,o),
(161,265,cs)
);
}
);
width = 604;
},
{
background = {
shapes = (
{
closed = 1;
nodes = (
(192,-150,l),
(192,112,l),
(180,98,l),
(205,26,o),
(264,-12,o),
(349,-12,cs),
(508,-12,o),
(578,120,o),
(578,265,cs),
(578,410,o),
(508,542,o),
(349,542,cs),
(264,542,o),
(205,504,o),
(179,435,c),
(188,418,l),
(184,530,l),
(106,530,l),
(106,-150,l)
);
},
{
closed = 1;
nodes = (
(182,363,o),
(226,460,o),
(334,460,cs),
(443,460,o),
(486,364,o),
(486,265,cs),
(486,166,o),
(443,70,o),
(334,70,cs),
(226,70,o),
(182,167,o),
(182,265,cs)
);
}
);
};
layerId = "37DC72B3-BCF2-46ED-AAD5-F0285A86700E";
shapes = (
{
closed = 1;
nodes = (
(284,-150,l),
(284,108,l),
(270,108,l),
(302,31,o),
(361,-12,o),
(434,-12,cs),
(572,-12,o),
(658,95,o),
(658,265,cs),
(658,435,o),
(572,542,o),
(434,542,cs),
(355,542,o),
(296,499,o),
(270,421,c),
(284,422,l),
(280,530,l),
(46,530,l),
(46,-150,l)
);
},
{
closed = 1;
nodes = (
(274,334,o),
(302,382,o),
(346,382,cs),
(385,382,o),
(417,334,o),
(417,265,cs),
(417,193,o),
(389,148,o),
(346,148,cs),
(303,148,o),
(274,193,o),
(274,265,cs)
);
}
);
width = 686;
},
{
background = {
shapes = (
{
closed = 1;
nodes = (
(126,-150,l),
(126,112,l),
(114,98,l),
(139,26,o),
(198,-12,o),
(283,-12,cs),
(442,-12,o),
(512,120,o),
(512,265,cs),
(512,410,o),
(442,542,o),
(283,542,cs),
(198,542,o),
(139,504,o),
(113,435,c),
(122,418,l),
(118,530,l),
(40,530,l),
(40,-150,l)
);
},
{
closed = 1;
nodes = (
(116,363,o),
(160,460,o),
(268,460,cs),
(377,460,o),
(420,364,o),
(420,265,cs),
(420,166,o),
(377,70,o),
(268,70,cs),
(160,70,o),
(116,167,o),
(116,265,cs)
);
}
);
};
layerId = "EE2FFE84-06F1-4AFB-BBEC-60D09A436D14";
shapes = (
{
closed = 1;
nodes = (
(118,-150,l),
(118,173,l),
(110,158,l),
(127,63,o),
(212,-9,o),
(302,-9,cs),
(438,-9,o),
(523,97,o),
(523,265,cs),
(523,435,o),
(438,542,o),
(302,542,cs),
(212,542,o),
(132,473,o),
(102,367,c),
(114,355,l),
(110,530,l),
(88,530,l),
(88,-150,l)
);
},
{
closed = 1;
nodes = (
(115,404,o),
(197,513,o),
(302,513,cs),
(418,513,o),
(491,417,o),
(491,265,cs),
(491,115,o),
(418,21,o),
(302,21,cs),
(197,21,o),
(115,128,o),
(115,265,cs)
);
}
);
width = 573;
}
);
metricLeft = n;
metricRight = o;
unicode = 112;
},
{
glyphname = thorn;
lastChange = "2023-07-05 17:52:13 +0000";
layers = (
{
layerId = m01;
shapes = (
{
closed = 1;
nodes = (
(85,-150,l),
(173,-150,l),
(173,62,l),
(204,15,o),
(257,-12,o),
(333,-12,cs),
(487,-12,o),
(557,120,o),
(557,265,cs),
(557,410,o),
(487,542,o),
(333,542,cs),
(257,542,o),
(203,515,o),
(173,465,c),
(173,710,l),
(85,710,l)
);
},
{
closed = 1;
nodes = (
(163,367,o),
(206,464,o),
(315,464,cs),
(425,464,o),
(467,368,o),
(467,265,cs),
(467,166,o),
(425,70,o),
(315,70,cs),
(206,70,o),
(163,167,o),
(163,265,cs)
);
}
);
width = 604;
},
{
layerId = "EE2FFE84-06F1-4AFB-BBEC-60D09A436D14";
shapes = (
{
closed = 1;
nodes = (
(88,-150,l),
(120,-150,l),
(120,114,l),
(158,36,o),
(227,-12,o),
(303,-12,cs),
(439,-12,o),
(525,95,o),
(525,265,cs),
(525,433,o),
(439,539,o),
(303,539,cs),
(224,539,o),
(149,485,o),
(120,407,c),
(120,710,l),
(88,710,l)
);
},
{
closed = 1;
nodes = (
(120,402,o),
(202,509,o),
(307,509,cs),
(423,509,o),
(496,415,o),
(496,265,cs),
(496,113,o),
(423,17,o),
(307,17,cs),
(202,17,o),
(120,126,o),
(120,265,cs)
);
}
);
width = 575;
},
{
layerId = "37DC72B3-BCF2-46ED-AAD5-F0285A86700E";
shapes = (
{
closed = 1;
nodes = (
(46,-150,l),
(286,-150,l),
(286,20,l),
(312,0,o),
(347,-12,o),
(382,-12,cs),
(537,-12,o),
(634,95,o),
(634,265,cs),
(634,435,o),
(537,542,o),
(382,542,cs),
(335,542,o),
(306,530,o),
(286,515,c),
(286,710,l),
(46,710,l)
);
},
{
closed = 1;
nodes = (
(276,321,o),
(298,356,o),
(334,356,cs),
(370,356,o),
(392,321,o),
(392,265,cs),
(392,209,o),
(370,174,o),
(334,174,cs),
(298,174,o),
(276,209,o),
(276,265,cs)
);
}
);
width = 662;
}
);
metricLeft = h;
metricRight = o;
unicode = 254;
},
{
glyphname = r;
kernLeft = n;
kernRight = r;
lastChange = "2023-07-05 17:52:13 +0000";
layers = (
{
anchors = (
{
name = bottom;
pos = (128,0);
},
{
name = top;
pos = (202,530);
}
);
layerId = m01;
shapes = (
{
closed = 1;
nodes = (
(85,0,l),
(171,0,l),
(171,316,ls),
(171,407,o),
(208,454,o),
(289,454,cs),
(341,454,l),
(341,530,l),
(289,530,ls),
(209,530,o),
(169,490,o),
(157,400,c),
(165,392,l),
(161,530,l),
(85,530,l)
);
}
);
width = 388;
},
{
associatedMasterId = m01;
layerId = "5C223BB4-F14E-4E2A-9E2B-B4AA9216AFAB";
name = "13 Jan 23 12:09";
shapes = (
{
closed = 1;
nodes = (
(60,0,l),
(146,0,l),
(146,404,l),
(140,404,l),
(140,530,l),
(60,530,l)
);
},
{
closed = 1;
nodes = (
(350,531,l),
(333,536,o),
(314,540,o),
(293,540,cs),
(205,540,o),
(125,506,o),
(125,363,c),
(146,330,l),
(146,437,o),
(201,464,o),
(285,464,cs),
(300,464,o),
(317,462,o),
(350,454,c)
);
}
);
width = 370;
},
{
associatedMasterId = m01;
layerId = "52802591-887D-41E2-8EB5-BFDE6342A83D";
name = "13 Jan 23 12:28";
shapes = (
{
closed = 1;
nodes = (
(65,0,l),
(151,0,l),
(151,316,ls),
(151,407,o),
(198,454,o),
(279,454,cs),
(321,454,l),
(321,530,l),
(279,530,ls),
(196,530,o),
(150,488,o),
(138,410,c),
(145,402,l),
(145,530,l),
(65,530,l)
);
}
);
width = 326;
},
{
anchors = (
{
name = bottom;
pos = (165,0);
},
{
name = top;
pos = (278,530);
}
);
background = {
shapes = (
{
closed = 1;
nodes = (
(128,0,l),
(214,0,l),
(214,316,ls),
(214,407,o),
(261,454,o),
(342,454,cs),
(384,454,l),
(384,530,l),
(342,530,ls),
(259,530,o),
(213,488,o),
(201,410,c),
(208,402,l),
(204,530,l),
(128,530,l)
);
}
);
};
layerId = "37DC72B3-BCF2-46ED-AAD5-F0285A86700E";
shapes = (
{
closed = 1;
nodes = (
(46,0,l),
(284,0,l),
(284,266,ls),
(284,337,o),
(316,368,o),
(411,368,cs),
(458,368,l),
(458,530,l),
(414,530,ls),
(334,530,o),
(289,466,o),
(271,352,c),
(286,352,l),
(280,530,l),
(46,530,l)
);
}
);
width = 486;
},
{
anchors = (
{
name = bottom;
pos = (103,0);
},
{
name = top;
pos = (182,530);
}
);
background = {
shapes = (
{
closed = 1;
nodes = (
(59,0,l),
(145,0,l),
(145,316,ls),
(145,407,o),
(182,454,o),
(263,454,cs),
(315,454,l),
(315,530,l),
(263,530,ls),
(180,530,o),
(144,488,o),
(132,410,c),
(139,402,l),
(135,530,l),
(59,530,l)
);
}
);
};
layerId = "EE2FFE84-06F1-4AFB-BBEC-60D09A436D14";
shapes = (
{
closed = 1;
nodes = (
(88,0,l),
(118,0,l),
(118,316,ls),
(118,421,o),
(176,503,o),
(262,503,cs),
(296,503,l),
(296,530,l),
(262,530,ls),
(179,530,o),
(128,472,o),
(103,370,c),
(115,360,l),
(110,530,l),
(88,530,l)
);
}
);
width = 346;
},
{
anchors = (
{
name = bottom;
pos = (123,0);
},
{
name = top;
pos = (197,530);
}
);
associatedMasterId = m01;
layerId = "D5124A6F-90CC-40A7-85EC-C92C49F492D8";
name = "24 de feb. de 23 11:00";
shapes = (
{
closed = 1;
nodes = (
(80,0,l),
(166,0,l),
(166,316,ls),
(166,407,o),
(213,454,o),
(294,454,cs),
(336,454,l),
(336,530,l),
(294,530,ls),
(211,530,o),
(165,488,o),
(153,410,c),
(160,402,l),
(156,530,l),
(80,530,l)
);
}
);
width = 376;
}
);
metricLeft = n;
metricRight = o;
unicode = 114;
},
{
glyphname = s;
kernLeft = o;
kernRight = o;
lastChange = "2023-09-20 15:39:46 +0000";
layers = (
{
anchors = (
{
name = bottom;
pos = (268,0);
},
{
name = top;
pos = (265,530);
}
);
background = {
shapes = (
{
closed = 1;
nodes = (
(457,475,o),
(370,542,o),
(264,542,c),
(142,542,o),
(60,478,o),
(60,376,cs),
(60,272,o),
(164,245,o),
(260,223,cs),
(320,209,o),
(394,203,o),
(394,140,cs),
(394,86,o),
(327,70,o),
(277,70,cs),
(198,70,o),
(148,110,o),
(137,173,c),
(47,167,l),
(55,57,o),
(151,-12,o),
(277,-12,cs),
(377,-12,o),
(484,32,o),
(484,135,cs),
(484,241,o),
(395,274,o),
(275,297,cs),
(219,308,o),
(150,329,o),
(150,381,cs),
(150,431,o),
(197,460,o),
(255,460,cs),
(313,460,o),
(372,425,o),
(384,366,c),
(474,372,l)
);
}
);
};
layerId = m01;
shapes = (
{
closed = 1;
nodes = (
(457,475,o),
(370,542,o),
(264,542,c),
(142,542,o),
(60,478,o),
(60,376,cs),
(60,272,o),
(164,245,o),
(260,223,cs),
(320,209,o),
(394,203,o),
(394,140,cs),
(394,86,o),
(327,70,o),
(277,70,cs),
(198,70,o),
(148,110,o),
(137,173,c),
(47,167,l),
(55,57,o),
(151,-12,o),
(277,-12,cs),
(377,-12,o),
(484,32,o),
(484,135,cs),
(484,241,o),
(395,274,o),
(275,297,cs),
(219,308,o),
(150,329,o),
(150,381,cs),
(150,431,o),
(197,460,o),
(255,460,cs),
(313,460,o),
(372,425,o),
(384,366,c),
(474,372,l)
);
}
);
width = 531;
},
{
associatedMasterId = m01;
layerId = "A53CA0B2-487A-4527-BF28-CD3D40380BA4";
name = "19 Jan 23 10:22";
shapes = (
{
closed = 1;
nodes = (
(482,470,o),
(357,546,o),
(261,546,cs),
(149,546,o),
(56,491,o),
(56,386,cs),
(56,304,o),
(118,261,o),
(185,245,cs),
(280,222,ls),
(342,207,o),
(378,182,o),
(378,142,cs),
(378,94,o),
(332,66,o),
(261,66,cs),
(170,66,o),
(120,123,o),
(120,217,c),
(184,178,l),
(-4,164,l),
(33,217,l),
(25,82,o),
(121,-16,o),
(261,-16,cs),
(364,-16,o),
(468,33,o),
(468,135,cs),
(468,215,o),
(428,268,o),
(305,298,cs),
(218,319,ls),
(175,329,o),
(146,352,o),
(146,394,cs),
(146,447,o),
(201,464,o),
(261,464,cs),
(339,464,o),
(389,414,o),
(389,333,c),
(358,364,l),
(496,374,l),
(476,333,l)
);
}
);
width = 509;
},
{
anchors = (
{
name = bottom;
pos = (328,0);
},
{
name = top;
pos = (328,530);
}
);
background = {
shapes = (
{
closed = 1;
nodes = (
(543,458,o),
(452,542,o),
(327,542,cs),
(219,542,o),
(123,482,o),
(123,374,cs),
(123,276,o),
(227,242,o),
(323,219,cs),
(379,206,o),
(453,198,o),
(453,140,cs),
(453,84,o),
(392,70,o),
(336,70,cs),
(247,70,o),
(182,129,o),
(195,217,c),
(259,178,l),
(67,164,l),
(108,217,l),
(86,79,o),
(196,-12,o),
(336,-12,cs),
(440,-12,o),
(543,31,o),
(543,135,cs),
(543,237,o),
(437,269,o),
(338,294,cs),
(282,309,o),
(213,321,o),
(213,379,cs),
(213,433,o),
(264,460,o),
(318,460,cs),
(397,460,o),
(461,412,o),
(457,333,c),
(425,364,l),
(563,374,l),
(543,333,l)
);
}
);
};
layerId = "37DC72B3-BCF2-46ED-AAD5-F0285A86700E";
shapes = (
{
closed = 1;
nodes = (
(593,476,o),
(498,544,o),
(328,544,cs),
(137,544,o),
(40,482,o),
(40,371,cs),
(40,282,o),
(91,233,o),
(304,197,cs),
(344,191,o),
(363,179,o),
(365,158,cs),
(367,141,o),
(349,127,o),
(325,127,cs),
(290,127,o),
(270,144,o),
(263,179,c),
(28,170,l),
(37,53,o),
(140,-12,o),
(334,-12,cs),
(516,-12,o),
(607,49,o),
(607,158,cs),
(607,251,o),
(547,302,o),
(342,329,cs),
(301,334,o),
(287,346,o),
(283,367,cs),
(279,390,o),
(297,407,o),
(326,407,cs),
(354,407,o),
(374,384,o),
(378,347,c),
(611,353,l)
);
}
);
width = 639;
},
{
anchors = (
{
name = bottom;
pos = (262,0);
},
{
name = top;
pos = (252,530);
}
);
background = {
shapes = (
{
closed = 1;
nodes = (
(458,458,o),
(367,542,o),
(242,542,cs),
(134,542,o),
(38,482,o),
(38,374,cs),
(38,276,o),
(142,242,o),
(238,219,cs),
(294,206,o),
(368,198,o),
(368,140,cs),
(368,84,o),
(307,70,o),
(251,70,cs),
(162,70,o),
(97,129,o),
(110,217,c),
(174,178,l),
(-18,164,l),
(23,217,l),
(1,79,o),
(111,-12,o),
(251,-12,cs),
(355,-12,o),
(458,31,o),
(458,135,cs),
(458,237,o),
(352,269,o),
(253,294,cs),
(197,309,o),
(128,321,o),
(128,379,cs),
(128,433,o),
(179,460,o),
(233,460,cs),
(312,460,o),
(376,412,o),
(372,333,c),
(340,364,l),
(478,374,l),
(458,333,l)
);
}
);
};
layerId = "EE2FFE84-06F1-4AFB-BBEC-60D09A436D14";
shapes = (
{
closed = 1;
nodes = (
(428,477,o),
(349,542,o),
(252,542,cs),
(140,542,o),
(64,480,o),
(68,392,cs),
(71,321,o),
(125,283,o),
(248,246,cs),
(318,225,o),
(426,208,o),
(426,130,cs),
(426,55,o),
(362,18,o),
(261,18,cs),
(160,18,o),
(81,80,o),
(81,159,c),
(50,155,l),
(51,61,o),
(144,-12,o),
(261,-12,cs),
(382,-12,o),
(458,40,o),
(458,130,cs),
(458,204,o),
(393,239,o),
(263,272,cs),
(145,304,o),
(103,338,o),
(100,392,cs),
(96,462,o),
(155,512,o),
(243,512,cs),
(333,512,o),
(398,461,o),
(412,379,c),
(443,385,l)
);
}
);
width = 508;
}
);
metricLeft = o;
metricRight = o;
unicode = 115;
},
{
glyphname = germandbls;
lastChange = "2023-07-05 17:52:18 +0000";
layers = (
{
guides = (
{
angle = -90;
pos = (238,336);
}
);
layerId = m01;
shapes = (
{
closed = 1;
nodes = (
(386,82,o),
(464,122,o),
(464,206,cs),
(464,298,o),
(384,339,o),
(292,337,cs),
(248,336,l),
(248,419,l),
(292,418,ls),
(375,416,o),
(422,473,o),
(422,541,cs),
(422,595,o),
(368,640,o),
(299,640,cs),
(224,640,o),
(171,594,o),
(171,502,cs),
(171,0,l),
(85,0,l),
(85,502,ls),
(85,642,o),
(177,722,o),
(299,722,cs),
(423,722,o),
(510,650,o),
(510,541,cs),
(510,454,o),
(454,382,o),
(354,376,c),
(353,393,l),
(466,386,o),
(554,312,o),
(554,199,cs),
(554,67,o),
(434,0,o),
(302,0,cs),
(238,0,l),
(238,82,l),
(302,82,ls)
);
}
);
width = 596;
},
{
associatedMasterId = m01;
guides = (
{
angle = -90;
pos = (92,541);
},
{
angle = -90;
pos = (542,196);
},
{
angle = -90;
pos = (244,336);
}
);
layerId = "52FF2278-BB90-4B53-BA1C-D11E8E53D828";
name = "7 Feb 23 15:48";
shapes = (
{
closed = 1;
nodes = (
(381,82,o),
(470,127,o),
(470,206,cs),
(470,301,o),
(381,337,o),
(298,337,c),
(244,336,l),
(244,419,l),
(298,418,l),
(381,418,o),
(428,473,o),
(428,541,cs),
(428,599,o),
(374,644,o),
(305,644,cs),
(230,644,o),
(177,598,o),
(177,522,c),
(90,522,l),
(90,642,o),
(183,726,o),
(305,726,cs),
(429,726,o),
(516,650,o),
(516,541,cs),
(516,449,o),
(454,389,o),
(343,373,c),
(342,396,l),
(474,377,o),
(560,307,o),
(560,199,cs),
(560,85,o),
(451,0,o),
(298,0,c),
(244,0,l),
(244,82,l),
(298,82,l)
);
},
{
closed = 1;
nodes = (
(90,0,l),
(177,0,l),
(177,522,l),
(90,522,l)
);
}
);
width = 566;
},
{
background = {
shapes = (
{
closed = 1;
nodes = (
(187,30,l),
(187,0,l),
(291,0,ls),
(433,0,o),
(533,85,o),
(533,206,cs),
(533,334,o),
(411,415,o),
(236,409,c),
(495,660,l),
(495,710,l),
(60,710,l),
(60,0,l),
(92,0,l),
(92,680,l),
(473,680,l),
(197,412,l),
(197,378,l),
(245,379,ls),
(394,382,o),
(499,311,o),
(499,206,cs),
(499,103,o),
(413,30,o),
(291,30,cs)
);
}
);
};
layerId = "EE2FFE84-06F1-4AFB-BBEC-60D09A436D14";
shapes = (
{
closed = 1;
nodes = (
(395,30,o),
(487,99,o),
(487,194,cs),
(487,294,o),
(397,362,o),
(269,359,cs),
(225,358,l),
(225,389,l),
(269,388,ls),
(372,386,o),
(445,449,o),
(445,541,cs),
(445,628,o),
(378,690,o),
(282,690,cs),
(187,690,o),
(120,612,o),
(120,502,cs),
(120,0,l),
(88,0,l),
(88,502,ls),
(88,631,o),
(168,722,o),
(282,722,cs),
(398,722,o),
(479,647,o),
(479,541,cs),
(479,445,o),
(406,373,o),
(301,367,c),
(300,384,l),
(430,376,o),
(521,297,o),
(521,194,cs),
(521,83,o),
(415,0,o),
(279,0,cs),
(215,0,l),
(215,30,l),
(279,30,ls)
);
}
);
width = 566;
},
{
background = {
shapes = (
{
pos = (-16,0);
ref = Germandbls;
}
);
};
layerId = "37DC72B3-BCF2-46ED-AAD5-F0285A86700E";
shapes = (
{
closed = 1;
nodes = (
(452,186,o),
(483,199,o),
(483,228,cs),
(483,260,o),
(459,273,o),
(405,272,cs),
(351,271,l),
(351,450,l),
(385,449,ls),
(419,448,o),
(441,465,o),
(441,493,cs),
(441,519,o),
(419,536,o),
(385,536,cs),
(323,536,o),
(284,488,o),
(284,412,cs),
(284,0,l),
(46,0,l),
(46,412,ls),
(46,611,o),
(161,722,o),
(385,722,cs),
(561,722,o),
(681,641,o),
(681,511,cs),
(681,420,o),
(604,363,o),
(467,352,c),
(466,369,l),
(625,367,o),
(725,298,o),
(725,192,cs),
(725,19,o),
(537,0,o),
(405,0,cs),
(341,0,l),
(341,186,l),
(405,186,ls)
);
}
);
width = 748;
}
);
metricLeft = h;
metricRight = f;
unicode = 223;
},
{
glyphname = t;
kernLeft = t;
kernRight = t;
lastChange = "2023-09-21 18:12:04 +0000";
layers = (
{
anchors = (
{
name = bottom;
pos = (239,0);
}
);
layerId = m01;
shapes = (
{
closed = 1;
nodes = (
(137,142,l),
(137,51,o),
(190,0,o),
(286,0,c),
(363,0,l),
(363,76,l),
(286,76,l),
(244,76,o),
(223,98,o),
(223,142,cs),
(223,650,l),
(137,650,l)
);
},
{
closed = 1;
nodes = (
(60,454,l),
(365,454,l),
(365,530,l),
(60,530,l)
);
}
);
width = 402;
},
{
associatedMasterId = m01;
background = {
shapes = (
{
closed = 1;
nodes = (
(265,-5,o),
(294,2,q),
(294,83,l),
(271,80,o),
(255,80,qs),
(217,80,o),
(176,117,o),
(176,161,qs),
(176,453,l),
(287,453,l),
(287,531,l),
(176,531,l),
(176,706,l),
(82,706,l),
(82,531,l),
(5,531,l),
(5,453,l),
(82,453,l),
(82,151,ls),
(82,69,o),
(167,-5,o),
(233,-5,qs)
);
}
);
};
layerId = "3688D7B1-376B-404F-8B8A-0258D7642DB7";
name = "13 Jan 23 10:28";
shapes = (
{
closed = 1;
nodes = (
(82,137,l),
(82,48,o),
(139,-9,o),
(228,-9,cs),
(262,-9,o),
(295,-7,o),
(308,0,c),
(308,73,l),
(295,71,o),
(261,67,o),
(228,67,cs),
(188,67,o),
(168,94,o),
(168,134,cs),
(168,650,l),
(82,650,l)
);
},
{
closed = 1;
nodes = (
(11,454,l),
(308,454,l),
(308,530,l),
(11,530,l)
);
}
);
width = 343;
},
{
anchors = (
{
name = bottom;
pos = (286,0);
}
);
background = {
shapes = (
{
closed = 1;
nodes = (
(118,147,l),
(118,58,o),
(163,0,o),
(272,0,c),
(334,0,l),
(334,76,l),
(272,76,l),
(228,76,o),
(204,103,o),
(204,147,cs),
(204,650,l),
(118,650,l)
);
},
{
closed = 1;
nodes = (
(46,454,l),
(346,454,l),
(346,530,l),
(46,530,l)
);
}
);
};
layerId = "37DC72B3-BCF2-46ED-AAD5-F0285A86700E";
shapes = (
{
closed = 1;
nodes = (
(119,216,l),
(119,66,o),
(191,0,o),
(335,0,c),
(498,0,l),
(498,162,l),
(409,162,l),
(377,162,o),
(357,183,o),
(357,216,cs),
(357,651,l),
(119,651,l)
);
},
{
closed = 1;
nodes = (
(21,370,l),
(493,370,l),
(493,530,l),
(21,530,l)
);
}
);
width = 516;
},
{
anchors = (
{
name = bottom;
pos = (230,0);
}
);
background = {
shapes = (
{
closed = 1;
nodes = (
(88,147,l),
(88,58,o),
(133,0,o),
(242,0,c),
(304,0,l),
(304,76,l),
(242,76,l),
(198,76,o),
(174,103,o),
(174,147,cs),
(174,650,l),
(88,650,l)
);
},
{
closed = 1;
nodes = (
(17,454,l),
(317,454,l),
(317,530,l),
(17,530,l)
);
}
);
};
layerId = "EE2FFE84-06F1-4AFB-BBEC-60D09A436D14";
shapes = (
{
closed = 1;
nodes = (
(156,107,ls),
(156,41,o),
(196,0,o),
(259,0,cs),
(315,0,l),
(315,27,l),
(259,27,ls),
(212,27,o),
(186,56,o),
(186,107,cs),
(186,650,l),
(156,650,l)
);
},
{
closed = 1;
nodes = (
(63,500,l),
(315,500,l),
(315,530,l),
(63,530,l)
);
}
);
width = 355;
}
);
metricLeft = "=f-5";
metricRight = c;
unicode = 116;
},
{
glyphname = u;
kernLeft = u;
kernRight = u;
lastChange = "2023-09-20 15:46:20 +0000";
layers = (
{
anchors = (
{
name = bottom;
pos = (291,0);
},
{
name = ogonek;
pos = (503,0);
},
{
name = top;
pos = (291,530);
}
);
layerId = m01;
shapes = (
{
closed = 1;
nodes = (
(503,530,l),
(417,530,l),
(417,214,ls),
(417,116,o),
(362,64,o),
(281,64,cs),
(205,64,o),
(173,116,o),
(173,214,cs),
(173,530,l),
(87,530,l),
(87,189,ls),
(87,77,o),
(145,-12,o),
(263,-12,cs),
(342,-12,o),
(411,29,o),
(431,119,c),
(421,131,l),
(421,0,l),
(503,0,l)
);
}
);
width = 588;
},
{
associatedMasterId = m01;
layerId = "2FD0F029-F757-418E-9E25-B5C9FDB0E515";
name = "20 Jan 23 12:44";
shapes = (
{
closed = 1;
nodes = (
(471,530,l),
(385,530,l),
(385,126,l),
(389,126,l),
(389,0,l),
(471,0,l)
);
},
{
closed = 1;
nodes = (
(141,530,l),
(55,530,l),
(55,185,ls),
(55,73,o),
(113,-16,o),
(231,-16,cs),
(326,-16,o),
(406,43,o),
(406,176,c),
(385,210,l),
(385,112,o),
(330,60,o),
(249,60,cs),
(173,60,o),
(141,112,o),
(141,210,cs)
);
}
);
width = 531;
},
{
anchors = (
{
name = bottom;
pos = (347,0);
},
{
name = ogonek;
pos = (626,0);
},
{
name = top;
pos = (347,530);
}
);
layerId = "37DC72B3-BCF2-46ED-AAD5-F0285A86700E";
shapes = (
{
closed = 1;
nodes = (
(626,530,l),
(388,530,l),
(388,273,ls),
(388,206,o),
(383,166,o),
(347,166,cs),
(306,166,o),
(306,206,o),
(306,273,cs),
(306,530,l),
(68,530,l),
(68,189,ls),
(68,52,o),
(147,-12,o),
(255,-12,cs),
(351,-12,o),
(423,30,o),
(433,183,c),
(402,183,l),
(414,0,l),
(626,0,l)
);
}
);
width = 672;
},
{
anchors = (
{
name = bottom;
pos = (283,0);
},
{
name = ogonek;
pos = (476,0);
},
{
name = top;
pos = (283,530);
}
);
layerId = "EE2FFE84-06F1-4AFB-BBEC-60D09A436D14";
shapes = (
{
closed = 1;
nodes = (
(476,530,l),
(446,530,l),
(446,213,ls),
(446,99,o),
(383,18,o),
(272,18,cs),
(163,18,o),
(120,98,o),
(120,213,cs),
(120,530,l),
(90,530,l),
(90,189,ls),
(90,77,o),
(149,-12,o),
(264,-12,cs),
(360,-12,o),
(443,36,o),
(450,145,c),
(445,145,l),
(448,0,l),
(476,0,l)
);
}
);
width = 564;
}
);
metricLeft = "=d+40";
metricRight = d;
unicode = 117;
},
{
color = 8;
glyphname = v;
kernLeft = v;
kernRight = v;
lastChange = "2023-08-27 23:37:49 +0000";
layers = (
{
layerId = m01;
shapes = (
{
closed = 1;
nodes = (
(424,530,l),
(269,90,l),
(114,530,l),
(22,530,l),
(215,0,l),
(323,0,l),
(516,530,l)
);
}
);
width = 538;
},
{
background = {
shapes = (
{
pos = (-75,0);
ref = V;
}
);
};
layerId = "37DC72B3-BCF2-46ED-AAD5-F0285A86700E";
shapes = (
{
closed = 1;
nodes = (
(426,530,l),
(333,233,l),
(239,530,l),
(20,530,l),
(221,0,l),
(445,0,l),
(646,530,l)
);
}
);
width = 666;
},
{
background = {
shapes = (
{
pos = (-101,0);
ref = V;
}
);
};
layerId = "EE2FFE84-06F1-4AFB-BBEC-60D09A436D14";
shapes = (
{
closed = 1;
nodes = (
(426,530,l),
(241,31,l),
(56,530,l),
(25,530,l),
(223,0,l),
(259,0,l),
(457,530,l)
);
}
);
width = 482;
},
{
associatedMasterId = m01;
layerId = "E1E6C947-568F-47F5-8024-71C780046B7E";
name = "24 de feb. de 23 11:21";
shapes = (
{
closed = 1;
nodes = (
(223,0,l),
(331,0,l),
(524,530,l),
(432,530,l),
(267,62,l),
(287,62,l),
(122,530,l),
(30,530,l)
);
}
);
width = 554;
}
);
unicode = 118;
},
{
glyphname = w;
kernLeft = v;
kernRight = v;
lastChange = "2023-09-08 14:46:30 +0000";
layers = (
{
anchors = (
{
name = bottom;
pos = (411,0);
},
{
name = top;
pos = (411,530);
}
);
layerId = m01;
shapes = (
{
closed = 1;
nodes = (
(364,530,l),
(239,95,l),
(114,530,l),
(22,530,l),
(185,0,l),
(293,0,l),
(410,400,l),
(527,0,l),
(635,0,l),
(798,530,l),
(706,530,l),
(581,95,l),
(456,530,l)
);
}
);
width = 820;
},
{
anchors = (
{
name = bottom;
pos = (446,0);
},
{
name = top;
pos = (446,530);
}
);
background = {
shapes = (
{
closed = 1;
nodes = (
(281,0,l),
(389,0,l),
(516,434,l),
(496,434,l),
(623,0,l),
(731,0,l),
(894,530,l),
(802,530,l),
(670,71,l),
(684,71,l),
(552,530,l),
(460,530,l),
(328,71,l),
(342,71,l),
(210,530,l),
(118,530,l)
);
}
);
};
layerId = "37DC72B3-BCF2-46ED-AAD5-F0285A86700E";
shapes = (
{
closed = 1;
nodes = (
(364,530,l),
(295,282,l),
(232,530,l),
(20,530,l),
(178,0,l),
(373,0,l),
(446,242,l),
(518,0,l),
(713,0,l),
(871,530,l),
(658,530,l),
(596,282,l),
(527,530,l)
);
}
);
width = 891;
},
{
anchors = (
{
name = bottom;
pos = (390,0);
},
{
name = top;
pos = (390,530);
}
);
background = {
shapes = (
{
closed = 1;
nodes = (
(178,0,l),
(286,0,l),
(413,434,l),
(393,434,l),
(520,0,l),
(628,0,l),
(791,530,l),
(699,530,l),
(567,71,l),
(581,71,l),
(449,530,l),
(357,530,l),
(225,71,l),
(239,71,l),
(107,530,l),
(15,530,l)
);
}
);
};
layerId = "EE2FFE84-06F1-4AFB-BBEC-60D09A436D14";
shapes = (
{
closed = 1;
nodes = (
(374,530,l),
(222,33,l),
(57,530,l),
(25,530,l),
(204,0,l),
(240,0,l),
(390,480,l),
(539,0,l),
(575,0,l),
(754,530,l),
(722,530,l),
(557,33,l),
(405,530,l)
);
}
);
width = 779;
},
{
anchors = (
{
name = top;
pos = (419,530);
}
);
associatedMasterId = m01;
layerId = "1A1E7024-2AE1-41D6-9E38-032D7F59CE26";
name = "24 de feb. de 23 11:22";
shapes = (
{
closed = 1;
nodes = (
(193,0,l),
(301,0,l),
(428,434,l),
(408,434,l),
(535,0,l),
(643,0,l),
(806,530,l),
(714,530,l),
(582,71,l),
(596,71,l),
(464,530,l),
(372,530,l),
(240,71,l),
(254,71,l),
(122,530,l),
(30,530,l)
);
}
);
width = 836;
},
{
associatedMasterId = "37DC72B3-BCF2-46ED-AAD5-F0285A86700E";
background = {
shapes = (
{
closed = 1;
nodes = (
(281,0,l),
(389,0,l),
(516,434,l),
(496,434,l),
(623,0,l),
(731,0,l),
(894,530,l),
(802,530,l),
(670,71,l),
(684,71,l),
(552,530,l),
(460,530,l),
(328,71,l),
(342,71,l),
(210,530,l),
(118,530,l)
);
}
);
};
layerId = "E834A109-FB29-4DFE-9984-0660006C1B48";
name = "24 de feb. de 23 11:22";
shapes = (
{
closed = 1;
nodes = (
(364,530,l),
(269,190,l),
(318,189,l),
(232,530,l),
(20,530,l),
(178,0,l),
(373,0,l),
(446,242,l),
(518,0,l),
(713,0,l),
(871,530,l),
(658,530,l),
(573,189,l),
(622,190,l),
(527,530,l)
);
}
);
width = 891;
}
);
metricLeft = v;
metricRight = v;
unicode = 119;
},
{
glyphname = x;
kernLeft = x;
kernRight = x;
lastChange = "2023-07-05 17:52:13 +0000";
layers = (
{
layerId = m01;
shapes = (
{
closed = 1;
nodes = (
(294,338,l),
(162,530,l),
(57,530,l),
(241,272,l),
(47,0,l),
(152,0,l),
(294,205,l),
(435,0,l),
(540,0,l),
(348,271,l),
(531,530,l),
(425,530,l)
);
}
);
width = 587;
},
{
background = {
shapes = (
{
closed = 1;
nodes = (
(615,0,l),
(410,289,l),
(402,242,l),
(606,530,l),
(500,530,l),
(354,316,l),
(388,311,l),
(237,530,l),
(132,530,l),
(334,247,l),
(333,296,l),
(122,0,l),
(227,0,l),
(376,215,l),
(353,228,l),
(510,0,l)
);
}
);
};
layerId = "37DC72B3-BCF2-46ED-AAD5-F0285A86700E";
shapes = (
{
closed = 1;
nodes = (
(369,406,l),
(292,532,l),
(47,532,l),
(236,267,l),
(45,0,l),
(292,0,l),
(369,130,l),
(445,0,l),
(692,0,l),
(501,267,l),
(690,532,l),
(445,532,l)
);
}
);
width = 737;
},
{
background = {
shapes = (
{
closed = 1;
nodes = (
(531,0,l),
(326,289,l),
(318,242,l),
(522,530,l),
(416,530,l),
(270,316,l),
(304,311,l),
(153,530,l),
(48,530,l),
(250,247,l),
(249,296,l),
(38,0,l),
(143,0,l),
(292,215,l),
(269,228,l),
(426,0,l)
);
}
);
};
layerId = "EE2FFE84-06F1-4AFB-BBEC-60D09A436D14";
shapes = (
{
closed = 1;
nodes = (
(269,285,l),
(94,530,l),
(57,530,l),
(247,266,l),
(50,0,l),
(87,0,l),
(269,248,l),
(451,0,l),
(488,0,l),
(291,266,l),
(481,530,l),
(444,530,l)
);
}
);
width = 538;
},
{
associatedMasterId = m01;
layerId = "C55B66F9-47D0-4132-97B0-58AFB95321BB";
name = "24 de feb. de 23 11:23";
shapes = (
{
closed = 1;
nodes = (
(523,0,l),
(318,289,l),
(310,242,l),
(514,530,l),
(408,530,l),
(262,316,l),
(296,311,l),
(145,530,l),
(40,530,l),
(242,247,l),
(241,296,l),
(30,0,l),
(135,0,l),
(284,215,l),
(261,228,l),
(418,0,l)
);
}
);
width = 553;
},
{
associatedMasterId = "37DC72B3-BCF2-46ED-AAD5-F0285A86700E";
background = {
shapes = (
{
closed = 1;
nodes = (
(590,0,l),
(385,289,l),
(377,242,l),
(581,530,l),
(475,530,l),
(329,316,l),
(363,311,l),
(212,530,l),
(107,530,l),
(309,247,l),
(308,296,l),
(97,0,l),
(202,0,l),
(351,215,l),
(328,228,l),
(485,0,l)
);
}
);
};
layerId = "79F0D6D2-4597-4871-9463-701562C509BD";
name = "24 de feb. de 23 11:23";
shapes = (
{
closed = 1;
nodes = (
(420,0,l),
(667,0,l),
(451,302,l),
(451,231,l),
(665,532,l),
(420,532,l),
(318,363,l),
(371,363,l),
(267,532,l),
(22,532,l),
(236,231,l),
(236,302,l),
(20,0,l),
(267,0,l),
(370,174,l),
(318,174,l)
);
}
);
width = 687;
}
);
metricLeft = "=v+25";
metricRight = "=v+25";
unicode = 120;
},
{
glyphname = y;
kernLeft = v;
kernRight = v;
lastChange = "2023-08-06 14:57:24 +0000";
layers = (
{
anchors = (
{
name = top;
pos = (269,530);
}
);
layerId = m01;
shapes = (
{
closed = 1;
nodes = (
(215,10,l),
(244,10,l),
(225,-39,ls),
(216,-64,o),
(200,-74,o),
(175,-74,cs),
(119,-74,l),
(119,-150,l),
(184,-150,ls),
(244,-150,o),
(282,-124,o),
(302,-67,cs),
(516,530,l),
(425,530,l),
(272,92,l),
(114,530,l),
(22,530,l)
);
}
);
width = 538;
},
{
anchors = (
{
name = top;
pos = (329,530);
}
);
background = {
shapes = (
{
closed = 1;
nodes = (
(263,-39,ls),
(254,-64,o),
(238,-74,o),
(213,-74,cs),
(157,-74,l),
(157,-150,l),
(222,-150,ls),
(282,-150,o),
(320,-124,o),
(340,-67,cs),
(554,530,l),
(463,530,l),
(298,57,l),
(323,57,l),
(152,530,l),
(60,530,l),
(253,10,l),
(324,10,l),
(294,42,l)
);
}
);
};
layerId = "37DC72B3-BCF2-46ED-AAD5-F0285A86700E";
shapes = (
{
closed = 1;
nodes = (
(208,50,l),
(267,50,l),
(262,39,ls),
(251,15,o),
(233,6,o),
(192,6,cs),
(117,6,l),
(117,-150,l),
(247,-150,ls),
(346,-150,o),
(403,-113,o),
(433,-29,cs),
(634,530,l),
(422,530,l),
(329,245,l),
(232,530,l),
(20,530,l)
);
}
);
width = 654;
},
{
anchors = (
{
name = top;
pos = (257,530);
}
);
background = {
shapes = (
{
closed = 1;
nodes = (
(216,-39,ls),
(207,-64,o),
(191,-74,o),
(166,-74,cs),
(110,-74,l),
(110,-150,l),
(175,-150,ls),
(235,-150,o),
(273,-124,o),
(293,-67,cs),
(507,530,l),
(416,530,l),
(251,57,l),
(276,57,l),
(105,530,l),
(13,530,l),
(206,10,l),
(277,10,l),
(247,42,l)
);
}
);
};
layerId = "EE2FFE84-06F1-4AFB-BBEC-60D09A436D14";
shapes = (
{
closed = 1;
nodes = (
(234,10,l),
(250,10,l),
(231,-39,ls),
(205,-105,o),
(186,-123,o),
(133,-123,cs),
(93,-123,l),
(93,-150,l),
(132,-150,ls),
(194,-150,o),
(230,-125,o),
(252,-67,cs),
(476,530,l),
(442,530,l),
(257,31,l),
(57,530,l),
(25,530,l)
);
}
);
width = 501;
},
{
anchors = (
{
name = top;
pos = (277,530);
}
);
associatedMasterId = m01;
layerId = "7C71B79E-4EB6-4CDB-9C61-D37EF36DDF22";
name = "24 de feb. de 23 11:24";
shapes = (
{
closed = 1;
nodes = (
(233,-39,ls),
(224,-64,o),
(208,-74,o),
(183,-74,cs),
(127,-74,l),
(127,-150,l),
(192,-150,ls),
(252,-150,o),
(290,-124,o),
(310,-67,cs),
(524,530,l),
(433,530,l),
(268,57,l),
(293,57,l),
(122,530,l),
(30,530,l),
(223,10,l),
(294,10,l),
(264,42,l)
);
}
);
width = 554;
},
{
associatedMasterId = "37DC72B3-BCF2-46ED-AAD5-F0285A86700E";
background = {
shapes = (
{
closed = 1;
nodes = (
(263,-39,ls),
(254,-64,o),
(238,-74,o),
(213,-74,cs),
(157,-74,l),
(157,-150,l),
(222,-150,ls),
(282,-150,o),
(320,-124,o),
(340,-67,cs),
(554,530,l),
(463,530,l),
(298,57,l),
(323,57,l),
(152,530,l),
(60,530,l),
(253,10,l),
(324,10,l),
(294,42,l)
);
}
);
};
layerId = "EC54C402-9245-427D-8265-F9950280F74F";
name = "24 de feb. de 23 11:24";
shapes = (
{
closed = 1;
nodes = (
(262,39,ls),
(252,15,o),
(233,6,o),
(192,6,cs),
(117,6,l),
(117,-150,l),
(247,-150,ls),
(346,-150,o),
(403,-113,o),
(433,-29,cs),
(634,530,l),
(422,530,l),
(268,57,l),
(393,57,l),
(232,530,l),
(20,530,l),
(208,50,l),
(319,50,l),
(267,51,l)
);
}
);
width = 654;
}
);
metricLeft = v;
metricRight = v;
unicode = 121;
},
{
glyphname = z;
kernLeft = z;
kernRight = z;
lastChange = "2023-07-05 17:52:13 +0000";
layers = (
{
anchors = (
{
name = bottom;
pos = (276,0);
},
{
name = top;
pos = (276,530);
}
);
layerId = m01;
shapes = (
{
closed = 1;
nodes = (
(485,530,l),
(67,530,l),
(67,454,l),
(393,454,l),
(57,93,l),
(57,0,l),
(493,0,l),
(493,76,l),
(150,76,l),
(485,435,l)
);
}
);
width = 550;
},
{
anchors = (
{
name = bottom;
pos = (334,0);
},
{
name = top;
pos = (334,530);
}
);
background = {
shapes = (
{
closed = 1;
nodes = (
(575,530,l),
(157,530,l),
(157,448,l),
(534,448,l),
(514,494,l),
(115,65,l),
(147,180,l),
(147,0,l),
(583,0,l),
(583,82,l),
(190,82,l),
(211,44,l),
(606,468,l),
(575,409,l)
);
}
);
};
layerId = "37DC72B3-BCF2-46ED-AAD5-F0285A86700E";
shapes = (
{
closed = 1;
nodes = (
(595,530,l),
(78,530,l),
(78,368,l),
(298,368,l),
(55,154,l),
(55,0,l),
(602,0,l),
(602,162,l),
(342,162,l),
(595,383,l)
);
}
);
width = 657;
},
{
anchors = (
{
name = bottom;
pos = (270,0);
},
{
name = top;
pos = (270,530);
}
);
background = {
shapes = (
{
closed = 1;
nodes = (
(503,530,l),
(85,530,l),
(85,448,l),
(462,448,l),
(442,494,l),
(43,65,l),
(75,180,l),
(75,0,l),
(511,0,l),
(511,82,l),
(118,82,l),
(139,44,l),
(534,468,l),
(503,409,l)
);
}
);
};
layerId = "EE2FFE84-06F1-4AFB-BBEC-60D09A436D14";
shapes = (
{
closed = 1;
nodes = (
(470,530,l),
(70,530,l),
(70,500,l),
(434,500,l),
(60,30,l),
(60,0,l),
(478,0,l),
(478,30,l),
(96,30,l),
(470,500,l)
);
}
);
width = 538;
},
{
anchors = (
{
name = top;
pos = (238,530);
}
);
associatedMasterId = m01;
layerId = "236C8ABD-9E72-4EA7-96DA-9BCB26D69C51";
name = "24 de feb. de 23 11:25";
shapes = (
{
closed = 1;
nodes = (
(458,530,l),
(40,530,l),
(40,448,l),
(417,448,l),
(397,494,l),
(-2,65,l),
(30,180,l),
(30,0,l),
(466,0,l),
(466,82,l),
(73,82,l),
(94,44,l),
(489,468,l),
(458,409,l)
);
}
);
width = 496;
}
);
metricLeft = "=x+10";
metricRight = "=x+10";
unicode = 122;
},
{
glyphname = a.ss01;
kernLeft = a;
kernRight = n;
lastChange = "2023-07-05 17:52:13 +0000";
layers = (
{
associatedMasterId = m01;
layerId = "8246345C-8D56-4D85-B6F2-E63D7AB8D0DD";
name = "13 Jan 23 12:53";
shapes = (
{
closed = 1;
nodes = (
(291,297,o),
(235,284,o),
(189,272,cs),
(102,249,o),
(55,206,o),
(55,122,cs),
(55,30,o),
(141,-16,o),
(247,-16,cs),
(347,-16,o),
(417,47,o),
(424,126,c),
(414,126,l),
(414,0,l),
(496,0,l),
(496,320,ls),
(496,473,o),
(410,546,o),
(278,546,cs),
(152,546,o),
(59,463,o),
(53,339,c),
(25,386,l),
(165,376,l),
(146,338,l),
(147,411,o),
(199,464,o),
(278,464,cs),
(360,464,o),
(410,418,o),
(410,365,cs),
(410,337,o),
(392,319,o),
(342,308,cs)
);
},
{
closed = 1;
nodes = (
(145,153,o),
(170,182,o),
(218,195,cs),
(260,207,o),
(302,217,o),
(337,227,cs),
(375,238,o),
(411,252,o),
(438,286,c),
(412,286,l),
(412,179,l),
(413,135,o),
(360,60,o),
(258,60,cs),
(180,60,o),
(145,84,o),
(145,126,cs)
);
}
);
width = 570;
},
{
associatedMasterId = m01;
layerId = "1A50ECA5-014A-44CB-B21A-E77EA58E7D5D";
name = "19 Jan 23 10:45";
shapes = (
{
closed = 1;
nodes = (
(225,293,ls),
(105,293,o),
(25,249,o),
(25,137,cs),
(25,40,o),
(111,-16,o),
(216,-16,cs),
(316,-16,o),
(387,47,o),
(393,106,c),
(383,106,l),
(387,0,l),
(465,0,l),
(465,320,ls),
(465,472,o),
(379,546,o),
(251,546,cs),
(129,546,o),
(36,463,o),
(30,339,c),
(2,376,l),
(142,366,l),
(123,338,l),
(124,411,o),
(176,464,o),
(251,464,cs),
(329,464,o),
(379,420,o),
(379,327,cs),
(379,263,l),
(400,293,l)
);
},
{
closed = 1;
nodes = (
(115,213,o),
(177,217,o),
(257,217,cs),
(395,217,l),
(381,234,l),
(381,199,ls),
(381,113,o),
(313,60,o),
(227,60,cs),
(150,60,o),
(115,94,o),
(115,137,cs)
);
}
);
width = 525;
},
{
anchors = (
{
name = bottom;
pos = (266,0);
},
{
name = ogonek;
pos = (482,0);
},
{
name = top;
pos = (268,530);
}
);
layerId = m01;
name = Regular;
shapes = (
{
closed = 1;
nodes = (
(242,301,ls),
(125,280,o),
(42,253,o),
(42,141,cs),
(42,46,o),
(128,-10,o),
(233,-12,cs),
(333,-10,o),
(404,53,o),
(410,112,c),
(401,112,l),
(404,0,l),
(482,0,l),
(482,320,ls),
(482,468,o),
(396,542,o),
(268,542,cs),
(146,542,o),
(53,459,o),
(47,339,c),
(19,376,l),
(159,366,l),
(140,338,l),
(141,407,o),
(193,460,o),
(268,460,cs),
(346,460,o),
(396,416,o),
(396,327,cs),
(396,303,l),
(417,333,l)
);
},
{
closed = 1;
nodes = (
(132,217,o),
(196,216,o),
(274,231,cs),
(412,257,l),
(398,274,l),
(398,219,ls),
(398,121,o),
(330,64,o),
(244,60,cs),
(167,56,o),
(132,100,o),
(132,141,cs)
);
}
);
width = 561;
},
{
anchors = (
{
name = bottom;
pos = (317,0);
},
{
name = ogonek;
pos = (601,0);
},
{
name = top;
pos = (317,530);
}
);
background = {
shapes = (
{
closed = 1;
nodes = (
(291,301,ls),
(174,280,o),
(91,253,o),
(91,141,cs),
(91,46,o),
(177,-10,o),
(282,-12,cs),
(382,-10,o),
(453,53,o),
(459,112,c),
(449,112,l),
(453,0,l),
(531,0,l),
(531,320,ls),
(531,468,o),
(445,542,o),
(317,542,cs),
(195,542,o),
(102,459,o),
(96,339,c),
(68,376,l),
(208,366,l),
(189,338,l),
(190,407,o),
(242,460,o),
(317,460,cs),
(395,460,o),
(445,416,o),
(445,327,cs),
(445,303,l),
(466,333,l)
);
},
{
closed = 1;
nodes = (
(181,217,o),
(245,216,o),
(323,231,cs),
(461,257,l),
(447,274,l),
(447,219,ls),
(447,121,o),
(379,64,o),
(293,60,cs),
(216,56,o),
(181,100,o),
(181,141,cs)
);
}
);
};
layerId = "37DC72B3-BCF2-46ED-AAD5-F0285A86700E";
shapes = (
{
closed = 1;
nodes = (
(195,295,ls),
(80,271,o),
(23,222,o),
(23,140,cs),
(23,48,o),
(102,-17,o),
(204,-14,cs),
(352,-10,o),
(388,43,o),
(395,112,c),
(377,112,l),
(389,0,l),
(601,0,l),
(601,300,ls),
(601,465,o),
(511,542,o),
(317,542,cs),
(127,542,o),
(35,471,o),
(28,319,c),
(0,356,l),
(292,346,l),
(263,318,l),
(264,391,o),
(279,420,o),
(316,420,cs),
(350,420,o),
(360,400,o),
(360,337,cs),
(360,303,l),
(382,334,l)
);
},
{
closed = 1;
nodes = (
(265,177,o),
(286,195,o),
(323,203,cs),
(385,216,l),
(362,254,l),
(363,229,ls),
(366,158,o),
(346,114,o),
(306,114,cs),
(283,114,o),
(265,128,o),
(265,151,cs)
);
}
);
width = 641;
},
{
anchors = (
{
name = bottom;
pos = (253,0);
},
{
name = ogonek;
pos = (449,0);
},
{
name = top;
pos = (253,530);
}
);
background = {
shapes = (
{
closed = 1;
nodes = (
(217,301,ls),
(100,280,o),
(17,253,o),
(17,141,cs),
(17,46,o),
(103,-10,o),
(208,-12,cs),
(308,-10,o),
(379,53,o),
(385,112,c),
(375,112,l),
(379,0,l),
(457,0,l),
(457,320,ls),
(457,468,o),
(371,542,o),
(243,542,cs),
(121,542,o),
(28,459,o),
(22,339,c),
(-6,376,l),
(134,366,l),
(115,338,l),
(116,407,o),
(168,460,o),
(243,460,cs),
(321,460,o),
(371,416,o),
(371,327,cs),
(371,303,l),
(392,333,l)
);
},
{
closed = 1;
nodes = (
(107,217,o),
(171,216,o),
(249,231,cs),
(387,257,l),
(373,274,l),
(373,219,ls),
(373,121,o),
(305,64,o),
(219,60,cs),
(142,56,o),
(107,100,o),
(107,141,cs)
);
}
);
};
layerId = "EE2FFE84-06F1-4AFB-BBEC-60D09A436D14";
shapes = (
{
closed = 1;
nodes = (
(227,280,ls),
(134,263,o),
(45,226,o),
(45,131,cs),
(45,48,o),
(111,-10,o),
(218,-12,cs),
(332,-10,o),
(424,62,o),
(433,192,c),
(421,192,l),
(427,0,l),
(449,0,l),
(449,320,ls),
(449,468,o),
(381,542,o),
(253,542,cs),
(131,542,o),
(56,459,o),
(50,339,c),
(4,376,l),
(144,366,l),
(87,338,l),
(89,446,o),
(152,512,o),
(253,512,cs),
(356,512,o),
(417,442,o),
(417,327,cs),
(417,303,l),
(440,319,l)
);
},
{
closed = 1;
nodes = (
(77,219,o),
(172,241,o),
(259,257,cs),
(435,290,l),
(419,295,l),
(419,219,ls),
(419,108,o),
(342,23,o),
(229,18,cs),
(136,13,o),
(77,60,o),
(77,131,cs)
);
}
);
width = 531;
}
);
metricLeft = "=o-5";
metricRight = n;
},
